jost-Italic.ufo
<glyph name="exclam" format="2">
  <advance width="564"/>
  <unicode hex="0021"/>
  <outline>
    <contour>
      <point x="198" y="402" type="line"/>
      <point x="318" y="402" type="line"/>
      <point x="556" y="1400" type="line"/>
      <point x="356" y="1400" type="line"/>
    </contour>
    <contour>
      <point x="207" y="-30" type="curve" smooth="yes"/>
      <point x="261" y="-30"/>
      <point x="302" y="12"/>
      <point x="302" y="65" type="curve" smooth="yes"/>
      <point x="302" y="130"/>
      <point x="241" y="190"/>
      <point x="176" y="190" type="curve" smooth="yes"/>
      <point x="121" y="190"/>
      <point x="80" y="148"/>
      <point x="80" y="95" type="curve" smooth="yes"/>
      <point x="80" y="30"/>
      <point x="141" y="-30"/>
    </contour>
  </outline>
</glyph>
<glyph name="quotedbl" format="2">
  <advance width="874"/>
  <unicode hex="0022"/>
  <outline>
    <contour>
      <point x="551" y="802" type="line"/>
      <point x="661" y="804" type="line"/>
      <point x="937" y="1398" type="line"/>
      <point x="743" y="1398" type="line"/>
    </contour>
    <contour>
      <point x="213" y="802" type="line"/>
      <point x="323" y="804" type="line"/>
      <point x="599" y="1398" type="line"/>
      <point x="405" y="1398" type="line"/>
    </contour>
  </outline>
</glyph>
<glyph name="numbersign" format="2">
  <advance width="1138"/>
  <unicode hex="0023"/>
  <outline>
    <contour>
      <point x="32" y="0" type="line"/>
      <point x="176" y="0" type="line"/>
      <point x="353" y="402" type="line"/>
      <point x="595" y="402" type="line"/>
      <point x="420" y="0" type="line"/>
      <point x="572" y="0" type="line"/>
      <point x="747" y="402" type="line"/>
      <point x="974" y="402" type="line"/>
      <point x="996" y="528" type="line"/>
      <point x="803" y="530" type="line"/>
      <point x="954" y="881" type="line"/>
      <point x="1144" y="882" type="line"/>
      <point x="1168" y="1008" type="line"/>
      <point x="1010" y="1008" type="line"/>
      <point x="1180" y="1398" type="line"/>
      <point x="1022" y="1398" type="line"/>
      <point x="854" y="1008" type="line"/>
      <point x="612" y="1008" type="line"/>
      <point x="784" y="1398" type="line"/>
      <point x="626" y="1398" type="line"/>
      <point x="460" y="1008" type="line"/>
      <point x="232" y="1008" type="line"/>
      <point x="208" y="882" type="line"/>
      <point x="406" y="881" type="line"/>
      <point x="257" y="530" type="line"/>
      <point x="60" y="528" type="line"/>
      <point x="38" y="402" type="line"/>
      <point x="203" y="402" type="line"/>
    </contour>
    <contour>
      <point x="408" y="530" type="line"/>
      <point x="556" y="880" type="line"/>
      <point x="799" y="880" type="line"/>
      <point x="651" y="530" type="line"/>
    </contour>
  </outline>
</glyph>
<glyph name="dollar" format="2">
  <advance width="1090"/>
  <unicode hex="0024"/>
  <outline>
    <contour>
      <point x="379" y="-222" type="line"/>
      <point x="521" y="-222" type="line"/>
      <point x="557" y="-16" type="line"/>
      <point x="785" y="2"/>
      <point x="976" y="196"/>
      <point x="976" y="422" type="curve" smooth="yes"/>
      <point x="976" y="638"/>
      <point x="800" y="740"/>
      <point x="696" y="792" type="curve" smooth="yes"/>
      <point x="560" y="860"/>
      <point x="444" y="916"/>
      <point x="444" y="1036" type="curve" smooth="yes"/>
      <point x="444" y="1157"/>
      <point x="561" y="1256"/>
      <point x="694" y="1256" type="curve" smooth="yes"/>
      <point x="804" y="1256"/>
      <point x="878" y="1188"/>
      <point x="937" y="1028" type="curve"/>
      <point x="1079" y="1116" type="line"/>
      <point x="1024" y="1273"/>
      <point x="921" y="1377"/>
      <point x="794" y="1408" type="curve"/>
      <point x="834" y="1634" type="line"/>
      <point x="690" y="1634" type="line"/>
      <point x="653" y="1415" type="line"/>
      <point x="438" y="1390"/>
      <point x="274" y="1222"/>
      <point x="274" y="1024" type="curve" smooth="yes"/>
      <point x="274" y="882"/>
      <point x="359" y="776"/>
      <point x="551" y="676" type="curve" smooth="yes"/>
      <point x="643" y="628"/>
      <point x="805" y="562"/>
      <point x="805" y="405" type="curve" smooth="yes"/>
      <point x="805" y="267"/>
      <point x="678" y="142"/>
      <point x="529" y="142" type="curve" smooth="yes"/>
      <point x="391" y="142"/>
      <point x="299" y="252"/>
      <point x="240" y="452" type="curve"/>
      <point x="94" y="368" type="line"/>
      <point x="154" y="166"/>
      <point x="270" y="33"/>
      <point x="417" y="-6" type="curve"/>
    </contour>
  </outline>
</glyph>
<glyph name="percent" format="2">
  <advance width="1412"/>
  <unicode hex="0025"/>
  <outline>
    <contour>
      <point x="425" y="782" type="curve" smooth="yes"/>
      <point x="604" y="782"/>
      <point x="753" y="938"/>
      <point x="778" y="1101" type="curve" smooth="yes"/>
      <point x="802" y="1256"/>
      <point x="708" y="1418"/>
      <point x="526" y="1418" type="curve" smooth="yes"/>
      <point x="347" y="1418"/>
      <point x="200" y="1261"/>
      <point x="175" y="1101" type="curve" smooth="yes"/>
      <point x="150" y="943"/>
      <point x="244" y="782"/>
    </contour>
    <contour>
      <point x="428" y="912" type="curve" smooth="yes"/>
      <point x="326" y="917"/>
      <point x="296" y="1022"/>
      <point x="311" y="1098" type="curve" smooth="yes"/>
      <point x="330" y="1193"/>
      <point x="425" y="1293"/>
      <point x="525" y="1288" type="curve" smooth="yes"/>
      <point x="624" y="1283"/>
      <point x="656" y="1180"/>
      <point x="639" y="1098" type="curve" smooth="yes"/>
      <point x="620" y="1010"/>
      <point x="530" y="906"/>
    </contour>
    <contour>
      <point x="952" y="-18" type="curve" smooth="yes"/>
      <point x="1130" y="-18"/>
      <point x="1276" y="137"/>
      <point x="1302" y="298" type="curve" smooth="yes"/>
      <point x="1327" y="453"/>
      <point x="1237" y="618"/>
      <point x="1053" y="618" type="curve" smooth="yes"/>
      <point x="875" y="618"/>
      <point x="728" y="464"/>
      <point x="702" y="304" type="curve" smooth="yes"/>
      <point x="675" y="143"/>
      <point x="771" y="-18"/>
    </contour>
    <contour>
      <point x="954" y="112" type="curve" smooth="yes"/>
      <point x="852" y="117"/>
      <point x="822" y="223"/>
      <point x="838" y="300" type="curve" smooth="yes"/>
      <point x="857" y="390"/>
      <point x="947" y="494"/>
      <point x="1049" y="488" type="curve" smooth="yes"/>
      <point x="1150" y="483"/>
      <point x="1182" y="380"/>
      <point x="1166" y="301" type="curve" smooth="yes"/>
      <point x="1147" y="210"/>
      <point x="1057" y="106"/>
    </contour>
    <contour>
      <point x="102" y="0" type="line"/>
      <point x="252" y="0" type="line"/>
      <point x="1386" y="1398" type="line"/>
      <point x="1224" y="1398" type="line"/>
    </contour>
  </outline>
</glyph>
<glyph name="ampersand" format="2">
  <advance width="1270"/>
  <unicode hex="0026"/>
  <outline>
    <contour>
      <point x="453" y="-18" type="curve" smooth="yes"/>
      <point x="690" y="-18"/>
      <point x="904" y="128"/>
      <point x="1279" y="548" type="curve"/>
      <point x="1164" y="628" type="line"/>
      <point x="811" y="240"/>
      <point x="641" y="121"/>
      <point x="452" y="130" type="curve" smooth="yes"/>
      <point x="317" y="135"/>
      <point x="228" y="198"/>
      <point x="228" y="315" type="curve" smooth="yes"/>
      <point x="228" y="490"/>
      <point x="426" y="604"/>
      <point x="646" y="740" type="curve" smooth="yes"/>
      <point x="764" y="813"/>
      <point x="982" y="949"/>
      <point x="982" y="1155" type="curve" smooth="yes"/>
      <point x="982" y="1288"/>
      <point x="892" y="1411"/>
      <point x="702" y="1420" type="curve" smooth="yes"/>
      <point x="523" y="1428"/>
      <point x="326" y="1331"/>
      <point x="326" y="1123" type="curve" smooth="yes"/>
      <point x="326" y="1001"/>
      <point x="391" y="906"/>
      <point x="483" y="767" type="curve" smooth="yes"/>
      <point x="992" y="0" type="line"/>
      <point x="1160" y="0" type="line"/>
      <point x="606" y="850" type="line" smooth="yes"/>
      <point x="541" y="949"/>
      <point x="487" y="1037"/>
      <point x="487" y="1119" type="curve" smooth="yes"/>
      <point x="487" y="1219"/>
      <point x="567" y="1278"/>
      <point x="674" y="1278" type="curve" smooth="yes"/>
      <point x="780" y="1278"/>
      <point x="826" y="1221"/>
      <point x="826" y="1127" type="curve" smooth="yes"/>
      <point x="826" y="991"/>
      <point x="730" y="946"/>
      <point x="539" y="834" type="curve" smooth="yes"/>
      <point x="261" y="672"/>
      <point x="62" y="535"/>
      <point x="62" y="316" type="curve" smooth="yes"/>
      <point x="62" y="121"/>
      <point x="221" y="-18"/>
    </contour>
  </outline>
</glyph>
<glyph name="parenleft" format="2">
  <advance width="582"/>
  <unicode hex="0028"/>
  <outline>
    <contour>
      <point x="254" y="-402" type="curve"/>
      <point x="394" y="-402" type="line"/>
      <point x="315" y="-102"/>
      <point x="310" y="228"/>
      <point x="370" y="578" type="curve" smooth="yes"/>
      <point x="430" y="928"/>
      <point x="547" y="1255"/>
      <point x="721" y="1556" type="curve"/>
      <point x="573" y="1556" type="line"/>
      <point x="383" y="1275"/>
      <point x="251" y="932"/>
      <point x="194" y="580" type="curve" smooth="yes"/>
      <point x="138" y="236"/>
      <point x="160" y="-97"/>
    </contour>
  </outline>
</glyph>
<glyph name="parenright" format="2">
  <advance width="582"/>
  <unicode hex="0029"/>
  <outline>
    <contour>
      <point x="-80" y="-396" type="curve"/>
      <point x="68" y="-396" type="line"/>
      <point x="260" y="-111"/>
      <point x="389" y="222"/>
      <point x="447" y="581" type="curve" smooth="yes"/>
      <point x="502" y="925"/>
      <point x="483" y="1252"/>
      <point x="387" y="1562" type="curve"/>
      <point x="245" y="1562" type="line"/>
      <point x="323" y="1264"/>
      <point x="331" y="934"/>
      <point x="271" y="583" type="curve" smooth="yes"/>
      <point x="210" y="224"/>
      <point x="88" y="-105"/>
    </contour>
  </outline>
</glyph>
<glyph name="asterisk" format="2">
  <advance width="1114"/>
  <unicode hex="002A"/>
  <outline>
    <contour>
      <point x="746" y="654" type="line"/>
      <point x="868" y="730" type="line"/>
      <point x="722" y="981" type="line"/>
      <point x="1033" y="1062" type="line"/>
      <point x="1018" y="1196" type="line"/>
      <point x="720" y="1089" type="line"/>
      <point x="800" y="1398" type="line"/>
      <point x="664" y="1398" type="line"/>
      <point x="614" y="1084" type="line"/>
      <point x="354" y="1194" type="line"/>
      <point x="290" y="1068" type="line"/>
      <point x="565" y="986" type="line"/>
      <point x="322" y="744" type="line"/>
      <point x="424" y="658" type="line"/>
      <point x="637" y="911" type="line"/>
    </contour>
  </outline>
</glyph>
<glyph name="plus" format="2">
  <advance width="1156"/>
  <unicode hex="002B"/>
  <outline>
    <contour>
      <point x="395" y="21" type="line"/>
      <point x="553" y="21" type="line"/>
      <point x="638" y="431" type="line"/>
      <point x="1019" y="430" type="line"/>
      <point x="1051" y="590" type="line"/>
      <point x="672" y="590" type="line"/>
      <point x="757" y="1000" type="line"/>
      <point x="585" y="998" type="line"/>
      <point x="506" y="590" type="line"/>
      <point x="131" y="590" type="line"/>
      <point x="101" y="432" type="line"/>
      <point x="475" y="431" type="line"/>
    </contour>
  </outline>
</glyph>
<glyph name="comma" format="2">
  <advance width="578"/>
  <unicode hex="002C"/>
  <outline>
    <contour>
      <point x="51" y="-336" type="line"/>
      <point x="360" y="152" type="line"/>
      <point x="207" y="216" type="line"/>
      <point x="-61" y="-294" type="line"/>
    </contour>
  </outline>
</glyph>
<glyph name="hyphen" format="2">
  <advance width="394"/>
  <unicode hex="002D"/>
  <outline>
    <contour>
      <point x="-18" y="402" type="line"/>
      <point x="364" y="402" type="line"/>
      <point x="395" y="550" type="line"/>
      <point x="11" y="550" type="line"/>
    </contour>
  </outline>
</glyph>
<glyph name="period" format="2">
  <advance width="564"/>
  <unicode hex="002E"/>
  <outline>
    <contour>
      <point x="204" y="-28" type="curve" smooth="yes"/>
      <point x="259" y="-28"/>
      <point x="298" y="12"/>
      <point x="298" y="65" type="curve" smooth="yes"/>
      <point x="298" y="130"/>
      <point x="240" y="188"/>
      <point x="174" y="188" type="curve" smooth="yes"/>
      <point x="120" y="188"/>
      <point x="80" y="148"/>
      <point x="80" y="95" type="curve" smooth="yes"/>
      <point x="80" y="30"/>
      <point x="139" y="-28"/>
    </contour>
  </outline>
</glyph>
<glyph name="slash" format="2">
  <advance width="968"/>
  <unicode hex="002F"/>
  <outline>
    <contour>
      <point x="-142" y="-299" type="line"/>
      <point x="14" y="-298" type="line"/>
      <point x="1124" y="1398" type="line"/>
      <point x="954" y="1398" type="line"/>
    </contour>
  </outline>
</glyph>
<glyph name="zero" format="2">
  <advance width="1128"/>
  <unicode hex="0030"/>
  <outline>
    <contour>
      <point x="464" y="-18" type="curve" smooth="yes"/>
      <point x="806" y="-19"/>
      <point x="1108" y="406"/>
      <point x="1108" y="885" type="curve" smooth="yes"/>
      <point x="1108" y="1217"/>
      <point x="963" y="1418"/>
      <point x="728" y="1418" type="curve" smooth="yes"/>
      <point x="384" y="1418"/>
      <point x="85" y="986"/>
      <point x="85" y="512" type="curve" smooth="yes"/>
      <point x="85" y="182"/>
      <point x="230" y="-17"/>
    </contour>
    <contour>
      <point x="472" y="142" type="curve" smooth="yes"/>
      <point x="327" y="142"/>
      <point x="243" y="267"/>
      <point x="243" y="498" type="curve" smooth="yes"/>
      <point x="243" y="875"/>
      <point x="466" y="1258"/>
      <point x="725" y="1258" type="curve" smooth="yes"/>
      <point x="853" y="1258"/>
      <point x="950" y="1164"/>
      <point x="950" y="906" type="curve" smooth="yes"/>
      <point x="950" y="512"/>
      <point x="724" y="141"/>
    </contour>
  </outline>
</glyph>
<glyph name="one" format="2">
  <advance width="846"/>
  <unicode hex="0031"/>
  <outline>
    <contour>
      <point x="328" y="0" type="line"/>
      <point x="494" y="0" type="line"/>
      <point x="784" y="1422" type="line"/>
      <point x="300" y="1304" type="line"/>
      <point x="260" y="1122" type="line"/>
      <point x="574" y="1210" type="line"/>
    </contour>
  </outline>
</glyph>
<glyph name="two" format="2">
  <advance width="1070"/>
  <unicode hex="0032"/>
  <outline>
    <contour>
      <point x="-32" y="0" type="line"/>
      <point x="904" y="0" type="line"/>
      <point x="932" y="160" type="line"/>
      <point x="333" y="162" type="line"/>
      <point x="828" y="615" type="line" smooth="yes"/>
      <point x="983" y="757"/>
      <point x="1071" y="919"/>
      <point x="1071" y="1066" type="curve" smooth="yes"/>
      <point x="1071" y="1264"/>
      <point x="911" y="1418"/>
      <point x="702" y="1420" type="curve" smooth="yes"/>
      <point x="463" y="1422"/>
      <point x="266" y="1229"/>
      <point x="196" y="922" type="curve"/>
      <point x="360" y="922" type="line"/>
      <point x="423" y="1138"/>
      <point x="542" y="1260"/>
      <point x="687" y="1260" type="curve" smooth="yes"/>
      <point x="812" y="1260"/>
      <point x="901" y="1169"/>
      <point x="901" y="1050" type="curve" smooth="yes"/>
      <point x="901" y="946"/>
      <point x="833" y="833"/>
      <point x="701" y="706" type="curve" smooth="yes"/>
    </contour>
  </outline>
</glyph>
<glyph name="three" format="2">
  <advance width="1026"/>
  <unicode hex="0033"/>
  <outline>
    <contour>
      <point x="471" y="-18" type="curve" smooth="yes"/>
      <point x="696" y="-18"/>
      <point x="905" y="137"/>
      <point x="940" y="366" type="curve" smooth="yes"/>
      <point x="966" y="535"/>
      <point x="881" y="665"/>
      <point x="702" y="725" type="curve"/>
      <point x="882" y="781"/>
      <point x="992" y="893"/>
      <point x="1015" y="1046" type="curve" smooth="yes"/>
      <point x="1044" y="1249"/>
      <point x="901" y="1413"/>
      <point x="699" y="1418" type="curve" smooth="yes"/>
      <point x="508" y="1423"/>
      <point x="337" y="1287"/>
      <point x="274" y="1056" type="curve"/>
      <point x="434" y="1054" type="line"/>
      <point x="494" y="1193"/>
      <point x="592" y="1269"/>
      <point x="696" y="1264" type="curve" smooth="yes"/>
      <point x="803" y="1259"/>
      <point x="872" y="1170"/>
      <point x="848" y="1044" type="curve" smooth="yes"/>
      <point x="824" y="918"/>
      <point x="719" y="830"/>
      <point x="538" y="800" type="curve"/>
      <point x="515" y="650" type="line"/>
      <point x="712" y="623"/>
      <point x="801" y="532"/>
      <point x="775" y="388" type="curve" smooth="yes"/>
      <point x="749" y="248"/>
      <point x="623" y="141"/>
      <point x="476" y="142" type="curve" smooth="yes"/>
      <point x="349" y="142"/>
      <point x="271" y="223"/>
      <point x="266" y="368" type="curve"/>
      <point x="102" y="370" type="line"/>
      <point x="99" y="136"/>
      <point x="246" y="-18"/>
    </contour>
  </outline>
</glyph>
<glyph name="four" format="2">
  <advance width="1096"/>
  <unicode hex="0034"/>
  <outline>
    <contour>
      <point x="560" y="0" type="line"/>
      <point x="726" y="0" type="line"/>
      <point x="782" y="281" type="line"/>
      <point x="995" y="280" type="line"/>
      <point x="1023" y="430" type="line"/>
      <point x="812" y="430" type="line"/>
      <point x="1007" y="1398" type="line"/>
      <point x="934" y="1396" type="line"/>
      <point x="-14" y="284" type="line"/>
      <point x="618" y="281" type="line"/>
    </contour>
    <contour>
      <point x="287" y="431" type="line"/>
      <point x="767" y="1000" type="line"/>
      <point x="649" y="431" type="line"/>
    </contour>
  </outline>
</glyph>
<glyph name="five" format="2">
  <advance width="1060"/>
  <unicode hex="0035"/>
  <outline>
    <contour>
      <point x="465" y="-18" type="curve" smooth="yes"/>
      <point x="755" y="-18"/>
      <point x="1003" y="229"/>
      <point x="1003" y="533" type="curve" smooth="yes"/>
      <point x="1003" y="764"/>
      <point x="859" y="930"/>
      <point x="668" y="930" type="curve" smooth="yes"/>
      <point x="613" y="930"/>
      <point x="558" y="917"/>
      <point x="470" y="880" type="curve"/>
      <point x="634" y="1250" type="line"/>
      <point x="1124" y="1250" type="line"/>
      <point x="1153" y="1400" type="line"/>
      <point x="523" y="1400" type="line"/>
      <point x="230" y="658" type="line"/>
      <point x="395" y="749"/>
      <point x="484" y="779"/>
      <point x="570" y="779" type="curve" smooth="yes"/>
      <point x="729" y="779"/>
      <point x="833" y="673"/>
      <point x="833" y="517" type="curve" smooth="yes"/>
      <point x="833" y="314"/>
      <point x="656" y="139"/>
      <point x="470" y="142" type="curve" smooth="yes"/>
      <point x="351" y="144"/>
      <point x="251" y="218"/>
      <point x="180" y="370" type="curve"/>
      <point x="31" y="278" type="line"/>
      <point x="129" y="84"/>
      <point x="279" y="-18"/>
    </contour>
  </outline>
</glyph>
<glyph name="six" format="2">
  <advance width="1082"/>
  <unicode hex="0036"/>
  <outline>
    <contour>
      <point x="482" y="-18" type="curve" smooth="yes"/>
      <point x="758" y="-18"/>
      <point x="1006" y="246"/>
      <point x="1006" y="529" type="curve" smooth="yes"/>
      <point x="1006" y="746"/>
      <point x="859" y="912"/>
      <point x="667" y="912" type="curve" smooth="yes"/>
      <point x="600" y="912"/>
      <point x="542" y="891"/>
      <point x="466" y="840" type="curve"/>
      <point x="484" y="824" type="line"/>
      <point x="1000" y="1398" type="line"/>
      <point x="780" y="1398" type="line"/>
      <point x="229" y="748" type="line" smooth="yes"/>
      <point x="140" y="643"/>
      <point x="94" y="513"/>
      <point x="94" y="389" type="curve" smooth="yes"/>
      <point x="94" y="156"/>
      <point x="258" y="-18"/>
    </contour>
    <contour>
      <point x="485" y="136" type="curve" smooth="yes"/>
      <point x="344" y="139"/>
      <point x="249" y="252"/>
      <point x="249" y="395" type="curve" smooth="yes"/>
      <point x="249" y="593"/>
      <point x="429" y="791"/>
      <point x="617" y="788" type="curve" smooth="yes"/>
      <point x="749" y="786"/>
      <point x="852" y="679"/>
      <point x="852" y="527" type="curve" smooth="yes"/>
      <point x="852" y="324"/>
      <point x="669" y="132"/>
    </contour>
  </outline>
</glyph>
<glyph name="seven" format="2">
  <advance width="986"/>
  <unicode hex="0037"/>
  <outline>
    <contour>
      <point x="102" y="0" type="line"/>
      <point x="284" y="0" type="line"/>
      <point x="1154" y="1398" type="line"/>
      <point x="219" y="1400" type="line"/>
      <point x="190" y="1240" type="line"/>
      <point x="872" y="1238" type="line"/>
    </contour>
  </outline>
</glyph>
<glyph name="eight" format="2">
  <advance width="1026"/>
  <unicode hex="0038"/>
  <outline>
    <contour>
      <point x="413" y="-18" type="curve" smooth="yes"/>
      <point x="662" y="-21"/>
      <point x="901" y="207"/>
      <point x="901" y="441" type="curve" smooth="yes"/>
      <point x="901" y="570"/>
      <point x="829" y="686"/>
      <point x="717" y="740" type="curve"/>
      <point x="880" y="802"/>
      <point x="989" y="954"/>
      <point x="989" y="1109" type="curve" smooth="yes"/>
      <point x="989" y="1283"/>
      <point x="856" y="1416"/>
      <point x="679" y="1418" type="curve" smooth="yes"/>
      <point x="456" y="1420"/>
      <point x="248" y="1216"/>
      <point x="248" y="1006" type="curve" smooth="yes"/>
      <point x="248" y="900"/>
      <point x="301" y="805"/>
      <point x="395" y="753" type="curve"/>
      <point x="202" y="688"/>
      <point x="64" y="510"/>
      <point x="64" y="327" type="curve" smooth="yes"/>
      <point x="64" y="133"/>
      <point x="214" y="-16"/>
    </contour>
    <contour>
      <point x="429" y="132" type="curve" smooth="yes"/>
      <point x="309" y="132"/>
      <point x="222" y="221"/>
      <point x="222" y="338" type="curve" smooth="yes"/>
      <point x="222" y="498"/>
      <point x="385" y="668"/>
      <point x="543" y="668" type="curve" smooth="yes"/>
      <point x="661" y="668"/>
      <point x="750" y="572"/>
      <point x="750" y="452" type="curve" smooth="yes"/>
      <point x="750" y="290"/>
      <point x="589" y="132"/>
    </contour>
    <contour>
      <point x="567" y="822" type="curve" smooth="yes"/>
      <point x="470" y="822"/>
      <point x="399" y="896"/>
      <point x="399" y="995" type="curve" smooth="yes"/>
      <point x="399" y="1129"/>
      <point x="530" y="1268"/>
      <point x="665" y="1268" type="curve" smooth="yes"/>
      <point x="760" y="1268"/>
      <point x="832" y="1192"/>
      <point x="832" y="1093" type="curve" smooth="yes"/>
      <point x="832" y="958"/>
      <point x="699" y="822"/>
    </contour>
  </outline>
</glyph>
<glyph name="colon" format="2">
  <advance width="564"/>
  <unicode hex="003A"/>
  <outline>
    <contour>
      <point x="357" y="732" type="curve" smooth="yes"/>
      <point x="412" y="732"/>
      <point x="451" y="772"/>
      <point x="451" y="825" type="curve" smooth="yes"/>
      <point x="451" y="890"/>
      <point x="393" y="948"/>
      <point x="327" y="948" type="curve" smooth="yes"/>
      <point x="273" y="948"/>
      <point x="233" y="908"/>
      <point x="233" y="855" type="curve" smooth="yes"/>
      <point x="233" y="790"/>
      <point x="292" y="732"/>
    </contour>
    <contour>
      <point x="204" y="-28" type="curve" smooth="yes"/>
      <point x="259" y="-28"/>
      <point x="298" y="12"/>
      <point x="298" y="65" type="curve" smooth="yes"/>
      <point x="298" y="130"/>
      <point x="240" y="188"/>
      <point x="174" y="188" type="curve" smooth="yes"/>
      <point x="120" y="188"/>
      <point x="80" y="148"/>
      <point x="80" y="95" type="curve" smooth="yes"/>
      <point x="80" y="30"/>
      <point x="139" y="-28"/>
    </contour>
  </outline>
</glyph>
<glyph name="semicolon" format="2">
  <advance width="620"/>
  <unicode hex="003B"/>
  <outline>
    <contour>
      <point x="51" y="-336" type="line"/>
      <point x="360" y="152" type="line"/>
      <point x="207" y="216" type="line"/>
      <point x="-61" y="-294" type="line"/>
    </contour>
    <contour>
      <point x="415" y="732" type="curve" smooth="yes"/>
      <point x="469" y="732"/>
      <point x="509" y="772"/>
      <point x="509" y="825" type="curve" smooth="yes"/>
      <point x="509" y="890"/>
      <point x="450" y="948"/>
      <point x="384" y="948" type="curve" smooth="yes"/>
      <point x="330" y="948"/>
      <point x="291" y="908"/>
      <point x="291" y="855" type="curve" smooth="yes"/>
      <point x="291" y="790"/>
      <point x="349" y="732"/>
    </contour>
  </outline>
</glyph>
<glyph name="less" format="2">
  <advance width="1204"/>
  <unicode hex="003C"/>
  <outline>
    <contour>
      <point x="984" y="34" type="line"/>
      <point x="1018" y="174" type="line"/>
      <point x="371" y="510" type="line"/>
      <point x="1150" y="830" type="line"/>
      <point x="1183" y="1004" type="line"/>
      <point x="124" y="560" type="line"/>
      <point x="106" y="472" type="line"/>
    </contour>
  </outline>
</glyph>
<glyph name="equal" format="2">
  <advance width="1156"/>
  <unicode hex="003D"/>
  <outline>
    <contour>
      <point x="133" y="581" type="line"/>
      <point x="1051" y="581" type="line"/>
      <point x="1080" y="730" type="line"/>
      <point x="160" y="730" type="line"/>
    </contour>
    <contour>
      <point x="73" y="281" type="line"/>
      <point x="989" y="281" type="line"/>
      <point x="1020" y="430" type="line"/>
      <point x="100" y="430" type="line"/>
    </contour>
  </outline>
</glyph>
<glyph name="greater" format="2">
  <advance width="1204"/>
  <unicode hex="003E"/>
  <outline>
    <contour>
      <point x="12" y="26" type="line"/>
      <point x="1072" y="470" type="line"/>
      <point x="1087" y="558" type="line"/>
      <point x="212" y="996" type="line"/>
      <point x="177" y="856" type="line"/>
      <point x="823" y="520" type="line"/>
      <point x="44" y="200" type="line"/>
    </contour>
  </outline>
</glyph>
<glyph name="question" format="2">
  <advance width="1048"/>
  <unicode hex="003F"/>
  <outline>
    <contour>
      <point x="369" y="342" type="line"/>
      <point x="485" y="342" type="line"/>
      <point x="554" y="580" type="line"/>
      <point x="781" y="621"/>
      <point x="993" y="768"/>
      <point x="1031" y="997" type="curve" smooth="yes"/>
      <point x="1067" y="1215"/>
      <point x="930" y="1410"/>
      <point x="690" y="1418" type="curve" smooth="yes"/>
      <point x="498" y="1425"/>
      <point x="345" y="1308"/>
      <point x="238" y="1192" type="curve"/>
      <point x="356" y="1106" type="line"/>
      <point x="435" y="1187"/>
      <point x="533" y="1270"/>
      <point x="663" y="1268" type="curve" smooth="yes"/>
      <point x="822" y="1266"/>
      <point x="907" y="1142"/>
      <point x="873" y="999" type="curve" smooth="yes"/>
      <point x="834" y="825"/>
      <point x="646" y="695"/>
      <point x="443" y="695" type="curve" smooth="yes"/>
      <point x="397" y="695" type="line"/>
    </contour>
    <contour>
      <point x="393" y="-28" type="curve" smooth="yes"/>
      <point x="448" y="-28"/>
      <point x="487" y="12"/>
      <point x="487" y="65" type="curve" smooth="yes"/>
      <point x="487" y="129"/>
      <point x="427" y="188"/>
      <point x="363" y="188" type="curve" smooth="yes"/>
      <point x="309" y="188"/>
      <point x="269" y="147"/>
      <point x="269" y="95" type="curve" smooth="yes"/>
      <point x="269" y="30"/>
      <point x="328" y="-28"/>
    </contour>
  </outline>
</glyph>
<glyph name="at" format="2">
  <advance width="1488"/>
  <unicode hex="0040"/>
  <outline>
    <contour>
      <point x="598" y="-341" type="curve" smooth="yes"/>
      <point x="738" y="-341"/>
      <point x="901" y="-301"/>
      <point x="1045" y="-229" type="curve"/>
      <point x="994" y="-109" type="line"/>
      <point x="847" y="-177"/>
      <point x="720" y="-211"/>
      <point x="605" y="-211" type="curve" smooth="yes"/>
      <point x="361" y="-211"/>
      <point x="207" y="-52"/>
      <point x="207" y="195" type="curve" smooth="yes"/>
      <point x="207" y="585"/>
      <point x="590" y="975"/>
      <point x="943" y="965" type="curve" smooth="yes"/>
      <point x="1163" y="959"/>
      <point x="1311" y="801"/>
      <point x="1311" y="566" type="curve" smooth="yes"/>
      <point x="1311" y="352"/>
      <point x="1189" y="108"/>
      <point x="1051" y="108" type="curve" smooth="yes"/>
      <point x="1011" y="108"/>
      <point x="985" y="128"/>
      <point x="985" y="173" type="curve" smooth="yes"/>
      <point x="985" y="190"/>
      <point x="989" y="219"/>
      <point x="1003" y="255" type="curve" smooth="yes"/>
      <point x="1182" y="715" type="line"/>
      <point x="1030" y="715" type="line"/>
      <point x="864" y="219" type="line"/>
      <point x="878" y="219" type="line"/>
      <point x="874" y="195"/>
      <point x="872" y="170"/>
      <point x="872" y="151" type="curve" smooth="yes"/>
      <point x="872" y="37"/>
      <point x="927" y="-24"/>
      <point x="1029" y="-24" type="curve" smooth="yes"/>
      <point x="1250" y="-24"/>
      <point x="1448" y="261"/>
      <point x="1448" y="563" type="curve" smooth="yes"/>
      <point x="1448" y="863"/>
      <point x="1253" y="1093"/>
      <point x="944" y="1097" type="curve" smooth="yes"/>
      <point x="510" y="1103"/>
      <point x="69" y="652"/>
      <point x="69" y="188" type="curve" smooth="yes"/>
      <point x="69" y="-130"/>
      <point x="277" y="-341"/>
    </contour>
    <contour>
      <point x="592" y="-1" type="curve" smooth="yes"/>
      <point x="792" y="-1"/>
      <point x="993" y="233"/>
      <point x="993" y="489" type="curve" smooth="yes"/>
      <point x="993" y="643"/>
      <point x="920" y="735"/>
      <point x="791" y="735" type="curve" smooth="yes"/>
      <point x="582" y="735"/>
      <point x="368" y="492"/>
      <point x="368" y="256" type="curve" smooth="yes"/>
      <point x="368" y="103"/>
      <point x="458" y="-1"/>
    </contour>
    <contour>
      <point x="642" y="138" type="curve" smooth="yes"/>
      <point x="574" y="138"/>
      <point x="515" y="179"/>
      <point x="515" y="274" type="curve" smooth="yes"/>
      <point x="515" y="421"/>
      <point x="658" y="595"/>
      <point x="794" y="595" type="curve" smooth="yes"/>
      <point x="870" y="595"/>
      <point x="920" y="540"/>
      <point x="920" y="452" type="curve" smooth="yes"/>
      <point x="920" y="305"/>
      <point x="778" y="138"/>
    </contour>
  </outline>
</glyph>
<glyph name="A" format="2">
  <advance width="1240"/>
  <unicode hex="0041"/>
  <anchor x="620" y="0" name="bottom"/>
  <anchor x="1122" y="0" name="ogonek"/>
  <anchor x="789" y="1400" name="top"/>
  <outline>
    <contour>
      <point x="-110" y="0" type="line"/>
      <point x="84" y="0" type="line"/>
      <point x="383" y="492" type="line"/>
      <point x="404" y="528" type="line"/>
      <point x="740" y="1084" type="line"/>
      <point x="845" y="520" type="line"/>
      <point x="851" y="480" type="line"/>
      <point x="946" y="0" type="line"/>
      <point x="1122" y="0" type="line"/>
      <point x="807" y="1476" type="line"/>
    </contour>
    <contour>
      <point x="253" y="420" type="line"/>
      <point x="953" y="420" type="line"/>
      <point x="927" y="578" type="line"/>
      <point x="337" y="578" type="line"/>
    </contour>
  </outline>
</glyph>
<glyph name="B" format="2">
  <advance width="1050"/>
  <unicode hex="0042"/>
  <anchor x="412" y="0" name="bottom"/>
  <anchor x="649" y="1400" name="top"/>
  <outline>
    <contour>
      <point x="38" y="0" type="line"/>
      <point x="412" y="0" type="line" smooth="yes"/>
      <point x="679" y="0"/>
      <point x="898" y="173"/>
      <point x="932" y="405" type="curve" smooth="yes"/>
      <point x="964" y="625"/>
      <point x="810" y="776"/>
      <point x="546" y="777" type="curve" smooth="yes"/>
      <point x="323" y="778" type="line"/>
      <point x="303" y="688" type="line"/>
      <point x="546" y="686" type="line" smooth="yes"/>
      <point x="706" y="685"/>
      <point x="803" y="570"/>
      <point x="771" y="420" type="curve" smooth="yes"/>
      <point x="739" y="267"/>
      <point x="590" y="154"/>
      <point x="417" y="152" type="curve" smooth="yes"/>
      <point x="235" y="150" type="line"/>
      <point x="456" y="1250" type="line"/>
      <point x="643" y="1248" type="line" smooth="yes"/>
      <point x="767" y="1247"/>
      <point x="845" y="1156"/>
      <point x="820" y="1040" type="curve" smooth="yes"/>
      <point x="795" y="923"/>
      <point x="678" y="836"/>
      <point x="539" y="834" type="curve" smooth="yes"/>
      <point x="333" y="832" type="line"/>
      <point x="316" y="746" type="line"/>
      <point x="538" y="746" type="line" smooth="yes"/>
      <point x="780" y="746"/>
      <point x="953" y="868"/>
      <point x="987" y="1050" type="curve" smooth="yes"/>
      <point x="1024" y="1248"/>
      <point x="877" y="1400"/>
      <point x="649" y="1400" type="curve" smooth="yes"/>
      <point x="321" y="1400" type="line"/>
    </contour>
  </outline>
</glyph>
<glyph name="C" format="2">
  <advance width="1288"/>
  <unicode hex="0043"/>
  <anchor x="552" y="0" name="bottom"/>
  <anchor x="924" y="1421" name="top"/>
  <outline>
    <contour>
      <point x="633" y="-20" type="curve" smooth="yes"/>
      <point x="779" y="-23"/>
      <point x="934" y="26"/>
      <point x="1082" y="132" type="curve"/>
      <point x="1121" y="354" type="line"/>
      <point x="948" y="210"/>
      <point x="783" y="147"/>
      <point x="643" y="152" type="curve" smooth="yes"/>
      <point x="387" y="161"/>
      <point x="219" y="397"/>
      <point x="280" y="699" type="curve" smooth="yes"/>
      <point x="341" y="999"/>
      <point x="606" y="1245"/>
      <point x="889" y="1248" type="curve" smooth="yes"/>
      <point x="1041" y="1249"/>
      <point x="1171" y="1179"/>
      <point x="1264" y="1042" type="curve"/>
      <point x="1305" y="1264" type="line"/>
      <point x="1182" y="1372"/>
      <point x="1051" y="1422"/>
      <point x="899" y="1420" type="curve" smooth="yes"/>
      <point x="522" y="1416"/>
      <point x="172" y="1097"/>
      <point x="104" y="700" type="curve" smooth="yes"/>
      <point x="35" y="297"/>
      <point x="287" y="-12"/>
    </contour>
  </outline>
</glyph>
<glyph name="D" format="2">
  <advance width="1278"/>
  <unicode hex="0044"/>
  <anchor x="639" y="0" name="bottom"/>
  <anchor x="541" y="700" name="center"/>
  <anchor x="825" y="1400" name="top"/>
  <outline>
    <contour>
      <point x="44" y="0" type="line"/>
      <point x="450" y="0" type="line" smooth="yes"/>
      <point x="856" y="0"/>
      <point x="1177" y="325"/>
      <point x="1240" y="702" type="curve" smooth="yes"/>
      <point x="1305" y="1094"/>
      <point x="1066" y="1400"/>
      <point x="705" y="1399" type="curve" smooth="yes"/>
      <point x="318" y="1398" type="line"/>
    </contour>
    <contour>
      <point x="237" y="170" type="line"/>
      <point x="454" y="1230" type="line"/>
      <point x="695" y="1230" type="line" smooth="yes"/>
      <point x="976" y="1230"/>
      <point x="1133" y="991"/>
      <point x="1074" y="700" type="curve" smooth="yes"/>
      <point x="1016" y="413"/>
      <point x="772" y="170"/>
      <point x="460" y="170" type="curve" smooth="yes"/>
    </contour>
  </outline>
</glyph>
<glyph name="E" format="2">
  <advance width="1034"/>
  <unicode hex="0045"/>
  <anchor x="367" y="0" name="bottom"/>
  <anchor x="505" y="59" name="ogonek"/>
  <anchor x="735" y="1400" name="top"/>
  <anchor x="-177" y="1400" name="topleft"/>
  <outline>
    <contour>
      <point x="44" y="0" type="line"/>
      <point x="802" y="0" type="line"/>
      <point x="834" y="160" type="line"/>
      <point x="235" y="160" type="line"/>
      <point x="342" y="682" type="line"/>
      <point x="900" y="682" type="line"/>
      <point x="932" y="840" type="line"/>
      <point x="374" y="840" type="line"/>
      <point x="457" y="1240" type="line"/>
      <point x="1050" y="1240" type="line"/>
      <point x="1081" y="1400" type="line"/>
      <point x="317" y="1400" type="line"/>
    </contour>
  </outline>
</glyph>
<glyph name="F" format="2">
  <advance width="940"/>
  <unicode hex="0046"/>
  <anchor x="470" y="0" name="bottom"/>
  <anchor x="273" y="1400" name="top"/>
  <outline>
    <contour>
      <point x="44" y="0" type="line"/>
      <point x="202" y="0" type="line"/>
      <point x="342" y="682" type="line"/>
      <point x="844" y="682" type="line"/>
      <point x="876" y="840" type="line"/>
      <point x="374" y="840" type="line"/>
      <point x="457" y="1240" type="line"/>
      <point x="976" y="1240" type="line"/>
      <point x="1007" y="1400" type="line"/>
      <point x="317" y="1400" type="line"/>
    </contour>
  </outline>
</glyph>
<glyph name="G" format="2">
  <advance width="1458"/>
  <unicode hex="0047"/>
  <anchor x="643" y="-20" name="bottom"/>
  <anchor x="979" y="1420" name="top"/>
  <outline>
    <contour>
      <point x="651" y="-20" type="curve" smooth="yes"/>
      <point x="1061" y="-20"/>
      <point x="1327" y="348"/>
      <point x="1407" y="708" type="curve"/>
      <point x="795" y="708" type="line"/>
      <point x="759" y="550" type="line"/>
      <point x="1187" y="550" type="line"/>
      <point x="1084" y="360"/>
      <point x="922" y="147"/>
      <point x="653" y="152" type="curve" smooth="yes"/>
      <point x="346" y="158"/>
      <point x="229" y="441"/>
      <point x="280" y="699" type="curve" smooth="yes"/>
      <point x="334" y="973"/>
      <point x="584" y="1245"/>
      <point x="899" y="1248" type="curve" smooth="yes"/>
      <point x="1068" y="1249"/>
      <point x="1201" y="1173"/>
      <point x="1280" y="1014" type="curve"/>
      <point x="1411" y="1118" type="line"/>
      <point x="1304" y="1315"/>
      <point x="1133" y="1420"/>
      <point x="908" y="1420" type="curve" smooth="yes"/>
      <point x="497" y="1420"/>
      <point x="166" y="1068"/>
      <point x="104" y="700" type="curve" smooth="yes"/>
      <point x="44" y="343"/>
      <point x="243" y="-20"/>
    </contour>
  </outline>
</glyph>
<glyph name="H" format="2">
  <advance width="1344"/>
  <unicode hex="0048"/>
  <anchor x="672" y="0" name="bottom"/>
  <anchor x="574" y="700" name="center"/>
  <anchor x="840" y="1400" name="top"/>
  <anchor x="-177" y="1400" name="topleft"/>
  <outline>
    <contour>
      <point x="44" y="0" type="line"/>
      <point x="202" y="0" type="line"/>
      <point x="342" y="682" type="line"/>
      <point x="1061" y="682" type="line"/>
      <point x="928" y="0" type="line"/>
      <point x="1086" y="0" type="line"/>
      <point x="1375" y="1400" type="line"/>
      <point x="1202" y="1398" type="line"/>
      <point x="1092" y="840" type="line"/>
      <point x="374" y="840" type="line"/>
      <point x="489" y="1400" type="line"/>
      <point x="318" y="1398" type="line"/>
    </contour>
  </outline>
</glyph>
<glyph name="I" format="2">
  <advance width="460"/>
  <unicode hex="0049"/>
  <anchor x="137" y="0" name="bottom"/>
  <anchor x="202" y="0" name="ogonek"/>
  <anchor x="478" y="1400" name="top"/>
  <anchor x="-177" y="1400" name="topleft"/>
  <outline>
    <contour>
      <point x="44" y="0" type="line"/>
      <point x="202" y="0" type="line"/>
      <point x="489" y="1400" type="line"/>
      <point x="317" y="1400" type="line"/>
    </contour>
  </outline>
</glyph>
<glyph name="J" format="2">
  <advance width="739"/>
  <unicode hex="004A"/>
  <anchor x="417" y="0" name="bottom"/>
  <anchor x="684" y="1400" name="top"/>
  <outline>
    <contour>
      <point x="181" y="-20" type="curve" smooth="yes"/>
      <point x="375" y="-20"/>
      <point x="521" y="99"/>
      <point x="559" y="290" type="curve" smooth="yes"/>
      <point x="780" y="1400" type="line"/>
      <point x="610" y="1400" type="line"/>
      <point x="398" y="340" type="line" smooth="yes"/>
      <point x="383" y="267"/>
      <point x="360" y="140"/>
      <point x="219" y="140" type="curve" smooth="yes"/>
      <point x="161" y="140"/>
      <point x="106" y="162"/>
      <point x="68" y="204" type="curve"/>
      <point x="-32" y="85" type="line"/>
      <point x="18" y="11"/>
      <point x="82" y="-20"/>
    </contour>
  </outline>
</glyph>
<glyph name="K" format="2">
  <advance width="1062"/>
  <unicode hex="004B"/>
  <anchor x="434" y="0" name="bottom"/>
  <anchor x="749" y="1400" name="top"/>
  <outline>
    <contour>
      <point x="754" y="0" type="line"/>
      <point x="940" y="0" type="line"/>
      <point x="495" y="736" type="line"/>
      <point x="1210" y="1398" type="line"/>
      <point x="992" y="1398" type="line"/>
      <point x="301" y="750" type="line"/>
    </contour>
    <contour>
      <point x="44" y="0" type="line"/>
      <point x="202" y="0" type="line"/>
      <point x="489" y="1400" type="line"/>
      <point x="317" y="1400" type="line"/>
    </contour>
  </outline>
</glyph>
<glyph name="L" format="2">
  <advance width="846"/>
  <unicode hex="004C"/>
  <anchor x="423" y="0" name="bottom"/>
  <anchor x="282" y="700" name="center"/>
  <anchor x="800" y="1400" name="top"/>
  <anchor x="629" y="1400" name="topright"/>
  <outline>
    <contour>
      <point x="38" y="0" type="line"/>
      <point x="722" y="0" type="line"/>
      <point x="756" y="160" type="line"/>
      <point x="238" y="160" type="line"/>
      <point x="489" y="1400" type="line"/>
      <point x="321" y="1400" type="line"/>
    </contour>
  </outline>
</glyph>
<glyph name="M" format="2">
  <advance width="1524"/>
  <unicode hex="004D"/>
  <anchor x="594" y="181" name="bottom"/>
  <anchor x="864" y="1400" name="top"/>
  <outline>
    <contour>
      <point x="-40" y="0" type="line"/>
      <point x="130" y="0" type="line"/>
      <point x="421" y="944" type="line"/>
      <point x="682" y="126" type="line"/>
      <point x="1272" y="928" type="line"/>
      <point x="1176" y="0" type="line"/>
      <point x="1340" y="0" type="line"/>
      <point x="1483" y="1486" type="line"/>
      <point x="739" y="462" type="line"/>
      <point x="421" y="1472" type="line"/>
    </contour>
  </outline>
</glyph>
<glyph name="N" format="2">
  <advance width="1458"/>
  <unicode hex="004E"/>
  <anchor x="646" y="0" name="bottom"/>
  <anchor x="871" y="1400" name="top"/>
  <outline>
    <contour>
      <point x="1187" y="-66" type="line"/>
      <point x="1485" y="1400" type="line"/>
      <point x="1319" y="1400" type="line"/>
      <point x="1106" y="356" type="line"/>
      <point x="334" y="1466" type="line"/>
      <point x="36" y="0" type="line"/>
      <point x="204" y="0" type="line"/>
      <point x="417" y="1044" type="line"/>
    </contour>
  </outline>
</glyph>
<glyph name="O" format="2">
  <advance width="1486"/>
  <unicode hex="004F"/>
  <anchor x="743" y="0" name="bottom"/>
  <anchor x="645" y="700" name="center"/>
  <anchor x="679" y="40" name="ogonek"/>
  <anchor x="908" y="1420" name="top"/>
  <anchor x="-176" y="1400" name="topleft"/>
  <anchor x="1275" y="1423" name="topright"/>
  <outline>
    <contour>
      <point x="643" y="-20" type="curve" smooth="yes"/>
      <point x="1049" y="-25"/>
      <point x="1458" y="374"/>
      <point x="1458" y="826" type="curve" smooth="yes"/>
      <point x="1458" y="1162"/>
      <point x="1232" y="1416"/>
      <point x="907" y="1420" type="curve" smooth="yes"/>
      <point x="500" y="1424"/>
      <point x="92" y="1027"/>
      <point x="92" y="574" type="curve" smooth="yes"/>
      <point x="92" y="234"/>
      <point x="323" y="-16"/>
    </contour>
    <contour>
      <point x="653" y="152" type="curve" smooth="yes"/>
      <point x="424" y="157"/>
      <point x="268" y="327"/>
      <point x="268" y="578" type="curve" smooth="yes"/>
      <point x="268" y="938"/>
      <point x="587" y="1254"/>
      <point x="899" y="1248" type="curve" smooth="yes"/>
      <point x="1126" y="1244"/>
      <point x="1284" y="1071"/>
      <point x="1284" y="820" type="curve" smooth="yes"/>
      <point x="1284" y="462"/>
      <point x="963" y="145"/>
    </contour>
  </outline>
</glyph>
<glyph name="P" format="2">
  <advance width="1030"/>
  <unicode hex="0050"/>
  <anchor x="515" y="0" name="bottom"/>
  <anchor x="318" y="1400" name="top"/>
  <outline>
    <contour>
      <point x="44" y="0" type="line"/>
      <point x="202" y="0" type="line"/>
      <point x="317" y="560" type="line"/>
      <point x="523" y="560" type="line" smooth="yes"/>
      <point x="808" y="560"/>
      <point x="1055" y="788"/>
      <point x="1055" y="1044" type="curve" smooth="yes"/>
      <point x="1055" y="1250"/>
      <point x="894" y="1401"/>
      <point x="669" y="1400" type="curve" smooth="yes"/>
      <point x="318" y="1398" type="line"/>
    </contour>
    <contour>
      <point x="350" y="725" type="line"/>
      <point x="456" y="1239" type="line"/>
      <point x="660" y="1237" type="line" smooth="yes"/>
      <point x="803" y="1236"/>
      <point x="889" y="1156"/>
      <point x="889" y="1036" type="curve" smooth="yes"/>
      <point x="889" y="870"/>
      <point x="726" y="725"/>
      <point x="533" y="725" type="curve" smooth="yes"/>
    </contour>
  </outline>
</glyph>
<glyph name="Q" format="2">
  <advance width="1486"/>
  <unicode hex="0051"/>
  <anchor x="743" y="0" name="bottom"/>
  <anchor x="547" y="1400" name="top"/>
  <outline>
    <contour>
      <point x="643" y="-20" type="curve" smooth="yes"/>
      <point x="1053" y="-24"/>
      <point x="1459" y="379"/>
      <point x="1459" y="828" type="curve" smooth="yes"/>
      <point x="1459" y="1163"/>
      <point x="1232" y="1416"/>
      <point x="909" y="1420" type="curve" smooth="yes"/>
      <point x="502" y="1425"/>
      <point x="93" y="1026"/>
      <point x="93" y="573" type="curve" smooth="yes"/>
      <point x="93" y="228"/>
      <point x="329" y="-17"/>
    </contour>
    <contour>
      <point x="1176" y="0" type="line"/>
      <point x="1370" y="0" type="line"/>
      <point x="926" y="600" type="line"/>
      <point x="732" y="600" type="line"/>
    </contour>
    <contour>
      <point x="653" y="152" type="curve" smooth="yes"/>
      <point x="427" y="156"/>
      <point x="268" y="327"/>
      <point x="268" y="579" type="curve" smooth="yes"/>
      <point x="268" y="936"/>
      <point x="585" y="1255"/>
      <point x="899" y="1248" type="curve" smooth="yes"/>
      <point x="1128" y="1243"/>
      <point x="1284" y="1068"/>
      <point x="1284" y="820" type="curve" smooth="yes"/>
      <point x="1284" y="468"/>
      <point x="971" y="146"/>
    </contour>
  </outline>
</glyph>
<glyph name="R" format="2">
  <advance width="1052"/>
  <unicode hex="0052"/>
  <anchor x="467" y="0" name="bottom"/>
  <anchor x="725" y="1400" name="top"/>
  <outline>
    <contour>
      <point x="44" y="0" type="line"/>
      <point x="202" y="0" type="line"/>
      <point x="317" y="560" type="line"/>
      <point x="475" y="560" type="line"/>
      <point x="736" y="0" type="line"/>
      <point x="922" y="0" type="line"/>
      <point x="647" y="573" type="line"/>
      <point x="872" y="623"/>
      <point x="1055" y="819"/>
      <point x="1055" y="1039" type="curve" smooth="yes"/>
      <point x="1055" y="1249"/>
      <point x="889" y="1400"/>
      <point x="669" y="1400" type="curve" smooth="yes"/>
      <point x="317" y="1400" type="line"/>
    </contour>
    <contour>
      <point x="347" y="710" type="line"/>
      <point x="458" y="1250" type="line"/>
      <point x="662" y="1250" type="line" smooth="yes"/>
      <point x="797" y="1250"/>
      <point x="889" y="1162"/>
      <point x="889" y="1034" type="curve" smooth="yes"/>
      <point x="889" y="860"/>
      <point x="720" y="710"/>
      <point x="530" y="710" type="curve" smooth="yes"/>
    </contour>
  </outline>
</glyph>
<glyph name="S" format="2">
  <advance width="1030"/>
  <unicode hex="0053"/>
  <anchor x="389" y="20" name="bottom"/>
  <anchor x="689" y="1400" name="top"/>
  <outline>
    <contour>
      <point x="448" y="-18" type="curve" smooth="yes"/>
      <point x="710" y="-18"/>
      <point x="925" y="184"/>
      <point x="925" y="439" type="curve" smooth="yes"/>
      <point x="925" y="654"/>
      <point x="773" y="732"/>
      <point x="655" y="792" type="curve" smooth="yes"/>
      <point x="526" y="857"/>
      <point x="410" y="917"/>
      <point x="410" y="1021" type="curve" smooth="yes"/>
      <point x="410" y="1129"/>
      <point x="537" y="1256"/>
      <point x="659" y="1256" type="curve" smooth="yes"/>
      <point x="759" y="1256"/>
      <point x="855" y="1170"/>
      <point x="905" y="1030" type="curve"/>
      <point x="1049" y="1116" type="line"/>
      <point x="978" y="1318"/>
      <point x="858" y="1418"/>
      <point x="689" y="1418" type="curve" smooth="yes"/>
      <point x="460" y="1418"/>
      <point x="238" y="1233"/>
      <point x="238" y="1003" type="curve" smooth="yes"/>
      <point x="238" y="811"/>
      <point x="397" y="730"/>
      <point x="509" y="676" type="curve" smooth="yes"/>
      <point x="617" y="624"/>
      <point x="751" y="557"/>
      <point x="751" y="416" type="curve" smooth="yes"/>
      <point x="751" y="274"/>
      <point x="616" y="142"/>
      <point x="466" y="142" type="curve" smooth="yes"/>
      <point x="333" y="142"/>
      <point x="242" y="244"/>
      <point x="188" y="452" type="curve"/>
      <point x="38" y="370" type="line"/>
      <point x="109" y="109"/>
      <point x="241" y="-18"/>
    </contour>
  </outline>
</glyph>
<glyph name="T" format="2">
  <advance width="874"/>
  <unicode hex="0054"/>
  <anchor x="207" y="-20" name="bottom"/>
  <anchor x="339" y="700" name="center"/>
  <anchor x="734" y="1400" name="top"/>
  <outline>
    <contour>
      <point x="244" y="0" type="line"/>
      <point x="410" y="0" type="line"/>
      <point x="662" y="1240" type="line"/>
      <point x="1000" y="1240" type="line"/>
      <point x="1034" y="1400" type="line"/>
      <point x="190" y="1400" type="line"/>
      <point x="154" y="1240" type="line"/>
      <point x="496" y="1240" type="line"/>
    </contour>
  </outline>
</glyph>
<glyph name="U" format="2">
  <advance width="1178"/>
  <unicode hex="0055"/>
  <anchor x="492" y="-18" name="bottom"/>
  <anchor x="492" y="-18" name="ogonek"/>
  <anchor x="802" y="1400" name="top"/>
  <anchor x="1215" y="1400" name="topright"/>
  <outline>
    <contour>
      <point x="495" y="-18" type="curve" smooth="yes"/>
      <point x="758" y="-18"/>
      <point x="966" y="166"/>
      <point x="1025" y="460" type="curve" smooth="yes"/>
      <point x="1215" y="1400" type="line"/>
      <point x="1049" y="1400" type="line"/>
      <point x="857" y="460" type="line" smooth="yes"/>
      <point x="817" y="265"/>
      <point x="678" y="142"/>
      <point x="498" y="142" type="curve" smooth="yes"/>
      <point x="327" y="142"/>
      <point x="247" y="257"/>
      <point x="288" y="459" type="curve" smooth="yes"/>
      <point x="479" y="1400" type="line"/>
      <point x="313" y="1400" type="line"/>
      <point x="123" y="460" type="line" smooth="yes"/>
      <point x="67" y="182"/>
      <point x="220" y="-18"/>
    </contour>
  </outline>
</glyph>
<glyph name="V" format="2">
  <advance width="1240"/>
  <unicode hex="0056"/>
  <anchor x="552" y="0" name="bottom"/>
  <anchor x="746" y="1400" name="top"/>
  <outline>
    <contour>
      <point x="542" y="-76" type="line"/>
      <point x="1407" y="1398" type="line"/>
      <point x="1215" y="1398" type="line"/>
      <point x="597" y="316" type="line"/>
      <point x="349" y="1400" type="line"/>
      <point x="177" y="1400" type="line"/>
    </contour>
  </outline>
</glyph>
<glyph name="W" format="2">
  <advance width="1862"/>
  <unicode hex="0057"/>
  <anchor x="931" y="0" name="bottom"/>
  <anchor x="1110" y="1400" name="top"/>
  <outline>
    <contour>
      <point x="457" y="-78" type="line"/>
      <point x="1038" y="1010" type="line"/>
      <point x="1247" y="-78" type="line"/>
      <point x="2019" y="1398" type="line"/>
      <point x="1827" y="1398" type="line"/>
      <point x="1303" y="360" type="line"/>
      <point x="1110" y="1478" type="line"/>
      <point x="531" y="360" type="line"/>
      <point x="363" y="1400" type="line"/>
      <point x="185" y="1400" type="line"/>
    </contour>
  </outline>
</glyph>
<glyph name="X" format="2">
  <advance width="1044"/>
  <unicode hex="0058"/>
  <anchor x="522" y="0" name="bottom"/>
  <anchor x="325" y="1400" name="top"/>
  <outline>
    <contour>
      <point x="-60" y="0" type="line"/>
      <point x="144" y="0" type="line"/>
      <point x="562" y="580" type="line"/>
      <point x="772" y="0" type="line"/>
      <point x="954" y="0" type="line"/>
      <point x="662" y="726" type="line"/>
      <point x="1174" y="1398" type="line"/>
      <point x="970" y="1398" type="line"/>
      <point x="601" y="888" type="line"/>
      <point x="417" y="1400" type="line"/>
      <point x="235" y="1400" type="line"/>
      <point x="504" y="742" type="line"/>
    </contour>
  </outline>
</glyph>
<glyph name="Y" format="2">
  <advance width="1054"/>
  <unicode hex="0059"/>
  <anchor x="527" y="0" name="bottom"/>
  <anchor x="646" y="1400" name="top"/>
  <anchor x="-177" y="1400" name="topleft"/>
  <outline>
    <contour>
      <point x="334" y="0" type="line"/>
      <point x="500" y="0" type="line"/>
      <point x="622" y="594" type="line"/>
      <point x="1229" y="1398" type="line"/>
      <point x="1033" y="1398" type="line"/>
      <point x="563" y="758" type="line"/>
      <point x="359" y="1400" type="line"/>
      <point x="185" y="1400" type="line"/>
      <point x="461" y="614" type="line"/>
    </contour>
  </outline>
</glyph>
<glyph name="Z" format="2">
  <advance width="1024"/>
  <unicode hex="005A"/>
  <anchor x="440" y="0" name="bottom"/>
  <anchor x="464" y="700" name="center"/>
  <anchor x="805" y="1400" name="top"/>
  <outline>
    <contour>
      <point x="-90" y="0" type="line"/>
      <point x="844" y="0" type="line"/>
      <point x="880" y="160" type="line"/>
      <point x="227" y="162" type="line"/>
      <point x="1170" y="1398" type="line"/>
      <point x="237" y="1400" type="line"/>
      <point x="202" y="1240" type="line"/>
      <point x="854" y="1238" type="line"/>
    </contour>
  </outline>
</glyph>
<glyph name="bracketleft" format="2">
  <advance width="564"/>
  <unicode hex="005B"/>
  <outline>
    <contour>
      <point x="42" y="-440" type="line"/>
      <point x="388" y="-440" type="line"/>
      <point x="415" y="-290" type="line"/>
      <point x="223" y="-290" type="line"/>
      <point x="512" y="1410" type="line"/>
      <point x="700" y="1412" type="line"/>
      <point x="725" y="1560" type="line"/>
      <point x="379" y="1560" type="line"/>
    </contour>
  </outline>
</glyph>
<glyph name="bracketright" format="2">
  <advance width="564"/>
  <unicode hex="005D"/>
  <outline>
    <contour>
      <point x="-110" y="-440" type="line"/>
      <point x="236" y="-440" type="line"/>
      <point x="573" y="1560" type="line"/>
      <point x="229" y="1560" type="line"/>
      <point x="202" y="1410" type="line"/>
      <point x="392" y="1410" type="line"/>
      <point x="105" y="-290" type="line"/>
      <point x="-85" y="-292" type="line"/>
    </contour>
  </outline>
</glyph>
<glyph name="asciicircum" format="2">
  <advance width="958"/>
  <unicode hex="005E"/>
  <outline>
    <contour>
      <point x="187" y="920" type="line"/>
      <point x="357" y="920" type="line"/>
      <point x="632" y="1240" type="line"/>
      <point x="769" y="920" type="line"/>
      <point x="913" y="920" type="line"/>
      <point x="689" y="1420" type="line"/>
      <point x="611" y="1418" type="line"/>
    </contour>
  </outline>
</glyph>
<glyph name="underscore" format="2">
  <advance width="940"/>
  <unicode hex="005F"/>
  <outline>
    <contour>
      <point x="-163" y="-264" type="line"/>
      <point x="783" y="-264" type="line"/>
      <point x="802" y="-158" type="line"/>
      <point x="-144" y="-158" type="line"/>
    </contour>
  </outline>
</glyph>
<glyph name="a" format="2">
  <advance width="912"/>
  <unicode hex="0061"/>
  <anchor x="456" y="0" name="bottom"/>
  <anchor x="692" y="0" name="ogonek"/>
  <anchor x="587" y="938" name="top"/>
  <outline>
    <contour>
      <point x="534" y="0" type="line"/>
      <point x="692" y="0" type="line"/>
      <point x="826" y="660" type="line" smooth="yes"/>
      <point x="857" y="812"/>
      <point x="731" y="935"/>
      <point x="536" y="938" type="curve" smooth="yes"/>
      <point x="431" y="939"/>
      <point x="319" y="905"/>
      <point x="191" y="832" type="curve"/>
      <point x="247" y="704" type="line"/>
      <point x="373" y="773"/>
      <point x="451" y="799"/>
      <point x="529" y="796" type="curve" smooth="yes"/>
      <point x="633" y="792"/>
      <point x="693" y="737"/>
      <point x="676" y="660" type="curve" smooth="yes"/>
    </contour>
    <contour>
      <point x="253" y="-18" type="curve" smooth="yes"/>
      <point x="420" y="-20"/>
      <point x="562" y="85"/>
      <point x="626" y="256" type="curve"/>
      <point x="614" y="358" type="line"/>
      <point x="544" y="201"/>
      <point x="430" y="117"/>
      <point x="297" y="124" type="curve" smooth="yes"/>
      <point x="196" y="130"/>
      <point x="141" y="186"/>
      <point x="154" y="267" type="curve" smooth="yes"/>
      <point x="169" y="370"/>
      <point x="282" y="445"/>
      <point x="425" y="448" type="curve" smooth="yes"/>
      <point x="514" y="450"/>
      <point x="590" y="423"/>
      <point x="680" y="358" type="curve"/>
      <point x="697" y="448" type="line"/>
      <point x="616" y="532"/>
      <point x="534" y="569"/>
      <point x="422" y="570" type="curve" smooth="yes"/>
      <point x="206" y="572"/>
      <point x="26" y="442"/>
      <point x="-3" y="265" type="curve" smooth="yes"/>
      <point x="-30" y="104"/>
      <point x="79" y="-15"/>
    </contour>
  </outline>
</glyph>
<glyph name="b" format="2">
  <advance width="1072"/>
  <unicode hex="0062"/>
  <anchor x="536" y="0" name="bottom"/>
  <anchor x="311" y="1600" name="top"/>
  <outline>
    <contour>
      <point x="18" y="0" type="line"/>
      <point x="176" y="0" type="line"/>
      <point x="493" y="1560" type="line"/>
      <point x="335" y="1560" type="line"/>
    </contour>
    <contour>
      <point x="477" y="-20" type="curve" smooth="yes"/>
      <point x="744" y="-27"/>
      <point x="1002" y="249"/>
      <point x="1002" y="543" type="curve" smooth="yes"/>
      <point x="1002" y="772"/>
      <point x="846" y="942"/>
      <point x="646" y="938" type="curve" smooth="yes"/>
      <point x="397" y="933"/>
      <point x="185" y="664"/>
      <point x="185" y="347" type="curve" smooth="yes"/>
      <point x="185" y="119"/>
      <point x="294" y="-15"/>
    </contour>
    <contour>
      <point x="480" y="132" type="curve" smooth="yes"/>
      <point x="348" y="132"/>
      <point x="260" y="235"/>
      <point x="260" y="384" type="curve" smooth="yes"/>
      <point x="260" y="596"/>
      <point x="439" y="788"/>
      <point x="620" y="788" type="curve" smooth="yes"/>
      <point x="753" y="788"/>
      <point x="845" y="684"/>
      <point x="845" y="536" type="curve" smooth="yes"/>
      <point x="845" y="328"/>
      <point x="662" y="132"/>
    </contour>
  </outline>
</glyph>
<glyph name="c" format="2">
  <advance width="898"/>
  <unicode hex="0063"/>
  <anchor x="328" y="0" name="bottom"/>
  <anchor x="600" y="938" name="top"/>
  <outline>
    <contour>
      <point x="443" y="-18" type="curve" smooth="yes"/>
      <point x="550" y="-19"/>
      <point x="658" y="20"/>
      <point x="759" y="96" type="curve"/>
      <point x="787" y="294" type="line"/>
      <point x="685" y="192"/>
      <point x="569" y="132"/>
      <point x="458" y="132" type="curve" smooth="yes"/>
      <point x="313" y="132"/>
      <point x="213" y="241"/>
      <point x="213" y="399" type="curve" smooth="yes"/>
      <point x="213" y="608"/>
      <point x="389" y="788"/>
      <point x="585" y="788" type="curve" smooth="yes"/>
      <point x="697" y="788"/>
      <point x="791" y="729"/>
      <point x="847" y="622" type="curve"/>
      <point x="877" y="822" type="line"/>
      <point x="792" y="900"/>
      <point x="694" y="939"/>
      <point x="582" y="938" type="curve" smooth="yes"/>
      <point x="296" y="936"/>
      <point x="56" y="679"/>
      <point x="56" y="394" type="curve" smooth="yes"/>
      <point x="56" y="158"/>
      <point x="220" y="-16"/>
    </contour>
  </outline>
</glyph>
<glyph name="d" format="2">
  <advance width="1072"/>
  <unicode hex="0064"/>
  <anchor x="536" y="0" name="bottom"/>
  <anchor x="471" y="460" name="center"/>
  <anchor x="311" y="1600" name="top"/>
  <anchor x="922" y="920" name="topright"/>
  <outline>
    <contour>
      <point x="394" y="-18" type="curve" smooth="yes"/>
      <point x="650" y="-13"/>
      <point x="877" y="282"/>
      <point x="877" y="577" type="curve" smooth="yes"/>
      <point x="877" y="789"/>
      <point x="759" y="937"/>
      <point x="564" y="940" type="curve" smooth="yes"/>
      <point x="288" y="945"/>
      <point x="36" y="658"/>
      <point x="36" y="375" type="curve" smooth="yes"/>
      <point x="36" y="151"/>
      <point x="195" y="-22"/>
    </contour>
    <contour>
      <point x="420" y="132" type="curve" smooth="yes"/>
      <point x="288" y="132"/>
      <point x="194" y="237"/>
      <point x="194" y="381" type="curve" smooth="yes"/>
      <point x="194" y="585"/>
      <point x="381" y="788"/>
      <point x="561" y="788" type="curve" smooth="yes"/>
      <point x="690" y="788"/>
      <point x="781" y="683"/>
      <point x="781" y="536" type="curve" smooth="yes"/>
      <point x="781" y="330"/>
      <point x="602" y="132"/>
    </contour>
    <contour>
      <point x="682" y="0" type="line"/>
      <point x="832" y="0" type="line"/>
      <point x="1152" y="1560" type="line"/>
      <point x="989" y="1558" type="line"/>
    </contour>
  </outline>
</glyph>
<glyph name="e" format="2">
  <advance width="968"/>
  <unicode hex="0065"/>
  <anchor x="484" y="0" name="bottom"/>
  <anchor x="425" y="-18" name="ogonek"/>
  <anchor x="675" y="920" name="top"/>
  <outline>
    <contour>
      <point x="427" y="-18" type="curve" smooth="yes"/>
      <point x="576" y="-18"/>
      <point x="729" y="61"/>
      <point x="860" y="208" type="curve"/>
      <point x="736" y="298" type="line"/>
      <point x="619" y="179"/>
      <point x="535" y="132"/>
      <point x="441" y="132" type="curve" smooth="yes"/>
      <point x="303" y="132"/>
      <point x="220" y="231"/>
      <point x="220" y="389" type="curve" smooth="yes"/>
      <point x="220" y="604"/>
      <point x="375" y="798"/>
      <point x="559" y="798" type="curve" smooth="yes"/>
      <point x="678" y="798"/>
      <point x="761" y="716"/>
      <point x="761" y="597" type="curve" smooth="yes"/>
      <point x="761" y="578"/>
      <point x="759" y="552"/>
      <point x="754" y="524" type="curve"/>
      <point x="805" y="556" type="line"/>
      <point x="184" y="556" type="line"/>
      <point x="163" y="420" type="line"/>
      <point x="909" y="420" type="line"/>
      <point x="916" y="475"/>
      <point x="919" y="514"/>
      <point x="919" y="547" type="curve" smooth="yes"/>
      <point x="919" y="774"/>
      <point x="783" y="934"/>
      <point x="572" y="938" type="curve" smooth="yes"/>
      <point x="298" y="943"/>
      <point x="66" y="679"/>
      <point x="66" y="383" type="curve" smooth="yes"/>
      <point x="66" y="149"/>
      <point x="211" y="-18"/>
    </contour>
  </outline>
</glyph>
<glyph name="f" format="2">
  <advance width="538"/>
  <unicode hex="0066"/>
  <anchor x="269" y="0" name="bottom"/>
  <anchor x="44" y="1600" name="top"/>
  <outline>
    <contour>
      <point x="46" y="0" type="line"/>
      <point x="204" y="0" type="line"/>
      <point x="361" y="770" type="line"/>
      <point x="556" y="770" type="line"/>
      <point x="589" y="920" type="line"/>
      <point x="391" y="920" type="line"/>
      <point x="456" y="1240" type="line" smooth="yes"/>
      <point x="480" y="1357"/>
      <point x="527" y="1422"/>
      <point x="588" y="1422" type="curve" smooth="yes"/>
      <point x="612" y="1422"/>
      <point x="631" y="1410"/>
      <point x="667" y="1370" type="curve"/>
      <point x="772" y="1494" type="line"/>
      <point x="713" y="1553"/>
      <point x="666" y="1576"/>
      <point x="606" y="1578" type="curve" smooth="yes"/>
      <point x="457" y="1583"/>
      <point x="338" y="1458"/>
      <point x="297" y="1253" type="curve" smooth="yes"/>
      <point x="231" y="920" type="line"/>
      <point x="149" y="920" type="line"/>
      <point x="116" y="770" type="line"/>
      <point x="200" y="770" type="line"/>
    </contour>
  </outline>
</glyph>
<glyph name="g" format="2">
  <advance width="1072"/>
  <unicode hex="0067"/>
  <anchor x="278" y="-458" name="bottom"/>
  <anchor x="721" y="920" name="top"/>
  <outline>
    <contour>
      <point x="348" y="-458" type="curve" smooth="yes"/>
      <point x="598" y="-456"/>
      <point x="780" y="-278"/>
      <point x="840" y="20" type="curve" smooth="yes"/>
      <point x="1022" y="920" type="line"/>
      <point x="864" y="920" type="line"/>
      <point x="681" y="20" type="line" smooth="yes"/>
      <point x="642" y="-173"/>
      <point x="498" y="-308"/>
      <point x="334" y="-308" type="curve" smooth="yes"/>
      <point x="195" y="-308"/>
      <point x="111" y="-214"/>
      <point x="112" y="-62" type="curve"/>
      <point x="-42" y="-60" type="line"/>
      <point x="-57" y="-295"/>
      <point x="105" y="-460"/>
    </contour>
    <contour>
      <point x="394" y="-18" type="curve" smooth="yes"/>
      <point x="640" y="-13"/>
      <point x="857" y="260"/>
      <point x="857" y="573" type="curve" smooth="yes"/>
      <point x="857" y="793"/>
      <point x="749" y="935"/>
      <point x="564" y="940" type="curve" smooth="yes"/>
      <point x="292" y="947"/>
      <point x="36" y="655"/>
      <point x="36" y="374" type="curve" smooth="yes"/>
      <point x="36" y="154"/>
      <point x="192" y="-22"/>
    </contour>
    <contour>
      <point x="420" y="132" type="curve" smooth="yes"/>
      <point x="288" y="132"/>
      <point x="194" y="236"/>
      <point x="194" y="381" type="curve" smooth="yes"/>
      <point x="194" y="587"/>
      <point x="382" y="788"/>
      <point x="561" y="788" type="curve" smooth="yes"/>
      <point x="690" y="788"/>
      <point x="781" y="683"/>
      <point x="781" y="536" type="curve" smooth="yes"/>
      <point x="781" y="331"/>
      <point x="603" y="132"/>
    </contour>
  </outline>
</glyph>
<glyph name="i" format="2">
  <advance width="409"/>
  <unicode hex="0069"/>
  <anchor x="229" y="0" name="bottom"/>
  <anchor x="184" y="0" name="ogonek"/>
  <anchor x="383" y="920" name="top"/>
  <outline>
    <contour>
      <point x="26" y="0" type="line"/>
      <point x="184" y="0" type="line"/>
      <point x="373" y="920" type="line"/>
      <point x="217" y="920" type="line"/>
    </contour>
    <contour>
      <point x="348" y="1192" type="curve" smooth="yes"/>
      <point x="410" y="1192"/>
      <point x="464" y="1247"/>
      <point x="464" y="1308" type="curve" smooth="yes"/>
      <point x="464" y="1362"/>
      <point x="421" y="1407"/>
      <point x="365" y="1407" type="curve" smooth="yes"/>
      <point x="304" y="1407"/>
      <point x="253" y="1352"/>
      <point x="253" y="1291" type="curve" smooth="yes"/>
      <point x="253" y="1235"/>
      <point x="294" y="1192"/>
    </contour>
  </outline>
</glyph>
<glyph name="j" format="2">
  <advance width="470"/>
  <unicode hex="006A"/>
  <anchor x="355" y="1407" name="top"/>
  <outline>
    <contour>
      <point x="-114" y="-438" type="curve" smooth="yes"/>
      <point x="28" y="-444"/>
      <point x="131" y="-329"/>
      <point x="173" y="-122" type="curve" smooth="yes"/>
      <point x="383" y="920" type="line"/>
      <point x="225" y="920" type="line"/>
      <point x="17" y="-100" type="line" smooth="yes"/>
      <point x="-7" y="-216"/>
      <point x="-59" y="-287"/>
      <point x="-114" y="-282" type="curve" smooth="yes"/>
      <point x="-139" y="-280"/>
      <point x="-171" y="-260"/>
      <point x="-193" y="-230" type="curve"/>
      <point x="-298" y="-354" type="line"/>
      <point x="-241" y="-408"/>
      <point x="-180" y="-435"/>
    </contour>
    <contour>
      <point x="360" y="1192" type="curve" smooth="yes"/>
      <point x="422" y="1192"/>
      <point x="476" y="1248"/>
      <point x="476" y="1307" type="curve" smooth="yes"/>
      <point x="476" y="1363"/>
      <point x="431" y="1407"/>
      <point x="377" y="1407" type="curve" smooth="yes"/>
      <point x="315" y="1407"/>
      <point x="264" y="1352"/>
      <point x="264" y="1291" type="curve" smooth="yes"/>
      <point x="264" y="1235"/>
      <point x="305" y="1192"/>
    </contour>
  </outline>
</glyph>
<glyph name="k" format="2">
  <advance width="826"/>
  <unicode hex="006B"/>
  <anchor x="413" y="0" name="bottom"/>
  <anchor x="696" y="1600" name="top"/>
  <outline>
    <contour>
      <point x="24" y="0" type="line"/>
      <point x="174" y="0" type="line"/>
      <point x="495" y="1560" type="line"/>
      <point x="331" y="1558" type="line"/>
    </contour>
    <contour>
      <point x="536" y="0" type="line"/>
      <point x="714" y="0" type="line"/>
      <point x="381" y="557" type="line"/>
      <point x="373" y="489" type="line"/>
      <point x="879" y="918" type="line"/>
      <point x="669" y="918" type="line"/>
      <point x="225" y="550" type="line"/>
    </contour>
  </outline>
</glyph>
<glyph name="l" format="2">
  <advance width="432"/>
  <unicode hex="006C"/>
  <anchor x="216" y="0" name="bottom"/>
  <anchor x="104" y="800" name="center"/>
  <anchor x="410" y="1561" name="top"/>
  <anchor x="503" y="1560" name="topright"/>
  <outline>
    <contour>
      <point x="34" y="0" type="line"/>
      <point x="182" y="0" type="line"/>
      <point x="503" y="1560" type="line"/>
      <point x="341" y="1558" type="line"/>
    </contour>
  </outline>
</glyph>
<glyph name="m" format="2">
  <advance width="1466"/>
  <unicode hex="006D"/>
  <anchor x="510" y="0" name="bottom"/>
  <anchor x="841" y="920" name="top"/>
  <outline>
    <contour>
      <point x="26" y="0" type="line"/>
      <point x="184" y="0" type="line"/>
      <point x="303" y="577" type="line" smooth="yes"/>
      <point x="329" y="703"/>
      <point x="438" y="793"/>
      <point x="555" y="786" type="curve" smooth="yes"/>
      <point x="656" y="780"/>
      <point x="694" y="705"/>
      <point x="664" y="560" type="curve" smooth="yes"/>
      <point x="550" y="0" type="line"/>
      <point x="700" y="0" type="line"/>
      <point x="815" y="566" type="line" smooth="yes"/>
      <point x="842" y="698"/>
      <point x="954" y="794"/>
      <point x="1072" y="786" type="curve" smooth="yes"/>
      <point x="1174" y="779"/>
      <point x="1212" y="700"/>
      <point x="1182" y="560" type="curve" smooth="yes"/>
      <point x="1062" y="0" type="line"/>
      <point x="1220" y="0" type="line"/>
      <point x="1337" y="580" type="line" smooth="yes"/>
      <point x="1379" y="790"/>
      <point x="1290" y="938"/>
      <point x="1118" y="938" type="curve" smooth="yes"/>
      <point x="1003" y="938"/>
      <point x="892" y="872"/>
      <point x="817" y="754" type="curve"/>
      <point x="793" y="875"/>
      <point x="717" y="939"/>
      <point x="600" y="938" type="curve" smooth="yes"/>
      <point x="500" y="937"/>
      <point x="415" y="889"/>
      <point x="347" y="796" type="curve"/>
      <point x="373" y="920" type="line"/>
      <point x="217" y="920" type="line"/>
    </contour>
  </outline>
</glyph>
<glyph name="n" format="2">
  <advance width="986"/>
  <unicode hex="006E"/>
  <anchor x="323" y="0" name="bottom"/>
  <anchor x="633" y="930" name="top"/>
  <outline>
    <contour>
      <point x="36" y="0" type="line"/>
      <point x="194" y="0" type="line"/>
      <point x="312" y="576" type="line" smooth="yes"/>
      <point x="337" y="699"/>
      <point x="447" y="788"/>
      <point x="573" y="788" type="curve" smooth="yes"/>
      <point x="693" y="788"/>
      <point x="741" y="708"/>
      <point x="711" y="560" type="curve" smooth="yes"/>
      <point x="598" y="0" type="line"/>
      <point x="748" y="0" type="line"/>
      <point x="867" y="580" type="line" smooth="yes"/>
      <point x="909" y="785"/>
      <point x="807" y="938"/>
      <point x="628" y="938" type="curve" smooth="yes"/>
      <point x="522" y="938"/>
      <point x="429" y="885"/>
      <point x="355" y="783" type="curve"/>
      <point x="383" y="920" type="line"/>
      <point x="227" y="920" type="line"/>
    </contour>
  </outline>
</glyph>
<glyph name="o" format="2">
  <advance width="1026"/>
  <unicode hex="006F"/>
  <anchor x="513" y="0" name="bottom"/>
  <anchor x="448" y="460" name="center"/>
  <anchor x="495" y="40" name="ogonek"/>
  <anchor x="592" y="938" name="top"/>
  <anchor x="877" y="920" name="topright"/>
  <outline>
    <contour>
      <point x="438" y="-18" type="curve" smooth="yes"/>
      <point x="712" y="-18"/>
      <point x="959" y="244"/>
      <point x="959" y="527" type="curve" smooth="yes"/>
      <point x="959" y="759"/>
      <point x="792" y="938"/>
      <point x="568" y="938" type="curve" smooth="yes"/>
      <point x="291" y="938"/>
      <point x="46" y="675"/>
      <point x="46" y="393" type="curve" smooth="yes"/>
      <point x="46" y="160"/>
      <point x="212" y="-18"/>
    </contour>
    <contour>
      <point x="435" y="132" type="curve" smooth="yes"/>
      <point x="298" y="136"/>
      <point x="201" y="245"/>
      <point x="201" y="394" type="curve" smooth="yes"/>
      <point x="201" y="596"/>
      <point x="379" y="793"/>
      <point x="567" y="788" type="curve" smooth="yes"/>
      <point x="702" y="785"/>
      <point x="803" y="677"/>
      <point x="803" y="525" type="curve" smooth="yes"/>
      <point x="803" y="323"/>
      <point x="623" y="126"/>
    </contour>
  </outline>
</glyph>
<glyph name="p" format="2">
  <advance width="1072"/>
  <unicode hex="0070"/>
  <anchor x="536" y="0" name="bottom"/>
  <anchor x="437" y="920" name="top"/>
  <outline>
    <contour>
      <point x="-72" y="-440" type="line"/>
      <point x="92" y="-438" type="line"/>
      <point x="357" y="918" type="line"/>
      <point x="209" y="920" type="line"/>
    </contour>
    <contour>
      <point x="477" y="-20" type="curve" smooth="yes"/>
      <point x="746" y="-27"/>
      <point x="1002" y="251"/>
      <point x="1002" y="544" type="curve" smooth="yes"/>
      <point x="1002" y="776"/>
      <point x="843" y="942"/>
      <point x="646" y="938" type="curve" smooth="yes"/>
      <point x="397" y="933"/>
      <point x="185" y="664"/>
      <point x="185" y="347" type="curve" smooth="yes"/>
      <point x="185" y="123"/>
      <point x="291" y="-15"/>
    </contour>
    <contour>
      <point x="480" y="132" type="curve" smooth="yes"/>
      <point x="348" y="132"/>
      <point x="260" y="235"/>
      <point x="260" y="384" type="curve" smooth="yes"/>
      <point x="260" y="598"/>
      <point x="441" y="788"/>
      <point x="620" y="788" type="curve" smooth="yes"/>
      <point x="753" y="788"/>
      <point x="846" y="684"/>
      <point x="846" y="536" type="curve" smooth="yes"/>
      <point x="846" y="329"/>
      <point x="663" y="132"/>
    </contour>
  </outline>
</glyph>
<glyph name="q" format="2">
  <advance width="1072"/>
  <unicode hex="0071"/>
  <anchor x="536" y="0" name="bottom"/>
  <anchor x="407" y="920" name="top"/>
  <outline>
    <contour>
      <point x="395" y="-18" type="curve" smooth="yes"/>
      <point x="644" y="-14"/>
      <point x="857" y="253"/>
      <point x="857" y="572" type="curve" smooth="yes"/>
      <point x="857" y="800"/>
      <point x="748" y="935"/>
      <point x="564" y="940" type="curve" smooth="yes"/>
      <point x="297" y="947"/>
      <point x="38" y="675"/>
      <point x="38" y="380" type="curve" smooth="yes"/>
      <point x="38" y="151"/>
      <point x="193" y="-21"/>
    </contour>
    <contour>
      <point x="419" y="132" type="curve" smooth="yes"/>
      <point x="285" y="132"/>
      <point x="193" y="236"/>
      <point x="193" y="384" type="curve" smooth="yes"/>
      <point x="193" y="592"/>
      <point x="376" y="788"/>
      <point x="558" y="788" type="curve" smooth="yes"/>
      <point x="690" y="788"/>
      <point x="779" y="684"/>
      <point x="779" y="536" type="curve" smooth="yes"/>
      <point x="779" y="326"/>
      <point x="601" y="132"/>
    </contour>
    <contour>
      <point x="588" y="-440" type="line"/>
      <point x="746" y="-440" type="line"/>
      <point x="1023" y="920" type="line"/>
      <point x="865" y="920" type="line"/>
    </contour>
  </outline>
</glyph>
<glyph name="r" format="2">
  <advance width="644"/>
  <unicode hex="0072"/>
  <anchor x="265" y="0" name="bottom"/>
  <anchor x="537" y="920" name="top"/>
  <outline>
    <contour>
      <point x="26" y="0" type="line"/>
      <point x="184" y="0" type="line"/>
      <point x="373" y="920" type="line"/>
      <point x="217" y="920" type="line"/>
    </contour>
    <contour>
      <point x="223" y="564" type="curve"/>
      <point x="297" y="564" type="line"/>
      <point x="349" y="725"/>
      <point x="410" y="794"/>
      <point x="497" y="790" type="curve" smooth="yes"/>
      <point x="529" y="789"/>
      <point x="554" y="779"/>
      <point x="603" y="746" type="curve"/>
      <point x="708" y="870" type="line"/>
      <point x="642" y="922"/>
      <point x="600" y="939"/>
      <point x="546" y="938" type="curve" smooth="yes"/>
      <point x="404" y="934"/>
      <point x="291" y="798"/>
    </contour>
  </outline>
</glyph>
<glyph name="s" format="2">
  <advance width="758"/>
  <unicode hex="0073"/>
  <anchor x="295" y="0" name="bottom"/>
  <anchor x="473" y="920" name="top"/>
  <outline>
    <contour>
      <point x="358" y="-20" type="curve" smooth="yes"/>
      <point x="542" y="-22"/>
      <point x="659" y="84"/>
      <point x="659" y="249" type="curve" smooth="yes"/>
      <point x="659" y="419"/>
      <point x="536" y="485"/>
      <point x="445" y="532" type="curve" smooth="yes"/>
      <point x="375" y="568"/>
      <point x="261" y="623"/>
      <point x="261" y="702" type="curve" smooth="yes"/>
      <point x="261" y="762"/>
      <point x="326" y="805"/>
      <point x="415" y="802" type="curve" smooth="yes"/>
      <point x="498" y="799"/>
      <point x="579" y="759"/>
      <point x="630" y="697" type="curve"/>
      <point x="718" y="797" type="line"/>
      <point x="634" y="891"/>
      <point x="535" y="938"/>
      <point x="415" y="938" type="curve" smooth="yes"/>
      <point x="240" y="938"/>
      <point x="114" y="837"/>
      <point x="114" y="693" type="curve" smooth="yes"/>
      <point x="114" y="549"/>
      <point x="241" y="484"/>
      <point x="342" y="432" type="curve" smooth="yes"/>
      <point x="420" y="392"/>
      <point x="513" y="344"/>
      <point x="513" y="254" type="curve" smooth="yes"/>
      <point x="513" y="173"/>
      <point x="436" y="117"/>
      <point x="335" y="120" type="curve" smooth="yes"/>
      <point x="241" y="122"/>
      <point x="168" y="173"/>
      <point x="89" y="292" type="curve"/>
      <point x="8" y="194" type="line"/>
      <point x="89" y="54"/>
      <point x="208" y="-19"/>
    </contour>
  </outline>
</glyph>
<glyph name="t" format="2">
  <advance width="486"/>
  <unicode hex="0074"/>
  <anchor x="1" y="-10" name="bottom"/>
  <anchor x="178" y="460" name="center"/>
  <anchor x="455" y="1139" name="top"/>
  <anchor x="592" y="1238" name="topright"/>
  <outline>
    <contour>
      <point x="44" y="0" type="line"/>
      <point x="192" y="0" type="line"/>
      <point x="351" y="770" type="line"/>
      <point x="496" y="770" type="line"/>
      <point x="529" y="920" type="line"/>
      <point x="382" y="920" type="line"/>
      <point x="448" y="1240" type="line"/>
      <point x="286" y="1238" type="line"/>
      <point x="224" y="920" type="line"/>
      <point x="91" y="920" type="line"/>
      <point x="56" y="770" type="line"/>
      <point x="195" y="770" type="line"/>
    </contour>
  </outline>
</glyph>
<glyph name="u" format="2">
  <advance width="961"/>
  <unicode hex="0075"/>
  <anchor x="481" y="0" name="bottom"/>
  <anchor x="715" y="0" name="ogonek"/>
  <anchor x="606" y="920" name="top"/>
  <anchor x="811" y="920" name="topright"/>
  <outline>
    <contour>
      <point x="311" y="-18" type="curve" smooth="yes"/>
      <point x="417" y="-18"/>
      <point x="513" y="36"/>
      <point x="585" y="137" type="curve"/>
      <point x="557" y="0" type="line"/>
      <point x="715" y="0" type="line"/>
      <point x="903" y="920" type="line"/>
      <point x="745" y="920" type="line"/>
      <point x="638" y="398" type="line" smooth="yes"/>
      <point x="605" y="235"/>
      <point x="490" y="126"/>
      <point x="356" y="132" type="curve" smooth="yes"/>
      <point x="244" y="137"/>
      <point x="203" y="219"/>
      <point x="231" y="360" type="curve" smooth="yes"/>
      <point x="342" y="918" type="line"/>
      <point x="193" y="920" type="line"/>
      <point x="73" y="340" type="line" smooth="yes"/>
      <point x="31" y="136"/>
      <point x="134" y="-18"/>
    </contour>
  </outline>
</glyph>
<glyph name="v" format="2">
  <advance width="826"/>
  <unicode hex="0076"/>
  <anchor x="413" y="0" name="bottom"/>
  <anchor x="284" y="920" name="top"/>
  <outline>
    <contour>
      <point x="296" y="-76" type="line"/>
      <point x="884" y="918" type="line"/>
      <point x="700" y="918" type="line"/>
      <point x="350" y="282" type="line"/>
      <point x="216" y="920" type="line"/>
      <point x="48" y="920" type="line"/>
    </contour>
  </outline>
</glyph>
<glyph name="w" format="2">
  <advance width="1278"/>
  <unicode hex="0077"/>
  <anchor x="639" y="0" name="bottom"/>
  <anchor x="715" y="920" name="top"/>
  <outline>
    <contour>
      <point x="263" y="-78" type="line"/>
      <point x="651" y="592" type="line"/>
      <point x="771" y="-78" type="line"/>
      <point x="1357" y="918" type="line"/>
      <point x="1173" y="918" type="line"/>
      <point x="832" y="328" type="line"/>
      <point x="722" y="998" type="line"/>
      <point x="346" y="332" type="line"/>
      <point x="255" y="920" type="line"/>
      <point x="89" y="920" type="line"/>
    </contour>
  </outline>
</glyph>
<glyph name="x" format="2">
  <advance width="790"/>
  <unicode hex="0078"/>
  <anchor x="395" y="0" name="bottom"/>
  <anchor x="266" y="920" name="top"/>
  <outline>
    <contour>
      <point x="-80" y="0" type="line"/>
      <point x="108" y="0" type="line"/>
      <point x="390" y="354" type="line"/>
      <point x="556" y="0" type="line"/>
      <point x="718" y="0" type="line"/>
      <point x="496" y="458" type="line"/>
      <point x="869" y="918" type="line"/>
      <point x="681" y="918" type="line"/>
      <point x="428" y="598" type="line"/>
      <point x="269" y="920" type="line"/>
      <point x="107" y="920" type="line"/>
      <point x="325" y="494" type="line"/>
    </contour>
  </outline>
</glyph>
<glyph name="y" format="2">
  <advance width="826"/>
  <unicode hex="0079"/>
  <anchor x="413" y="0" name="bottom"/>
  <anchor x="511" y="920" name="top"/>
  <outline>
    <contour>
      <point x="-112" y="-438" type="line"/>
      <point x="72" y="-438" type="line"/>
      <point x="915" y="918" type="line"/>
      <point x="731" y="918" type="line"/>
      <point x="321" y="210" type="line"/>
      <point x="386" y="200" type="line"/>
      <point x="239" y="920" type="line"/>
      <point x="79" y="920" type="line"/>
      <point x="251" y="140" type="line"/>
    </contour>
  </outline>
</glyph>
<glyph name="z" format="2">
  <advance width="834"/>
  <unicode hex="007A"/>
  <anchor x="417" y="0" name="bottom"/>
  <anchor x="352" y="460" name="center"/>
  <anchor x="551" y="920" name="top"/>
  <outline>
    <contour>
      <point x="-120" y="0" type="line"/>
      <point x="664" y="0" type="line"/>
      <point x="697" y="150" type="line"/>
      <point x="201" y="150" type="line"/>
      <point x="895" y="920" type="line"/>
      <point x="129" y="920" type="line"/>
      <point x="96" y="770" type="line"/>
      <point x="572" y="770" type="line"/>
    </contour>
  </outline>
</glyph>
<glyph name="braceleft" format="2">
  <advance width="584"/>
  <unicode hex="007B"/>
  <outline>
    <contour>
      <point x="250" y="-401" type="curve" smooth="yes"/>
      <point x="360" y="-401" type="line"/>
      <point x="382" y="-257" type="line"/>
      <point x="310" y="-257" type="line" smooth="yes"/>
      <point x="255" y="-257"/>
      <point x="229" y="-221"/>
      <point x="239" y="-162" type="curve" smooth="yes"/>
      <point x="298" y="180" type="line" smooth="yes"/>
      <point x="336" y="401"/>
      <point x="326" y="550"/>
      <point x="152" y="600" type="curve"/>
      <point x="147" y="562" type="line"/>
      <point x="351" y="609"/>
      <point x="400" y="783"/>
      <point x="434" y="980" type="curve" smooth="yes"/>
      <point x="491" y="1320" type="line" smooth="yes"/>
      <point x="502" y="1388"/>
      <point x="539" y="1420"/>
      <point x="601" y="1420" type="curve" smooth="yes"/>
      <point x="665" y="1420" type="line"/>
      <point x="685" y="1558" type="line"/>
      <point x="565" y="1558" type="line" smooth="yes"/>
      <point x="454" y="1558"/>
      <point x="358" y="1458"/>
      <point x="327" y="1281" type="curve" smooth="yes"/>
      <point x="254" y="860" type="line" smooth="yes"/>
      <point x="237" y="760"/>
      <point x="205" y="694"/>
      <point x="128" y="640" type="curve"/>
      <point x="109" y="520" type="line"/>
      <point x="173" y="459"/>
      <point x="183" y="408"/>
      <point x="165" y="300" type="curve" smooth="yes"/>
      <point x="95" y="-120" type="line" smooth="yes"/>
      <point x="70" y="-269"/>
      <point x="138" y="-401"/>
    </contour>
  </outline>
</glyph>
<glyph name="bar" format="2">
  <advance width="514"/>
  <unicode hex="007C"/>
  <outline>
    <contour>
      <point x="46" y="-428" type="line"/>
      <point x="190" y="-428" type="line"/>
      <point x="523" y="1568" type="line"/>
      <point x="379" y="1568" type="line"/>
    </contour>
  </outline>
</glyph>
<glyph name="braceright" format="2">
  <advance width="584"/>
  <unicode hex="007D"/>
  <outline>
    <contour>
      <point x="-26" y="-398" type="line"/>
      <point x="96" y="-398" type="line" smooth="yes"/>
      <point x="209" y="-398"/>
      <point x="302" y="-294"/>
      <point x="332" y="-121" type="curve" smooth="yes"/>
      <point x="405" y="300" type="line" smooth="yes"/>
      <point x="422" y="400"/>
      <point x="454" y="466"/>
      <point x="531" y="520" type="curve"/>
      <point x="550" y="640" type="line"/>
      <point x="481" y="705"/>
      <point x="478" y="766"/>
      <point x="494" y="860" type="curve" smooth="yes"/>
      <point x="565" y="1280" type="line" smooth="yes"/>
      <point x="591" y="1433"/>
      <point x="518" y="1560"/>
      <point x="409" y="1560" type="curve" smooth="yes"/>
      <point x="299" y="1560" type="line"/>
      <point x="278" y="1420" type="line"/>
      <point x="349" y="1418" type="line" smooth="yes"/>
      <point x="404" y="1416"/>
      <point x="430" y="1381"/>
      <point x="420" y="1322" type="curve" smooth="yes"/>
      <point x="361" y="980" type="line" smooth="yes"/>
      <point x="324" y="768"/>
      <point x="330" y="611"/>
      <point x="507" y="560" type="curve"/>
      <point x="514" y="598" type="line"/>
      <point x="332" y="555"/>
      <point x="265" y="418"/>
      <point x="225" y="180" type="curve" smooth="yes"/>
      <point x="168" y="-160" type="line" smooth="yes"/>
      <point x="157" y="-228"/>
      <point x="119" y="-260"/>
      <point x="59" y="-260" type="curve" smooth="yes"/>
      <point x="-3" y="-260" type="line"/>
    </contour>
  </outline>
</glyph>
<glyph name="asciitilde" format="2">
  <advance width="1082"/>
  <unicode hex="007E"/>
  <outline>
    <contour>
      <point x="741" y="346" type="curve" smooth="yes"/>
      <point x="887" y="343"/>
      <point x="999" y="482"/>
      <point x="990" y="636" type="curve"/>
      <point x="839" y="646" type="line"/>
      <point x="850" y="570"/>
      <point x="802" y="499"/>
      <point x="736" y="496" type="curve" smooth="yes"/>
      <point x="690" y="495"/>
      <point x="648" y="528"/>
      <point x="588" y="571" type="curve" smooth="yes"/>
      <point x="524" y="617"/>
      <point x="470" y="652"/>
      <point x="395" y="652" type="curve" smooth="yes"/>
      <point x="237" y="652"/>
      <point x="92" y="499"/>
      <point x="119" y="362" type="curve"/>
      <point x="260" y="352" type="line"/>
      <point x="261" y="440"/>
      <point x="315" y="501"/>
      <point x="391" y="504" type="curve" smooth="yes"/>
      <point x="441" y="506"/>
      <point x="473" y="485"/>
      <point x="538" y="440" type="curve" smooth="yes"/>
      <point x="627" y="378"/>
      <point x="676" y="347"/>
    </contour>
  </outline>
</glyph>
<glyph name="exclamdown" format="2">
  <advance width="564"/>
  <unicode hex="00A1"/>
  <outline>
    <contour>
      <point x="-25" y="-490" type="line"/>
      <point x="175" y="-490" type="line"/>
      <point x="335" y="508" type="line"/>
      <point x="217" y="508" type="line"/>
    </contour>
    <contour>
      <point x="322" y="722" type="curve" smooth="yes"/>
      <point x="377" y="718"/>
      <point x="439" y="776"/>
      <point x="446" y="826" type="curve" smooth="yes"/>
      <point x="453" y="872"/>
      <point x="412" y="934"/>
      <point x="359" y="938" type="curve" smooth="yes"/>
      <point x="304" y="942"/>
      <point x="242" y="884"/>
      <point x="235" y="834" type="curve" smooth="yes"/>
      <point x="228" y="788"/>
      <point x="269" y="726"/>
    </contour>
  </outline>
</glyph>
<glyph name="cent" format="2">
  <advance width="1090"/>
  <unicode hex="00A2"/>
  <outline>
    <contour>
      <point x="371" y="-222" type="line"/>
      <point x="495" y="-222" type="line"/>
      <point x="538" y="-16" type="line"/>
      <point x="636" y="-9"/>
      <point x="730" y="28"/>
      <point x="818" y="96" type="curve"/>
      <point x="853" y="294" type="line"/>
      <point x="747" y="190"/>
      <point x="626" y="132"/>
      <point x="520" y="132" type="curve" smooth="yes"/>
      <point x="377" y="132"/>
      <point x="281" y="237"/>
      <point x="281" y="388" type="curve" smooth="yes"/>
      <point x="281" y="595"/>
      <point x="463" y="788"/>
      <point x="669" y="788" type="curve" smooth="yes"/>
      <point x="782" y="788"/>
      <point x="870" y="730"/>
      <point x="923" y="622" type="curve"/>
      <point x="959" y="820" type="line"/>
      <point x="888" y="886"/>
      <point x="813" y="922"/>
      <point x="728" y="934" type="curve"/>
      <point x="774" y="1154" type="line"/>
      <point x="650" y="1154" type="line"/>
      <point x="603" y="933" type="line"/>
      <point x="339" y="896"/>
      <point x="126" y="641"/>
      <point x="126" y="381" type="curve" smooth="yes"/>
      <point x="126" y="187"/>
      <point x="243" y="30"/>
      <point x="414" y="-9" type="curve"/>
    </contour>
  </outline>
</glyph>
<glyph name="sterling" format="2">
  <advance width="1090"/>
  <unicode hex="00A3"/>
  <outline>
    <contour>
      <point x="12" y="0" type="curve"/>
      <point x="866" y="0" type="line"/>
      <point x="902" y="160" type="line"/>
      <point x="210" y="160" type="line"/>
      <point x="195" y="104" type="line"/>
      <point x="380" y="171"/>
      <point x="541" y="344"/>
      <point x="562" y="525" type="curve" smooth="yes"/>
      <point x="584" y="717"/>
      <point x="440" y="869"/>
      <point x="484" y="1040" type="curve" smooth="yes"/>
      <point x="513" y="1155"/>
      <point x="625" y="1256"/>
      <point x="759" y="1250" type="curve" smooth="yes"/>
      <point x="923" y="1243"/>
      <point x="940" y="1083"/>
      <point x="933" y="960" type="curve"/>
      <point x="1079" y="1016" type="line"/>
      <point x="1082" y="1208"/>
      <point x="1000" y="1411"/>
      <point x="769" y="1418" type="curve" smooth="yes"/>
      <point x="540" y="1425"/>
      <point x="344" y="1237"/>
      <point x="314" y="1037" type="curve" smooth="yes"/>
      <point x="284" y="836"/>
      <point x="429" y="689"/>
      <point x="398" y="498" type="curve" smooth="yes"/>
      <point x="364" y="289"/>
      <point x="132" y="123"/>
    </contour>
    <contour>
      <point x="131" y="590" type="line"/>
      <point x="815" y="590" type="line"/>
      <point x="848" y="740" type="line"/>
      <point x="164" y="740" type="line"/>
    </contour>
  </outline>
</glyph>
<glyph name="currency" format="2">
  <advance width="1090"/>
  <unicode hex="00A4"/>
  <outline>
    <contour>
      <point x="79" y="96" type="line"/>
      <point x="224" y="217" type="line"/>
      <point x="286" y="159"/>
      <point x="370" y="122"/>
      <point x="475" y="122" type="curve" smooth="yes"/>
      <point x="575" y="122"/>
      <point x="674" y="155"/>
      <point x="756" y="211" type="curve"/>
      <point x="845" y="96" type="line"/>
      <point x="954" y="188" type="line"/>
      <point x="864" y="305" type="line"/>
      <point x="939" y="388"/>
      <point x="990" y="492"/>
      <point x="1010" y="600" type="curve" smooth="yes"/>
      <point x="1028" y="700"/>
      <point x="1012" y="795"/>
      <point x="971" y="876" type="curve"/>
      <point x="1118" y="998" type="line"/>
      <point x="1037" y="1104" type="line"/>
      <point x="892" y="984" type="line"/>
      <point x="829" y="1042"/>
      <point x="744" y="1078"/>
      <point x="643" y="1078" type="curve" smooth="yes"/>
      <point x="539" y="1078"/>
      <point x="442" y="1044"/>
      <point x="359" y="989" type="curve"/>
      <point x="271" y="1104" type="line"/>
      <point x="160" y="1012" type="line"/>
      <point x="252" y="895" type="line"/>
      <point x="177" y="812"/>
      <point x="125" y="706"/>
      <point x="106" y="599" type="curve" smooth="yes"/>
      <point x="90" y="507"/>
      <point x="102" y="409"/>
      <point x="145" y="324" type="curve"/>
      <point x="-4" y="202" type="line"/>
    </contour>
    <contour>
      <point x="480" y="272" type="curve" smooth="yes"/>
      <point x="295" y="276"/>
      <point x="232" y="452"/>
      <point x="264" y="601" type="curve" smooth="yes"/>
      <point x="298" y="759"/>
      <point x="449" y="932"/>
      <point x="636" y="928" type="curve" smooth="yes"/>
      <point x="821" y="924"/>
      <point x="884" y="748"/>
      <point x="852" y="599" type="curve" smooth="yes"/>
      <point x="818" y="441"/>
      <point x="667" y="268"/>
    </contour>
  </outline>
</glyph>
<glyph name="yen" format="2">
  <advance width="1090"/>
  <unicode hex="00A5"/>
  <outline>
    <contour>
      <point x="352" y="0" type="line"/>
      <point x="522" y="0" type="line"/>
      <point x="646" y="602" type="line"/>
      <point x="1248" y="1398" type="line"/>
      <point x="1054" y="1398" type="line"/>
      <point x="582" y="758" type="line"/>
      <point x="378" y="1400" type="line"/>
      <point x="206" y="1400" type="line"/>
      <point x="482" y="618" type="line"/>
    </contour>
    <contour>
      <point x="35" y="281" type="line"/>
      <point x="953" y="281" type="line"/>
      <point x="982" y="430" type="line"/>
      <point x="62" y="430" type="line"/>
    </contour>
    <contour>
      <point x="95" y="581" type="line"/>
      <point x="1013" y="581" type="line"/>
      <point x="1042" y="730" type="line"/>
      <point x="124" y="730" type="line"/>
    </contour>
  </outline>
</glyph>
<glyph name="brokenbar" format="2">
  <advance width="514"/>
  <unicode hex="00A6"/>
  <outline>
    <contour>
      <point x="260" y="912" type="line"/>
      <point x="404" y="912" type="line"/>
      <point x="501" y="1388" type="line"/>
      <point x="357" y="1388" type="line"/>
    </contour>
    <contour>
      <point x="78" y="12" type="line"/>
      <point x="222" y="12" type="line"/>
      <point x="319" y="488" type="line"/>
      <point x="175" y="488" type="line"/>
    </contour>
  </outline>
</glyph>
<glyph name="section" format="2">
  <advance width="766"/>
  <unicode hex="00A7"/>
  <outline>
    <contour>
      <point x="292" y="-18" type="curve" smooth="yes"/>
      <point x="467" y="-22"/>
      <point x="636" y="84"/>
      <point x="658" y="261" type="curve" smooth="yes"/>
      <point x="670" y="390"/>
      <point x="579" y="470"/>
      <point x="463" y="532" type="curve" smooth="yes"/>
      <point x="388" y="572"/>
      <point x="272" y="622"/>
      <point x="300" y="738" type="curve" smooth="yes"/>
      <point x="323" y="834"/>
      <point x="421" y="872"/>
      <point x="505" y="906" type="curve"/>
      <point x="515" y="956" type="line"/>
      <point x="364" y="946"/>
      <point x="171" y="901"/>
      <point x="143" y="722" type="curve" smooth="yes"/>
      <point x="122" y="587"/>
      <point x="214" y="498"/>
      <point x="343" y="430" type="curve" smooth="yes"/>
      <point x="419" y="390"/>
      <point x="517" y="346"/>
      <point x="495" y="248" type="curve" smooth="yes"/>
      <point x="476" y="169"/>
      <point x="388" y="130"/>
      <point x="311" y="132" type="curve" smooth="yes"/>
      <point x="197" y="134"/>
      <point x="151" y="220"/>
      <point x="131" y="320" type="curve"/>
      <point x="-5" y="248" type="line"/>
      <point x="25" y="92"/>
      <point x="128" y="-14"/>
    </contour>
    <contour>
      <point x="382" y="484" type="line"/>
      <point x="556" y="494"/>
      <point x="736" y="563"/>
      <point x="754" y="736" type="curve" smooth="yes"/>
      <point x="767" y="865"/>
      <point x="681" y="952"/>
      <point x="560" y="1012" type="curve" smooth="yes"/>
      <point x="496" y="1044"/>
      <point x="369" y="1095"/>
      <point x="391" y="1178" type="curve" smooth="yes"/>
      <point x="407" y="1240"/>
      <point x="493" y="1266"/>
      <point x="552" y="1266" type="curve" smooth="yes"/>
      <point x="627" y="1266"/>
      <point x="672" y="1224"/>
      <point x="715" y="1160" type="curve"/>
      <point x="846" y="1236" type="line"/>
      <point x="789" y="1358"/>
      <point x="686" y="1420"/>
      <point x="557" y="1418" type="curve" smooth="yes"/>
      <point x="396" y="1414"/>
      <point x="258" y="1314"/>
      <point x="236" y="1180" type="curve" smooth="yes"/>
      <point x="213" y="1043"/>
      <point x="325" y="968"/>
      <point x="440" y="908" type="curve" smooth="yes"/>
      <point x="521" y="866"/>
      <point x="608" y="825"/>
      <point x="594" y="727" type="curve" smooth="yes"/>
      <point x="580" y="628"/>
      <point x="479" y="578"/>
      <point x="395" y="550" type="curve"/>
    </contour>
  </outline>
</glyph>
<glyph name="copyright" format="2">
  <advance width="1504"/>
  <unicode hex="00A9"/>
  <outline>
    <contour>
      <point x="693" y="-20" type="curve" smooth="yes"/>
      <point x="1073" y="-27"/>
      <point x="1427" y="301"/>
      <point x="1482" y="701" type="curve" smooth="yes"/>
      <point x="1536" y="1091"/>
      <point x="1282" y="1413"/>
      <point x="911" y="1420" type="curve" smooth="yes"/>
      <point x="529" y="1427"/>
      <point x="174" y="1096"/>
      <point x="120" y="698" type="curve" smooth="yes"/>
      <point x="67" y="307"/>
      <point x="323" y="-13"/>
    </contour>
    <contour>
      <point x="687" y="82" type="curve" smooth="yes"/>
      <point x="380" y="89"/>
      <point x="172" y="360"/>
      <point x="230" y="700" type="curve" smooth="yes"/>
      <point x="289" y="1046"/>
      <point x="600" y="1324"/>
      <point x="917" y="1318" type="curve" smooth="yes"/>
      <point x="1224" y="1311"/>
      <point x="1432" y="1040"/>
      <point x="1374" y="700" type="curve" smooth="yes"/>
      <point x="1315" y="354"/>
      <point x="1004" y="76"/>
    </contour>
    <contour>
      <point x="770" y="270" type="curve" smooth="yes"/>
      <point x="860" y="268"/>
      <point x="944" y="300"/>
      <point x="1032" y="358" type="curve"/>
      <point x="1052" y="490" type="line"/>
      <point x="945" y="407"/>
      <point x="859" y="369"/>
      <point x="768" y="372" type="curve" smooth="yes"/>
      <point x="609" y="379"/>
      <point x="508" y="521"/>
      <point x="540" y="700" type="curve" smooth="yes"/>
      <point x="573" y="883"/>
      <point x="731" y="1028"/>
      <point x="899" y="1028" type="curve" smooth="yes"/>
      <point x="985" y="1028"/>
      <point x="1055" y="990"/>
      <point x="1125" y="906" type="curve"/>
      <point x="1146" y="1038" type="line"/>
      <point x="1061" y="1103"/>
      <point x="983" y="1132"/>
      <point x="895" y="1130" type="curve" smooth="yes"/>
      <point x="666" y="1126"/>
      <point x="465" y="929"/>
      <point x="434" y="700" type="curve" smooth="yes"/>
      <point x="402" y="465"/>
      <point x="558" y="274"/>
    </contour>
  </outline>
</glyph>
<glyph name="ordfeminine" format="2">
  <advance width="446"/>
  <unicode hex="00AA"/>
  <outline>
    <contour>
      <point x="50" y="910" type="curve" smooth="yes"/>
      <point x="117" y="910"/>
      <point x="185" y="941"/>
      <point x="217" y="986" type="curve"/>
      <point x="207" y="920" type="line"/>
      <point x="287" y="920" type="line"/>
      <point x="340" y="1270" type="line" smooth="yes"/>
      <point x="353" y="1354"/>
      <point x="290" y="1410"/>
      <point x="183" y="1410" type="curve" smooth="yes"/>
      <point x="122" y="1410"/>
      <point x="57" y="1390"/>
      <point x="-1" y="1354" type="curve"/>
      <point x="28" y="1292" type="line"/>
      <point x="72" y="1321"/>
      <point x="128" y="1340"/>
      <point x="173" y="1340" type="curve" smooth="yes"/>
      <point x="231" y="1340"/>
      <point x="267" y="1310"/>
      <point x="260" y="1270" type="curve" smooth="yes"/>
      <point x="247" y="1193" type="line"/>
      <point x="215" y="1215"/>
      <point x="176" y="1226"/>
      <point x="132" y="1226" type="curve" smooth="yes"/>
      <point x="10" y="1226"/>
      <point x="-90" y="1140"/>
      <point x="-90" y="1037" type="curve" smooth="yes"/>
      <point x="-90" y="960"/>
      <point x="-35" y="910"/>
    </contour>
    <contour>
      <point x="81" y="982" type="curve" smooth="yes"/>
      <point x="28" y="982"/>
      <point x="-7" y="1000"/>
      <point x="-7" y="1051" type="curve" smooth="yes"/>
      <point x="-7" y="1117"/>
      <point x="51" y="1166"/>
      <point x="129" y="1166" type="curve" smooth="yes"/>
      <point x="166" y="1166"/>
      <point x="211" y="1155"/>
      <point x="240" y="1138" type="curve"/>
      <point x="234" y="1100" type="line" smooth="yes"/>
      <point x="223" y="1028"/>
      <point x="166" y="982"/>
    </contour>
  </outline>
</glyph>
<glyph name="guillemetleft" format="2">
  <advance width="958"/>
  <unicode hex="00AB"/>
  <outline>
    <contour>
      <point x="319" y="40" type="line"/>
      <point x="429" y="126" type="line"/>
      <point x="220" y="516" type="line"/>
      <point x="582" y="884" type="line"/>
      <point x="495" y="978" type="line"/>
      <point x="47" y="522" type="line"/>
    </contour>
    <contour>
      <point x="641" y="40" type="line"/>
      <point x="749" y="126" type="line"/>
      <point x="542" y="516" type="line"/>
      <point x="902" y="884" type="line"/>
      <point x="817" y="978" type="line"/>
      <point x="369" y="522" type="line"/>
    </contour>
  </outline>
</glyph>
<glyph name="logicalnot" format="2">
  <advance width="1166"/>
  <unicode hex="00AC"/>
  <outline>
    <contour>
      <point x="861" y="352" type="line"/>
      <point x="1007" y="352" type="line"/>
      <point x="1093" y="750" type="line"/>
      <point x="163" y="750" type="line"/>
      <point x="130" y="600" type="line"/>
      <point x="914" y="600" type="line"/>
    </contour>
  </outline>
</glyph>
<glyph name="registered" format="2">
  <advance width="1504"/>
  <unicode hex="00AE"/>
  <outline>
    <contour>
      <point x="693" y="-20" type="curve" smooth="yes"/>
      <point x="1099" y="-27"/>
      <point x="1430" y="331"/>
      <point x="1482" y="700" type="curve" smooth="yes"/>
      <point x="1533" y="1066"/>
      <point x="1307" y="1414"/>
      <point x="911" y="1420" type="curve" smooth="yes"/>
      <point x="505" y="1427"/>
      <point x="172" y="1069"/>
      <point x="120" y="700" type="curve" smooth="yes"/>
      <point x="69" y="337"/>
      <point x="295" y="-14"/>
    </contour>
    <contour>
      <point x="687" y="82" type="curve" smooth="yes"/>
      <point x="347" y="88"/>
      <point x="179" y="397"/>
      <point x="230" y="700" type="curve" smooth="yes"/>
      <point x="283" y="1013"/>
      <point x="570" y="1324"/>
      <point x="917" y="1318" type="curve" smooth="yes"/>
      <point x="1257" y="1312"/>
      <point x="1425" y="1003"/>
      <point x="1374" y="700" type="curve" smooth="yes"/>
      <point x="1321" y="387"/>
      <point x="1034" y="76"/>
    </contour>
    <contour>
      <point x="496" y="298" type="line"/>
      <point x="596" y="298" type="line"/>
      <point x="653" y="638" type="line"/>
      <point x="743" y="638" type="line"/>
      <point x="914" y="298" type="line"/>
      <point x="1032" y="298" type="line"/>
      <point x="846" y="648" type="line"/>
      <point x="964" y="677"/>
      <point x="1066" y="760"/>
      <point x="1084" y="887" type="curve" smooth="yes"/>
      <point x="1103" y="1038"/>
      <point x="982" y="1142"/>
      <point x="846" y="1140" type="curve" smooth="yes"/>
      <point x="636" y="1138" type="line"/>
    </contour>
    <contour>
      <point x="666" y="725" type="line"/>
      <point x="722" y="1049" type="line"/>
      <point x="843" y="1048" type="line" smooth="yes"/>
      <point x="931" y="1047"/>
      <point x="998" y="983"/>
      <point x="984" y="890" type="curve" smooth="yes"/>
      <point x="970" y="796"/>
      <point x="878" y="727"/>
      <point x="776" y="726" type="curve" smooth="yes"/>
    </contour>
  </outline>
</glyph>
<glyph name="degree" format="2">
  <advance width="522"/>
  <unicode hex="00B0"/>
  <outline>
    <contour>
      <point x="355" y="962" type="curve" smooth="yes"/>
      <point x="495" y="959"/>
      <point x="625" y="1096"/>
      <point x="625" y="1237" type="curve" smooth="yes"/>
      <point x="625" y="1350"/>
      <point x="543" y="1436"/>
      <point x="434" y="1438" type="curve" smooth="yes"/>
      <point x="295" y="1440"/>
      <point x="165" y="1306"/>
      <point x="165" y="1164" type="curve" smooth="yes"/>
      <point x="165" y="1052"/>
      <point x="246" y="964"/>
    </contour>
    <contour>
      <point x="359" y="1038" type="curve" smooth="yes"/>
      <point x="291" y="1038"/>
      <point x="242" y="1092"/>
      <point x="242" y="1162" type="curve" smooth="yes"/>
      <point x="242" y="1260"/>
      <point x="338" y="1362"/>
      <point x="430" y="1362" type="curve" smooth="yes"/>
      <point x="498" y="1362"/>
      <point x="547" y="1307"/>
      <point x="547" y="1237" type="curve" smooth="yes"/>
      <point x="547" y="1139"/>
      <point x="452" y="1038"/>
    </contour>
  </outline>
</glyph>
<glyph name="plusminus" format="2">
  <advance width="1156"/>
  <unicode hex="00B1"/>
  <outline>
    <contour>
      <point x="482" y="300" type="line"/>
      <point x="640" y="300" type="line"/>
      <point x="708" y="690" type="line"/>
      <point x="1087" y="690" type="line"/>
      <point x="1115" y="850" type="line"/>
      <point x="736" y="850" type="line"/>
      <point x="804" y="1240" type="line"/>
      <point x="632" y="1240" type="line"/>
      <point x="570" y="850" type="line"/>
      <point x="197" y="850" type="line"/>
      <point x="171" y="690" type="line"/>
      <point x="544" y="690" type="line"/>
    </contour>
    <contour>
      <point x="56" y="0" type="line"/>
      <point x="972" y="0" type="line"/>
      <point x="1000" y="160" type="line"/>
      <point x="80" y="160" type="line"/>
    </contour>
  </outline>
</glyph>
<glyph name="paragraph" format="2">
  <advance width="1086"/>
  <unicode hex="00B6"/>
  <outline>
    <contour>
      <point x="343" y="-438" type="line"/>
      <point x="479" y="-438" type="line"/>
      <point x="822" y="1272" type="line"/>
      <point x="988" y="1272" type="line"/>
      <point x="645" y="-438" type="line"/>
      <point x="781" y="-438" type="line"/>
      <point x="1149" y="1399" type="line"/>
      <point x="711" y="1399" type="line" smooth="yes"/>
      <point x="446" y="1399"/>
      <point x="237" y="1223"/>
      <point x="195" y="973" type="curve" smooth="yes"/>
      <point x="153" y="724"/>
      <point x="304" y="572"/>
      <point x="539" y="543" type="curve"/>
    </contour>
  </outline>
</glyph>
<glyph name="periodcentered" format="2">
  <advance width="564"/>
  <unicode hex="00B7"/>
  <outline>
    <contour>
      <point x="251" y="372" type="curve" smooth="yes"/>
      <point x="306" y="368"/>
      <point x="370" y="425"/>
      <point x="377" y="476" type="curve" smooth="yes"/>
      <point x="384" y="524"/>
      <point x="340" y="584"/>
      <point x="288" y="588" type="curve" smooth="yes"/>
      <point x="234" y="592"/>
      <point x="171" y="535"/>
      <point x="164" y="484" type="curve" smooth="yes"/>
      <point x="157" y="437"/>
      <point x="199" y="376"/>
    </contour>
  </outline>
</glyph>
<glyph name="ordmasculine" format="2">
  <advance width="522"/>
  <unicode hex="00BA"/>
  <outline>
    <contour>
      <point x="347" y="922" type="curve" smooth="yes"/>
      <point x="480" y="920"/>
      <point x="593" y="1037"/>
      <point x="613" y="1156" type="curve" smooth="yes"/>
      <point x="633" y="1273"/>
      <point x="561" y="1396"/>
      <point x="426" y="1398" type="curve" smooth="yes"/>
      <point x="294" y="1400"/>
      <point x="180" y="1285"/>
      <point x="159" y="1161" type="curve" smooth="yes"/>
      <point x="140" y="1040"/>
      <point x="216" y="924"/>
    </contour>
    <contour>
      <point x="344" y="998" type="curve" smooth="yes"/>
      <point x="260" y="1001"/>
      <point x="221" y="1085"/>
      <point x="237" y="1159" type="curve" smooth="yes"/>
      <point x="254" y="1236"/>
      <point x="338" y="1324"/>
      <point x="428" y="1322" type="curve" smooth="yes"/>
      <point x="517" y="1319"/>
      <point x="552" y="1231"/>
      <point x="535" y="1159" type="curve" smooth="yes"/>
      <point x="517" y="1081"/>
      <point x="434" y="996"/>
    </contour>
  </outline>
</glyph>
<glyph name="guillemetright" format="2">
  <advance width="958"/>
  <unicode hex="00BB"/>
  <outline>
    <contour>
      <point x="132" y="42" type="line"/>
      <point x="580" y="498" type="line"/>
      <point x="306" y="980" type="line"/>
      <point x="198" y="894" type="line"/>
      <point x="405" y="504" type="line"/>
      <point x="45" y="136" type="line"/>
    </contour>
    <contour>
      <point x="452" y="42" type="line"/>
      <point x="900" y="498" type="line"/>
      <point x="628" y="980" type="line"/>
      <point x="520" y="894" type="line"/>
      <point x="727" y="504" type="line"/>
      <point x="367" y="136" type="line"/>
    </contour>
  </outline>
</glyph>
<glyph name="questiondown" format="2">
  <advance width="1048"/>
  <unicode hex="00BF"/>
  <outline>
    <contour>
      <point x="423" y="-18" type="curve" smooth="yes"/>
      <point x="615" y="-25"/>
      <point x="768" y="91"/>
      <point x="875" y="208" type="curve"/>
      <point x="757" y="294" type="line"/>
      <point x="677" y="212"/>
      <point x="578" y="130"/>
      <point x="448" y="132" type="curve" smooth="yes"/>
      <point x="290" y="134"/>
      <point x="205" y="258"/>
      <point x="238" y="400" type="curve" smooth="yes"/>
      <point x="277" y="575"/>
      <point x="467" y="705"/>
      <point x="671" y="705" type="curve" smooth="yes"/>
      <point x="717" y="705" type="line"/>
      <point x="744" y="1060" type="line"/>
      <point x="626" y="1058" type="line"/>
      <point x="559" y="820" type="line"/>
      <point x="305" y="775"/>
      <point x="116" y="609"/>
      <point x="82" y="401" type="curve" smooth="yes"/>
      <point x="47" y="186"/>
      <point x="182" y="-10"/>
    </contour>
    <contour>
      <point x="716" y="1212" type="curve" smooth="yes"/>
      <point x="771" y="1209"/>
      <point x="833" y="1265"/>
      <point x="841" y="1313" type="curve" smooth="yes"/>
      <point x="849" y="1360"/>
      <point x="808" y="1424"/>
      <point x="752" y="1428" type="curve" smooth="yes"/>
      <point x="697" y="1431"/>
      <point x="637" y="1376"/>
      <point x="629" y="1327" type="curve" smooth="yes"/>
      <point x="621" y="1279"/>
      <point x="661" y="1216"/>
    </contour>
  </outline>
</glyph>
<glyph name="AE" format="2">
  <advance width="1806"/>
  <unicode hex="00C6"/>
  <anchor x="903" y="0" name="bottom"/>
  <anchor x="1434" y="1400" name="top"/>
  <outline>
    <contour>
      <point x="-100" y="0" type="line"/>
      <point x="86" y="0" type="line"/>
      <point x="416" y="422" type="line"/>
      <point x="897" y="420" type="line"/>
      <point x="814" y="0" type="line"/>
      <point x="1572" y="0" type="line"/>
      <point x="1606" y="160" type="line"/>
      <point x="1007" y="160" type="line"/>
      <point x="1114" y="682" type="line"/>
      <point x="1672" y="680" type="line"/>
      <point x="1704" y="840" type="line"/>
      <point x="1146" y="840" type="line"/>
      <point x="1229" y="1240" type="line"/>
      <point x="1822" y="1240" type="line"/>
      <point x="1853" y="1400" type="line"/>
      <point x="999" y="1400" type="line"/>
    </contour>
    <contour>
      <point x="539" y="580" type="line"/>
      <point x="1060" y="1245" type="line"/>
      <point x="928" y="580" type="line"/>
    </contour>
  </outline>
</glyph>
<glyph name="Eth" format="2">
  <advance width="1278"/>
  <unicode hex="00D0"/>
  <outline>
    <contour>
      <point x="44" y="0" type="line"/>
      <point x="450" y="0" type="line" smooth="yes"/>
      <point x="882" y="0"/>
      <point x="1253" y="394"/>
      <point x="1253" y="820" type="curve" smooth="yes"/>
      <point x="1253" y="1156"/>
      <point x="1023" y="1400"/>
      <point x="706" y="1400" type="curve" smooth="yes"/>
      <point x="318" y="1400" type="line"/>
      <point x="195" y="770" type="line"/>
      <point x="56" y="770" type="line"/>
      <point x="27" y="621" type="line"/>
      <point x="166" y="621" type="line"/>
    </contour>
    <contour>
      <point x="237" y="170" type="line"/>
      <point x="330" y="621" type="line"/>
      <point x="597" y="621" type="line"/>
      <point x="626" y="770" type="line"/>
      <point x="360" y="770" type="line"/>
      <point x="454" y="1230" type="line"/>
      <point x="695" y="1230" type="line" smooth="yes"/>
      <point x="927" y="1230"/>
      <point x="1088" y="1059"/>
      <point x="1088" y="812" type="curve" smooth="yes"/>
      <point x="1088" y="479"/>
      <point x="796" y="170"/>
      <point x="460" y="170" type="curve" smooth="yes"/>
    </contour>
  </outline>
</glyph>
<glyph name="multiply" format="2">
  <advance width="1120"/>
  <unicode hex="00D7"/>
  <outline>
    <contour>
      <point x="133" y="44" type="line"/>
      <point x="543" y="404" type="line"/>
      <point x="801" y="44" type="line"/>
      <point x="923" y="146" type="line"/>
      <point x="649" y="502" type="line"/>
      <point x="1066" y="852" type="line"/>
      <point x="974" y="976" type="line"/>
      <point x="565" y="616" type="line"/>
      <point x="306" y="976" type="line"/>
      <point x="185" y="874" type="line"/>
      <point x="459" y="518" type="line"/>
      <point x="42" y="168" type="line"/>
    </contour>
  </outline>
</glyph>
<glyph name="Oslash" format="2">
  <advance width="1486"/>
  <unicode hex="00D8"/>
  <anchor x="743" y="0" name="bottom"/>
  <anchor x="645" y="700" name="center"/>
  <anchor x="678" y="40" name="ogonek"/>
  <anchor x="546" y="1400" name="top"/>
  <anchor x="-177" y="1400" name="topleft"/>
  <anchor x="1275" y="1423" name="topright"/>
  <outline>
    <contour>
      <point x="64" y="-98" type="line"/>
      <point x="355" y="191" type="line"/>
      <point x="389" y="225" type="line"/>
      <point x="1251" y="1080" type="line"/>
      <point x="1279" y="1108" type="line"/>
      <point x="1587" y="1414" type="line"/>
      <point x="1480" y="1498" type="line"/>
      <point x="1196" y="1216" type="line"/>
      <point x="1166" y="1186" type="line"/>
      <point x="293" y="319" type="line"/>
      <point x="265" y="291" type="line"/>
      <point x="-42" y="-14" type="line"/>
    </contour>
    <contour>
      <point x="643" y="-20" type="curve" smooth="yes"/>
      <point x="1052" y="-24"/>
      <point x="1458" y="377"/>
      <point x="1458" y="827" type="curve" smooth="yes"/>
      <point x="1458" y="1167"/>
      <point x="1226" y="1417"/>
      <point x="906" y="1420" type="curve" smooth="yes"/>
      <point x="495" y="1424"/>
      <point x="92" y="1022"/>
      <point x="92" y="573" type="curve" smooth="yes"/>
      <point x="92" y="230"/>
      <point x="327" y="-17"/>
    </contour>
    <contour>
      <point x="653" y="152" type="curve" smooth="yes"/>
      <point x="420" y="156"/>
      <point x="267" y="334"/>
      <point x="267" y="578" type="curve" smooth="yes"/>
      <point x="267" y="922"/>
      <point x="572" y="1256"/>
      <point x="899" y="1248" type="curve" smooth="yes"/>
      <point x="1130" y="1242"/>
      <point x="1284" y="1068"/>
      <point x="1284" y="820" type="curve" smooth="yes"/>
      <point x="1284" y="465"/>
      <point x="969" y="147"/>
    </contour>
  </outline>
</glyph>
<glyph name="Thorn" format="2">
  <advance width="1034"/>
  <unicode hex="00DE"/>
  <anchor x="517" y="0" name="bottom"/>
  <anchor x="320" y="1400" name="top"/>
  <outline>
    <contour>
      <point x="44" y="0" type="line"/>
      <point x="202" y="0" type="line"/>
      <point x="260" y="280" type="line"/>
      <point x="467" y="280" type="line" smooth="yes"/>
      <point x="749" y="280"/>
      <point x="998" y="507"/>
      <point x="998" y="764" type="curve" smooth="yes"/>
      <point x="998" y="967"/>
      <point x="842" y="1120"/>
      <point x="613" y="1120" type="curve" smooth="yes"/>
      <point x="432" y="1120" type="line"/>
      <point x="489" y="1400" type="line"/>
      <point x="318" y="1398" type="line"/>
    </contour>
    <contour>
      <point x="292" y="440" type="line"/>
      <point x="399" y="959" type="line"/>
      <point x="604" y="958" type="line" smooth="yes"/>
      <point x="746" y="957"/>
      <point x="835" y="878"/>
      <point x="835" y="756" type="curve" smooth="yes"/>
      <point x="835" y="586"/>
      <point x="664" y="440"/>
      <point x="476" y="440" type="curve" smooth="yes"/>
    </contour>
  </outline>
</glyph>
<glyph name="germandbls" format="2">
  <advance width="1072"/>
  <unicode hex="00DF"/>
  <outline>
    <contour>
      <point x="596" y="-23" type="curve" smooth="yes"/>
      <point x="843" y="-23"/>
      <point x="1033" y="145"/>
      <point x="1033" y="380" type="curve" smooth="yes"/>
      <point x="1033" y="636"/>
      <point x="807" y="656"/>
      <point x="807" y="771" type="curve" smooth="yes"/>
      <point x="807" y="900"/>
      <point x="1093" y="1017"/>
      <point x="1093" y="1291" type="curve" smooth="yes"/>
      <point x="1093" y="1466"/>
      <point x="977" y="1605"/>
      <point x="777" y="1605" type="curve" smooth="yes"/>
      <point x="586" y="1605"/>
      <point x="371" y="1477"/>
      <point x="306" y="1199" type="curve" smooth="yes"/>
      <point x="27" y="1" type="line"/>
      <point x="186" y="1" type="line"/>
      <point x="459" y="1186" type="line" smooth="yes"/>
      <point x="499" y="1361"/>
      <point x="612" y="1457"/>
      <point x="752" y="1457" type="curve" smooth="yes"/>
      <point x="866" y="1457"/>
      <point x="934" y="1393"/>
      <point x="934" y="1291" type="curve" smooth="yes"/>
      <point x="934" y="1082"/>
      <point x="645" y="956"/>
      <point x="645" y="760" type="curve" smooth="yes"/>
      <point x="645" y="585"/>
      <point x="874" y="581"/>
      <point x="874" y="381" type="curve" smooth="yes"/>
      <point x="874" y="236"/>
      <point x="755" y="122"/>
      <point x="600" y="122" type="curve" smooth="yes"/>
      <point x="511" y="122"/>
      <point x="446" y="159"/>
      <point x="394" y="218" type="curve"/>
      <point x="307" y="107" type="line"/>
      <point x="394" y="25"/>
      <point x="464" y="-23"/>
    </contour>
  </outline>
</glyph>
<glyph name="ae" format="2">
  <advance width="1552"/>
  <unicode hex="00E6"/>
  <anchor x="776" y="0" name="bottom"/>
  <anchor x="647" y="920" name="top"/>
  <outline>
    <contour>
      <point x="290" y="-18" type="curve" smooth="yes"/>
      <point x="463" y="-18"/>
      <point x="599" y="69"/>
      <point x="674" y="229" type="curve"/>
      <point x="651" y="229" type="line"/>
      <point x="697" y="78"/>
      <point x="810" y="-11"/>
      <point x="958" y="-18" type="curve" smooth="yes"/>
      <point x="1107" y="-26"/>
      <point x="1269" y="52"/>
      <point x="1410" y="208" type="curve"/>
      <point x="1292" y="294" type="line"/>
      <point x="1175" y="178"/>
      <point x="1082" y="129"/>
      <point x="983" y="132" type="curve" smooth="yes"/>
      <point x="829" y="137"/>
      <point x="749" y="269"/>
      <point x="785" y="453" type="curve"/>
      <point x="735" y="422" type="line"/>
      <point x="1466" y="420" type="line"/>
      <point x="1470" y="435"/>
      <point x="1474" y="450"/>
      <point x="1476" y="470" type="curve" smooth="yes"/>
      <point x="1507" y="743"/>
      <point x="1374" y="929"/>
      <point x="1166" y="938" type="curve" smooth="yes"/>
      <point x="1024" y="944"/>
      <point x="882" y="867"/>
      <point x="772" y="696" type="curve"/>
      <point x="787" y="696" type="line"/>
      <point x="795" y="841"/>
      <point x="700" y="934"/>
      <point x="536" y="938" type="curve" smooth="yes"/>
      <point x="430" y="941"/>
      <point x="318" y="907"/>
      <point x="190" y="832" type="curve"/>
      <point x="246" y="704" type="line"/>
      <point x="374" y="776"/>
      <point x="454" y="802"/>
      <point x="530" y="796" type="curve" smooth="yes"/>
      <point x="633" y="787"/>
      <point x="688" y="714"/>
      <point x="667" y="617" type="curve" smooth="yes"/>
      <point x="637" y="476" type="line"/>
      <point x="667" y="476" type="line"/>
      <point x="596" y="539"/>
      <point x="515" y="570"/>
      <point x="416" y="570" type="curve" smooth="yes"/>
      <point x="201" y="570"/>
      <point x="17" y="427"/>
      <point x="-6" y="252" type="curve" smooth="yes"/>
      <point x="-27" y="95"/>
      <point x="92" y="-18"/>
    </contour>
    <contour>
      <point x="296" y="124" type="curve" smooth="yes"/>
      <point x="186" y="132"/>
      <point x="138" y="187"/>
      <point x="153" y="267" type="curve" smooth="yes"/>
      <point x="172" y="370"/>
      <point x="282" y="446"/>
      <point x="425" y="448" type="curve" smooth="yes"/>
      <point x="502" y="449"/>
      <point x="574" y="427"/>
      <point x="648" y="379" type="curve"/>
      <point x="620" y="441" type="line"/>
      <point x="619" y="296" type="line"/>
      <point x="652" y="462" type="line"/>
      <point x="570" y="222"/>
      <point x="458" y="113"/>
    </contour>
    <contour>
      <point x="789" y="470" type="line"/>
      <point x="845" y="676"/>
      <point x="983" y="807"/>
      <point x="1141" y="798" type="curve" smooth="yes"/>
      <point x="1268" y="791"/>
      <point x="1337" y="695"/>
      <point x="1324" y="545" type="curve" smooth="yes"/>
      <point x="1323" y="537"/>
      <point x="1323" y="535"/>
      <point x="1322" y="525" type="curve"/>
      <point x="1369" y="556" type="line"/>
      <point x="772" y="554" type="line"/>
    </contour>
  </outline>
</glyph>
<glyph name="eth" format="2">
  <advance width="1082"/>
  <unicode hex="00F0"/>
  <outline>
    <contour>
      <point x="445" y="-18" type="curve" smooth="yes"/>
      <point x="726" y="-18"/>
      <point x="979" y="242"/>
      <point x="979" y="545" type="curve" smooth="yes"/>
      <point x="979" y="820"/>
      <point x="772" y="1203"/>
      <point x="489" y="1449" type="curve"/>
      <point x="398" y="1344" type="line"/>
      <point x="634" y="1142"/>
      <point x="788" y="917"/>
      <point x="819" y="730" type="curve"/>
      <point x="889" y="710" type="line"/>
      <point x="856" y="821"/>
      <point x="698" y="913"/>
      <point x="548" y="912" type="curve" smooth="yes"/>
      <point x="294" y="910"/>
      <point x="65" y="650"/>
      <point x="65" y="374" type="curve" smooth="yes"/>
      <point x="65" y="146"/>
      <point x="221" y="-18"/>
    </contour>
    <contour>
      <point x="449" y="136" type="curve" smooth="yes"/>
      <point x="313" y="139"/>
      <point x="222" y="242"/>
      <point x="222" y="384" type="curve" smooth="yes"/>
      <point x="222" y="593"/>
      <point x="417" y="792"/>
      <point x="603" y="788" type="curve" smooth="yes"/>
      <point x="735" y="785"/>
      <point x="828" y="683"/>
      <point x="828" y="538" type="curve" smooth="yes"/>
      <point x="828" y="329"/>
      <point x="637" y="132"/>
    </contour>
    <contour>
      <point x="436" y="1005" type="line"/>
      <point x="986" y="1180" type="line"/>
      <point x="943" y="1275" type="line"/>
      <point x="393" y="1100" type="line"/>
    </contour>
  </outline>
</glyph>
<glyph name="divide" format="2">
  <advance width="1172"/>
  <unicode hex="00F7"/>
  <outline>
    <contour>
      <point x="639" y="792" type="curve" smooth="yes"/>
      <point x="694" y="788"/>
      <point x="755" y="847"/>
      <point x="762" y="895" type="curve" smooth="yes"/>
      <point x="769" y="943"/>
      <point x="726" y="1004"/>
      <point x="673" y="1008" type="curve" smooth="yes"/>
      <point x="620" y="1012"/>
      <point x="556" y="955"/>
      <point x="549" y="904" type="curve" smooth="yes"/>
      <point x="542" y="856"/>
      <point x="587" y="796"/>
    </contour>
    <contour>
      <point x="97" y="450" type="line"/>
      <point x="1043" y="450" type="line"/>
      <point x="1075" y="610" type="line"/>
      <point x="127" y="610" type="line"/>
    </contour>
    <contour>
      <point x="485" y="32" type="curve" smooth="yes"/>
      <point x="540" y="28"/>
      <point x="602" y="85"/>
      <point x="609" y="136" type="curve" smooth="yes"/>
      <point x="616" y="185"/>
      <point x="573" y="244"/>
      <point x="522" y="248" type="curve" smooth="yes"/>
      <point x="468" y="252"/>
      <point x="405" y="195"/>
      <point x="398" y="144" type="curve" smooth="yes"/>
      <point x="391" y="96"/>
      <point x="434" y="36"/>
    </contour>
  </outline>
</glyph>
<glyph name="oslash" format="2">
  <advance width="1026"/>
  <unicode hex="00F8"/>
  <anchor x="513" y="0" name="bottom"/>
  <anchor x="448" y="460" name="center"/>
  <anchor x="495" y="40" name="ogonek"/>
  <anchor x="592" y="938" name="top"/>
  <anchor x="877" y="920" name="topright"/>
  <outline>
    <contour>
      <point x="437" y="-18" type="curve" smooth="yes"/>
      <point x="704" y="-18"/>
      <point x="959" y="235"/>
      <point x="959" y="525" type="curve" smooth="yes"/>
      <point x="959" y="759"/>
      <point x="793" y="938"/>
      <point x="568" y="938" type="curve" smooth="yes"/>
      <point x="301" y="938"/>
      <point x="46" y="685"/>
      <point x="46" y="395" type="curve" smooth="yes"/>
      <point x="46" y="161"/>
      <point x="212" y="-18"/>
    </contour>
    <contour>
      <point x="435" y="132" type="curve" smooth="yes"/>
      <point x="297" y="136"/>
      <point x="201" y="246"/>
      <point x="201" y="395" type="curve" smooth="yes"/>
      <point x="201" y="598"/>
      <point x="381" y="793"/>
      <point x="567" y="788" type="curve" smooth="yes"/>
      <point x="702" y="785"/>
      <point x="804" y="677"/>
      <point x="804" y="525" type="curve" smooth="yes"/>
      <point x="804" y="323"/>
      <point x="623" y="126"/>
    </contour>
    <contour>
      <point x="76" y="-67" type="line"/>
      <point x="200" y="67" type="line"/>
      <point x="246" y="96" type="line"/>
      <point x="802" y="725" type="line"/>
      <point x="862" y="758" type="line"/>
      <point x="1008" y="910" type="line"/>
      <point x="929" y="986" type="line"/>
      <point x="781" y="832" type="line"/>
      <point x="725" y="800" type="line"/>
      <point x="169" y="171" type="line"/>
      <point x="121" y="139" type="line"/>
      <point x="-7" y="7" type="line"/>
    </contour>
  </outline>
</glyph>
<glyph name="thorn" format="2">
  <advance width="1072"/>
  <unicode hex="00FE"/>
  <anchor x="536" y="0" name="bottom"/>
  <anchor x="407" y="920" name="top"/>
  <outline>
    <contour>
      <point x="-72" y="-440" type="line"/>
      <point x="92" y="-438" type="line"/>
      <point x="487" y="1558" type="line"/>
      <point x="337" y="1560" type="line"/>
    </contour>
    <contour>
      <point x="477" y="-20" type="curve" smooth="yes"/>
      <point x="746" y="-27"/>
      <point x="1002" y="251"/>
      <point x="1002" y="544" type="curve" smooth="yes"/>
      <point x="1002" y="776"/>
      <point x="843" y="942"/>
      <point x="646" y="938" type="curve" smooth="yes"/>
      <point x="397" y="933"/>
      <point x="185" y="664"/>
      <point x="185" y="347" type="curve" smooth="yes"/>
      <point x="185" y="123"/>
      <point x="291" y="-15"/>
    </contour>
    <contour>
      <point x="481" y="132" type="curve" smooth="yes"/>
      <point x="350" y="132"/>
      <point x="263" y="234"/>
      <point x="263" y="384" type="curve" smooth="yes"/>
      <point x="263" y="598"/>
      <point x="440" y="788"/>
      <point x="620" y="788" type="curve" smooth="yes"/>
      <point x="753" y="788"/>
      <point x="846" y="684"/>
      <point x="846" y="536" type="curve" smooth="yes"/>
      <point x="846" y="328"/>
      <point x="663" y="132"/>
    </contour>
  </outline>
</glyph>
<glyph name="Hbar" format="2">
  <advance width="1344"/>
  <unicode hex="0126"/>
  <anchor x="672" y="0" name="bottom"/>
  <anchor x="574" y="700" name="center"/>
  <anchor x="840" y="1400" name="top"/>
  <anchor x="-177" y="1400" name="topleft"/>
  <outline>
    <contour>
      <point x="44" y="0" type="line"/>
      <point x="202" y="0" type="line"/>
      <point x="321" y="582" type="line"/>
      <point x="1042" y="582" type="line"/>
      <point x="928" y="0" type="line"/>
      <point x="1086" y="0" type="line"/>
      <point x="1278" y="930" type="line"/>
      <point x="1398" y="930" type="line"/>
      <point x="1422" y="1090" type="line"/>
      <point x="1311" y="1090" type="line"/>
      <point x="1375" y="1400" type="line"/>
      <point x="1202" y="1398" type="line"/>
      <point x="1141" y="1090" type="line"/>
      <point x="426" y="1090" type="line"/>
      <point x="489" y="1400" type="line"/>
      <point x="318" y="1398" type="line"/>
      <point x="257" y="1090" type="line"/>
      <point x="148" y="1090" type="line"/>
      <point x="124" y="930" type="line"/>
      <point x="226" y="930" type="line"/>
    </contour>
    <contour>
      <point x="354" y="740" type="line"/>
      <point x="393" y="930" type="line"/>
      <point x="1110" y="930" type="line"/>
      <point x="1073" y="740" type="line"/>
    </contour>
  </outline>
</glyph>
<glyph name="hbar" format="2">
  <advance width="986"/>
  <unicode hex="0127"/>
  <anchor x="493" y="0" name="bottom"/>
  <anchor x="381" y="800" name="center"/>
  <anchor x="911" y="1400" name="top"/>
  <outline>
    <contour>
      <point x="28" y="0" type="line"/>
      <point x="184" y="0" type="line"/>
      <point x="503" y="1560" type="line"/>
      <point x="345" y="1560" type="line"/>
    </contour>
    <contour>
      <point x="108" y="1115" type="line"/>
      <point x="585" y="1115" type="line"/>
      <point x="614" y="1265" type="line"/>
      <point x="134" y="1265" type="line"/>
    </contour>
    <contour>
      <point x="588" y="0" type="line"/>
      <point x="738" y="0" type="line"/>
      <point x="852" y="581" type="line" smooth="yes"/>
      <point x="893" y="791"/>
      <point x="793" y="938"/>
      <point x="618" y="938" type="curve" smooth="yes"/>
      <point x="450" y="938"/>
      <point x="312" y="800"/>
      <point x="243" y="564" type="curve"/>
      <point x="297" y="564" type="line"/>
      <point x="361" y="711"/>
      <point x="463" y="793"/>
      <point x="573" y="788" type="curve" smooth="yes"/>
      <point x="679" y="783"/>
      <point x="727" y="701"/>
      <point x="699" y="560" type="curve" smooth="yes"/>
    </contour>
  </outline>
</glyph>
<glyph name="idotless" format="2">
  <advance width="493"/>
  <unicode hex="0131"/>
  <anchor x="275" y="0" name="bottom"/>
  <anchor x="194" y="0" name="ogonek"/>
  <anchor x="393" y="920" name="top"/>
  <outline>
    <contour>
      <point x="36" y="0" type="line"/>
      <point x="194" y="0" type="line"/>
      <point x="383" y="920" type="line"/>
      <point x="227" y="920" type="line"/>
    </contour>
  </outline>
</glyph>
<glyph name="Lslash" format="2">
  <advance width="846"/>
  <unicode hex="0141"/>
  <anchor x="423" y="0" name="bottom"/>
  <anchor x="282" y="700" name="center"/>
  <anchor x="801" y="1400" name="top"/>
  <anchor x="630" y="1400" name="topright"/>
  <outline>
    <contour>
      <point x="38" y="0" type="line"/>
      <point x="722" y="0" type="line"/>
      <point x="756" y="160" type="line"/>
      <point x="238" y="160" type="line"/>
      <point x="490" y="1400" type="line"/>
      <point x="322" y="1400" type="line"/>
    </contour>
    <contour>
      <point x="91" y="728" type="line"/>
      <point x="622" y="993" type="line"/>
      <point x="559" y="1128" type="line"/>
      <point x="28" y="863" type="line"/>
    </contour>
  </outline>
</glyph>
<glyph name="lslash" format="2">
  <advance width="432"/>
  <unicode hex="0142"/>
  <anchor x="216" y="0" name="bottom"/>
  <anchor x="103" y="800" name="center"/>
  <anchor x="409" y="1561" name="top"/>
  <anchor x="502" y="1560" name="topright"/>
  <outline>
    <contour>
      <point x="34" y="0" type="line"/>
      <point x="182" y="0" type="line"/>
      <point x="370" y="912" type="line"/>
      <point x="609" y="1085" type="line"/>
      <point x="542" y="1186" type="line"/>
      <point x="405" y="1087" type="line"/>
      <point x="502" y="1560" type="line"/>
      <point x="341" y="1558" type="line"/>
      <point x="221" y="955" type="line"/>
      <point x="20" y="809" type="line"/>
      <point x="87" y="708" type="line"/>
      <point x="187" y="780" type="line"/>
    </contour>
  </outline>
</glyph>
<glyph name="Eng" format="2">
  <advance width="1458"/>
  <unicode hex="014A"/>
  <anchor x="646" y="0" name="bottom"/>
  <anchor x="871" y="1400" name="top"/>
  <outline>
    <contour>
      <point x="887" y="-438" type="curve" smooth="yes"/>
      <point x="1029" y="-442"/>
      <point x="1135" y="-326"/>
      <point x="1176" y="-122" type="curve" smooth="yes"/>
      <point x="1485" y="1400" type="line"/>
      <point x="1319" y="1400" type="line"/>
      <point x="1106" y="356" type="line"/>
      <point x="334" y="1466" type="line"/>
      <point x="36" y="0" type="line"/>
      <point x="204" y="0" type="line"/>
      <point x="417" y="1044" type="line"/>
      <point x="1062" y="114" type="line"/>
      <point x="1019" y="-100" type="line" smooth="yes"/>
      <point x="996" y="-212"/>
      <point x="942" y="-287"/>
      <point x="886" y="-282" type="curve" smooth="yes"/>
      <point x="862" y="-280"/>
      <point x="829" y="-259"/>
      <point x="807" y="-230" type="curve"/>
      <point x="703" y="-354" type="line"/>
      <point x="760" y="-408"/>
      <point x="820" y="-436"/>
    </contour>
  </outline>
</glyph>
<glyph name="eng" format="2">
  <advance width="986"/>
  <unicode hex="014B"/>
  <outline>
    <contour>
      <point x="436" y="-438" type="curve" smooth="yes"/>
      <point x="573" y="-444"/>
      <point x="671" y="-341"/>
      <point x="715" y="-122" type="curve" smooth="yes"/>
      <point x="856" y="580" type="line" smooth="yes"/>
      <point x="897" y="785"/>
      <point x="796" y="938"/>
      <point x="615" y="938" type="curve" smooth="yes"/>
      <point x="509" y="938"/>
      <point x="417" y="885"/>
      <point x="346" y="786" type="curve"/>
      <point x="373" y="920" type="line"/>
      <point x="217" y="920" type="line"/>
      <point x="26" y="0" type="line"/>
      <point x="184" y="0" type="line"/>
      <point x="302" y="576" type="line"/>
      <point x="365" y="713"/>
      <point x="457" y="788"/>
      <point x="563" y="788" type="curve" smooth="yes"/>
      <point x="679" y="788"/>
      <point x="730" y="703"/>
      <point x="701" y="560" type="curve" smooth="yes"/>
      <point x="567" y="-100" type="line" smooth="yes"/>
      <point x="549" y="-188"/>
      <point x="526" y="-298"/>
      <point x="436" y="-282" type="curve" smooth="yes"/>
      <point x="405" y="-277"/>
      <point x="376" y="-257"/>
      <point x="356" y="-230" type="curve"/>
      <point x="252" y="-354" type="line"/>
      <point x="309" y="-407"/>
      <point x="372" y="-436"/>
    </contour>
  </outline>
</glyph>
<glyph name="OE" format="2">
  <advance width="1852"/>
  <unicode hex="0152"/>
  <anchor x="926" y="0" name="bottom"/>
  <anchor x="1226" y="1400" name="top"/>
  <outline>
    <contour>
      <point x="638" y="6" type="curve" smooth="yes"/>
      <point x="1616" y="6" type="line"/>
      <point x="1646" y="158" type="line"/>
      <point x="1053" y="160" type="line"/>
      <point x="1160" y="682" type="line"/>
      <point x="1719" y="680" type="line"/>
      <point x="1750" y="840" type="line"/>
      <point x="1193" y="840" type="line"/>
      <point x="1275" y="1240" type="line"/>
      <point x="1864" y="1240" type="line"/>
      <point x="1899" y="1394" type="line"/>
      <point x="893" y="1394" type="line" smooth="yes"/>
      <point x="464" y="1394"/>
      <point x="91" y="999"/>
      <point x="91" y="575" type="curve" smooth="yes"/>
      <point x="91" y="252"/>
      <point x="307" y="6"/>
    </contour>
    <contour>
      <point x="646" y="166" type="line" smooth="yes"/>
      <point x="408" y="166"/>
      <point x="256" y="338"/>
      <point x="256" y="580" type="curve" smooth="yes"/>
      <point x="256" y="919"/>
      <point x="553" y="1234"/>
      <point x="888" y="1234" type="curve" smooth="yes"/>
      <point x="1105" y="1234" type="line"/>
      <point x="893" y="166" type="line"/>
    </contour>
  </outline>
</glyph>
<glyph name="oe" format="2">
  <advance width="1692"/>
  <unicode hex="0153"/>
  <anchor x="846" y="0" name="bottom"/>
  <anchor x="717" y="920" name="top"/>
  <outline>
    <contour>
      <point x="395" y="-18" type="curve" smooth="yes"/>
      <point x="566" y="-17"/>
      <point x="722" y="97"/>
      <point x="808" y="285" type="curve"/>
      <point x="790" y="285" type="line"/>
      <point x="823" y="98"/>
      <point x="946" y="-15"/>
      <point x="1119" y="-18" type="curve" smooth="yes"/>
      <point x="1264" y="-20"/>
      <point x="1406" y="55"/>
      <point x="1551" y="208" type="curve"/>
      <point x="1433" y="294" type="line"/>
      <point x="1317" y="179"/>
      <point x="1229" y="132"/>
      <point x="1135" y="132" type="curve" smooth="yes"/>
      <point x="977" y="132"/>
      <point x="891" y="262"/>
      <point x="925" y="453" type="curve"/>
      <point x="876" y="422" type="line"/>
      <point x="1606" y="420" type="line"/>
      <point x="1617" y="461"/>
      <point x="1623" y="503"/>
      <point x="1623" y="553" type="curve" smooth="yes"/>
      <point x="1623" y="787"/>
      <point x="1497" y="938"/>
      <point x="1297" y="938" type="curve" smooth="yes"/>
      <point x="1120" y="938"/>
      <point x="946" y="820"/>
      <point x="852" y="639" type="curve"/>
      <point x="869" y="639" type="line"/>
      <point x="848" y="828"/>
      <point x="737" y="937"/>
      <point x="564" y="938" type="curve" smooth="yes"/>
      <point x="286" y="940"/>
      <point x="38" y="666"/>
      <point x="38" y="374" type="curve" smooth="yes"/>
      <point x="38" y="147"/>
      <point x="187" y="-19"/>
    </contour>
    <contour>
      <point x="420" y="132" type="curve" smooth="yes"/>
      <point x="288" y="132"/>
      <point x="195" y="238"/>
      <point x="195" y="384" type="curve" smooth="yes"/>
      <point x="195" y="593"/>
      <point x="389" y="799"/>
      <point x="575" y="788" type="curve" smooth="yes"/>
      <point x="695" y="781"/>
      <point x="763" y="689"/>
      <point x="763" y="549" type="curve" smooth="yes"/>
      <point x="763" y="332"/>
      <point x="601" y="132"/>
    </contour>
    <contour>
      <point x="937" y="502" type="line"/>
      <point x="1004" y="689"/>
      <point x="1129" y="798"/>
      <point x="1273" y="798" type="curve" smooth="yes"/>
      <point x="1397" y="798"/>
      <point x="1467" y="717"/>
      <point x="1467" y="577" type="curve" smooth="yes"/>
      <point x="1467" y="560"/>
      <point x="1466" y="542"/>
      <point x="1464" y="525" type="curve"/>
      <point x="1512" y="556" type="line"/>
      <point x="913" y="554" type="line"/>
    </contour>
  </outline>
</glyph>
<glyph name="Tbar" format="2">
  <advance width="874"/>
  <unicode hex="0166"/>
  <anchor x="207" y="-20" name="bottom"/>
  <anchor x="339" y="700" name="center"/>
  <anchor x="733" y="1400" name="top"/>
  <outline>
    <contour>
      <point x="244" y="0" type="line"/>
      <point x="410" y="0" type="line"/>
      <point x="662" y="1240" type="line"/>
      <point x="1000" y="1240" type="line"/>
      <point x="1033" y="1400" type="line"/>
      <point x="189" y="1400" type="line"/>
      <point x="154" y="1240" type="line"/>
      <point x="496" y="1240" type="line"/>
    </contour>
    <contour>
      <point x="140" y="840" type="line"/>
      <point x="928" y="840" type="line"/>
      <point x="952" y="1000" type="line"/>
      <point x="164" y="1000" type="line"/>
    </contour>
  </outline>
</glyph>
<glyph name="tbar" format="2">
  <advance width="486"/>
  <unicode hex="0167"/>
  <anchor x="1" y="-10" name="bottom"/>
  <anchor x="178" y="460" name="center"/>
  <anchor x="454" y="1146" name="top"/>
  <anchor x="592" y="1238" name="topright"/>
  <outline>
    <contour>
      <point x="44" y="0" type="line"/>
      <point x="192" y="0" type="line"/>
      <point x="293" y="490" type="line"/>
      <point x="435" y="490" type="line"/>
      <point x="468" y="640" type="line"/>
      <point x="324" y="640" type="line"/>
      <point x="351" y="770" type="line"/>
      <point x="496" y="770" type="line"/>
      <point x="529" y="920" type="line"/>
      <point x="382" y="920" type="line"/>
      <point x="448" y="1240" type="line"/>
      <point x="286" y="1238" type="line"/>
      <point x="224" y="920" type="line"/>
      <point x="91" y="920" type="line"/>
      <point x="56" y="770" type="line"/>
      <point x="195" y="770" type="line"/>
      <point x="169" y="640" type="line"/>
      <point x="30" y="640" type="line"/>
      <point x="-5" y="490" type="line"/>
      <point x="140" y="490" type="line"/>
    </contour>
  </outline>
</glyph>
<glyph name="florin" format="2">
  <advance width="1200"/>
  <unicode hex="0192"/>
  <outline>
    <contour>
      <point x="181" y="-401" type="curve" smooth="yes"/>
      <point x="333" y="-404"/>
      <point x="450" y="-275"/>
      <point x="490" y="-76" type="curve" smooth="yes"/>
      <point x="661" y="770" type="line"/>
      <point x="816" y="770" type="line"/>
      <point x="849" y="920" type="line"/>
      <point x="691" y="920" type="line"/>
      <point x="756" y="1240" type="line" smooth="yes"/>
      <point x="780" y="1356"/>
      <point x="826" y="1422"/>
      <point x="889" y="1422" type="curve" smooth="yes"/>
      <point x="914" y="1422"/>
      <point x="931" y="1411"/>
      <point x="968" y="1370" type="curve"/>
      <point x="1072" y="1494" type="line"/>
      <point x="1011" y="1555"/>
      <point x="969" y="1576"/>
      <point x="907" y="1578" type="curve" smooth="yes"/>
      <point x="758" y="1582"/>
      <point x="637" y="1456"/>
      <point x="597" y="1253" type="curve" smooth="yes"/>
      <point x="531" y="920" type="line"/>
      <point x="409" y="920" type="line"/>
      <point x="376" y="770" type="line"/>
      <point x="500" y="770" type="line"/>
      <point x="331" y="-63" type="line" smooth="yes"/>
      <point x="307" y="-182"/>
      <point x="258" y="-245"/>
      <point x="199" y="-245" type="curve" smooth="yes"/>
      <point x="173" y="-245"/>
      <point x="156" y="-234"/>
      <point x="120" y="-193" type="curve"/>
      <point x="15" y="-317" type="line"/>
      <point x="77" y="-378"/>
      <point x="117" y="-399"/>
    </contour>
  </outline>
</glyph>
<glyph name="gravecomb" format="2">
  <unicode hex="0300"/>
  <anchor x="49" y="920" name="_top"/>
  <anchor x="-19" y="1400" name="top"/>
  <outline>
    <contour>
      <point x="100" y="1122" type="line"/>
      <point x="191" y="1176" type="line"/>
      <point x="-49" y="1500" type="line"/>
      <point x="-200" y="1424" type="line"/>
    </contour>
  </outline>
</glyph>
<glyph name="acutecomb" format="2">
  <unicode hex="0301"/>
  <anchor x="-12" y="920" name="_top"/>
  <anchor x="41" y="1498" name="top"/>
  <outline>
    <contour>
      <point x="-82" y="1124" type="line"/>
      <point x="305" y="1412" type="line"/>
      <point x="165" y="1498" type="line"/>
      <point x="-167" y="1186" type="line"/>
    </contour>
  </outline>
</glyph>
<glyph name="circumflexcomb" format="2">
  <unicode hex="0302"/>
  <anchor x="118" y="920" name="_top"/>
  <anchor x="42" y="1459" name="top"/>
  <outline>
    <contour>
      <point x="-91" y="1089" type="line"/>
      <point x="168" y="1317" type="line"/>
      <point x="101" y="1316" type="line"/>
      <point x="339" y="1096" type="line"/>
      <point x="425" y="1197" type="line"/>
      <point x="142" y="1459" type="line"/>
      <point x="-167" y="1188" type="line"/>
    </contour>
  </outline>
</glyph>
<glyph name="tildecomb" format="2">
  <unicode hex="0303"/>
  <anchor x="198" y="920" name="_top"/>
  <anchor x="134" y="1374" name="top"/>
  <outline>
    <contour>
      <point x="-72" y="1138" type="line"/>
      <point x="-29" y="1211"/>
      <point x="0" y="1236"/>
      <point x="42" y="1236" type="curve" smooth="yes"/>
      <point x="122" y="1236"/>
      <point x="165" y="1146"/>
      <point x="255" y="1146" type="curve" smooth="yes"/>
      <point x="337" y="1146"/>
      <point x="424" y="1220"/>
      <point x="473" y="1284" type="curve"/>
      <point x="391" y="1374" type="line"/>
      <point x="358" y="1340"/>
      <point x="325" y="1282"/>
      <point x="266" y="1282" type="curve" smooth="yes"/>
      <point x="192" y="1282"/>
      <point x="139" y="1372"/>
      <point x="47" y="1372" type="curve" smooth="yes"/>
      <point x="-41" y="1372"/>
      <point x="-125" y="1290"/>
      <point x="-171" y="1216" type="curve"/>
    </contour>
  </outline>
</glyph>
<glyph name="macroncomb" format="2">
  <unicode hex="0304"/>
  <anchor x="677" y="920" name="_top"/>
  <anchor x="617" y="1350" name="top"/>
  <outline>
    <contour>
      <point x="283" y="1200" type="line"/>
      <point x="947" y="1200" type="line"/>
      <point x="972" y="1350" type="line"/>
      <point x="308" y="1350" type="line"/>
    </contour>
  </outline>
</glyph>
<glyph name="brevecomb" format="2">
  <unicode hex="0306"/>
  <anchor x="114" y="920" name="_top"/>
  <anchor x="49" y="1380" name="top"/>
  <outline>
    <contour>
      <point x="103" y="1094" type="curve" smooth="yes"/>
      <point x="286" y="1094"/>
      <point x="422" y="1217"/>
      <point x="432" y="1379" type="curve"/>
      <point x="293" y="1379" type="line"/>
      <point x="287" y="1292"/>
      <point x="211" y="1227"/>
      <point x="112" y="1227" type="curve" smooth="yes"/>
      <point x="15" y="1227"/>
      <point x="-55" y="1292"/>
      <point x="-49" y="1380" type="curve"/>
      <point x="-188" y="1380" type="line"/>
      <point x="-199" y="1214"/>
      <point x="-75" y="1094"/>
    </contour>
  </outline>
</glyph>
<glyph name="dotaccentcomb" format="2">
  <unicode hex="0307"/>
  <anchor x="-50" y="920" name="_top"/>
  <anchor x="-89" y="1407" name="top"/>
  <outline>
    <contour>
      <point x="-77" y="1142" type="curve" smooth="yes"/>
      <point x="-15" y="1142"/>
      <point x="39" y="1198"/>
      <point x="39" y="1257" type="curve" smooth="yes"/>
      <point x="39" y="1312"/>
      <point x="-5" y="1357"/>
      <point x="-60" y="1357" type="curve" smooth="yes"/>
      <point x="-121" y="1357"/>
      <point x="-173" y="1302"/>
      <point x="-173" y="1241" type="curve" smooth="yes"/>
      <point x="-173" y="1185"/>
      <point x="-132" y="1142"/>
    </contour>
  </outline>
</glyph>
<glyph name="dieresiscomb" format="2">
  <unicode hex="0308"/>
  <anchor x="67" y="920" name="_top"/>
  <anchor x="-4" y="1428" name="top"/>
  <outline>
    <contour>
      <point x="-76" y="1211" type="curve" smooth="yes"/>
      <point x="-23" y="1211"/>
      <point x="31" y="1242"/>
      <point x="31" y="1312" type="curve" smooth="yes"/>
      <point x="31" y="1370"/>
      <point x="-5" y="1429"/>
      <point x="-79" y="1429" type="curve" smooth="yes"/>
      <point x="-137" y="1429"/>
      <point x="-185" y="1393"/>
      <point x="-185" y="1327" type="curve" smooth="yes"/>
      <point x="-185" y="1270"/>
      <point x="-150" y="1211"/>
    </contour>
    <contour>
      <point x="300" y="1211" type="curve" smooth="yes"/>
      <point x="353" y="1211"/>
      <point x="407" y="1242"/>
      <point x="407" y="1312" type="curve" smooth="yes"/>
      <point x="407" y="1370"/>
      <point x="371" y="1429"/>
      <point x="297" y="1429" type="curve" smooth="yes"/>
      <point x="239" y="1429"/>
      <point x="191" y="1393"/>
      <point x="191" y="1327" type="curve" smooth="yes"/>
      <point x="191" y="1270"/>
      <point x="226" y="1211"/>
    </contour>
  </outline>
</glyph>
<glyph name="ringcomb" format="2">
  <unicode hex="030A"/>
  <anchor x="96" y="920" name="_top"/>
  <anchor x="17" y="1484" name="top"/>
  <outline>
    <contour>
      <point x="34" y="1036" type="curve" smooth="yes"/>
      <point x="163" y="1036"/>
      <point x="270" y="1148"/>
      <point x="270" y="1275" type="curve" smooth="yes"/>
      <point x="270" y="1393"/>
      <point x="180" y="1484"/>
      <point x="63" y="1484" type="curve" smooth="yes"/>
      <point x="-66" y="1484"/>
      <point x="-173" y="1371"/>
      <point x="-173" y="1244" type="curve" smooth="yes"/>
      <point x="-173" y="1127"/>
      <point x="-82" y="1036"/>
    </contour>
    <contour>
      <point x="40" y="1141" type="curve" smooth="yes"/>
      <point x="-18" y="1141"/>
      <point x="-62" y="1189"/>
      <point x="-62" y="1251" type="curve" smooth="yes"/>
      <point x="-62" y="1319"/>
      <point x="-7" y="1379"/>
      <point x="57" y="1379" type="curve" smooth="yes"/>
      <point x="116" y="1379"/>
      <point x="159" y="1331"/>
      <point x="159" y="1270" type="curve" smooth="yes"/>
      <point x="159" y="1201"/>
      <point x="104" y="1141"/>
    </contour>
  </outline>
</glyph>
<glyph name="hungarumlautcomb" format="2">
  <unicode hex="030B"/>
  <anchor x="104" y="920" name="_top"/>
  <anchor x="28" y="1463" name="top"/>
  <outline>
    <contour>
      <point x="-55" y="1024" type="line"/>
      <point x="229" y="1413" type="line"/>
      <point x="76" y="1463" type="line"/>
      <point x="-150" y="1065" type="line"/>
    </contour>
    <contour>
      <point x="245" y="1024" type="line"/>
      <point x="529" y="1413" type="line"/>
      <point x="376" y="1463" type="line"/>
      <point x="150" y="1065" type="line"/>
    </contour>
  </outline>
</glyph>
<glyph name="caroncomb" format="2">
  <unicode hex="030C"/>
  <anchor x="167" y="920" name="_top"/>
  <anchor x="91" y="1459" name="top"/>
  <outline>
    <contour>
      <point x="93" y="1089" type="line"/>
      <point x="402" y="1360" type="line"/>
      <point x="326" y="1459" type="line"/>
      <point x="67" y="1231" type="line"/>
      <point x="134" y="1232" type="line"/>
      <point x="-104" y="1452" type="line"/>
      <point x="-190" y="1351" type="line"/>
    </contour>
  </outline>
</glyph>
<glyph name="commaturnedabovecomb" format="2">
  <unicode hex="0312"/>
  <anchor x="113" y="920" name="_top"/>
  <anchor x="20" y="1576" name="top"/>
  <outline>
    <contour>
      <point x="0" y="1024" type="line"/>
      <point x="268" y="1534" type="line"/>
      <point x="156" y="1576" type="line"/>
      <point x="-153" y="1088" type="line"/>
    </contour>
  </outline>
</glyph>
<glyph name="commaaccentcomb" format="2">
  <unicode hex="0326"/>
  <anchor x="181" y="0" name="_bottom"/>
  <anchor x="244" y="-452" name="bottom"/>
  <outline>
    <contour>
      <point x="142" y="-452" type="line"/>
      <point x="375" y="-86" type="line"/>
      <point x="260" y="-38" type="line"/>
      <point x="58" y="-421" type="line"/>
    </contour>
  </outline>
</glyph>
<glyph name="cedillacomb" format="2">
  <unicode hex="0327"/>
  <anchor x="228" y="0" name="_bottom"/>
  <anchor x="290" y="-444" name="bottom"/>
  <outline>
    <contour>
      <point x="216" y="-444" type="curve" smooth="yes"/>
      <point x="355" y="-444"/>
      <point x="449" y="-355"/>
      <point x="449" y="-244" type="curve" smooth="yes"/>
      <point x="449" y="-163"/>
      <point x="399" y="-92"/>
      <point x="309" y="-92" type="curve" smooth="yes"/>
      <point x="267" y="-92"/>
      <point x="244" y="-107"/>
      <point x="226" y="-143" type="curve"/>
      <point x="273" y="-142" type="line"/>
      <point x="438" y="126" type="line"/>
      <point x="318" y="126" type="line"/>
      <point x="141" y="-185" type="line"/>
      <point x="168" y="-181"/>
      <point x="218" y="-180"/>
      <point x="234" y="-180" type="curve" smooth="yes"/>
      <point x="306" y="-180"/>
      <point x="337" y="-201"/>
      <point x="337" y="-249" type="curve" smooth="yes"/>
      <point x="337" y="-300"/>
      <point x="301" y="-334"/>
      <point x="225" y="-334" type="curve" smooth="yes"/>
      <point x="186" y="-334"/>
      <point x="156" y="-326"/>
      <point x="106" y="-295" type="curve"/>
      <point x="54" y="-387" type="line"/>
      <point x="102" y="-426"/>
      <point x="153" y="-444"/>
    </contour>
  </outline>
</glyph>
<glyph name="ogonekcomb" format="2">
  <unicode hex="0328"/>
  <anchor x="290" y="0" name="_ogonek"/>
  <outline>
    <contour>
      <point x="127" y="-438" type="curve" smooth="yes"/>
      <point x="197" y="-435"/>
      <point x="245" y="-406"/>
      <point x="301" y="-364" type="curve"/>
      <point x="250" y="-260" type="line"/>
      <point x="222" y="-276"/>
      <point x="183" y="-304"/>
      <point x="145" y="-298" type="curve" smooth="yes"/>
      <point x="97" y="-292"/>
      <point x="74" y="-244"/>
      <point x="78" y="-198" type="curve" smooth="yes"/>
      <point x="88" y="-97"/>
      <point x="227" y="-39"/>
      <point x="290" y="0" type="curve"/>
      <point x="211" y="48" type="line"/>
      <point x="102" y="-8"/>
      <point x="-64" y="-92"/>
      <point x="-83" y="-237" type="curve" smooth="yes"/>
      <point x="-99" y="-363"/>
      <point x="8" y="-442"/>
    </contour>
  </outline>
</glyph>
<glyph name="Delta" format="2">
  <advance width="1200"/>
  <unicode hex="0394"/>
  <outline>
    <contour>
      <point x="57" y="3" type="line"/>
      <point x="1116" y="3" type="line"/>
      <point x="803" y="1587" type="line"/>
    </contour>
    <contour>
      <point x="303" y="155" type="line"/>
      <point x="744" y="1152" type="line"/>
      <point x="912" y="155" type="line"/>
    </contour>
  </outline>
</glyph>
<glyph name="Omega" format="2">
  <advance width="1200"/>
  <unicode hex="03A9"/>
  <outline>
    <contour>
      <point x="52" y="0" type="line"/>
      <point x="438" y="0" type="line"/>
      <point x="461" y="157" type="line"/>
      <point x="374" y="236"/>
      <point x="321" y="391"/>
      <point x="321" y="544" type="curve" smooth="yes"/>
      <point x="321" y="779"/>
      <point x="446" y="932"/>
      <point x="659" y="932" type="curve" smooth="yes"/>
      <point x="813" y="932"/>
      <point x="898" y="852"/>
      <point x="898" y="701" type="curve" smooth="yes"/>
      <point x="898" y="518"/>
      <point x="773" y="262"/>
      <point x="624" y="157" type="curve"/>
      <point x="601" y="0" type="line"/>
      <point x="986" y="0" type="line"/>
      <point x="1006" y="137" type="line"/>
      <point x="832" y="137" type="line"/>
      <point x="985" y="312"/>
      <point x="1078" y="537"/>
      <point x="1078" y="717" type="curve" smooth="yes"/>
      <point x="1078" y="954"/>
      <point x="918" y="1118"/>
      <point x="680" y="1118" type="curve" smooth="yes"/>
      <point x="374" y="1118"/>
      <point x="144" y="848"/>
      <point x="144" y="524" type="curve" smooth="yes"/>
      <point x="144" y="386"/>
      <point x="186" y="243"/>
      <point x="246" y="137" type="curve"/>
      <point x="72" y="137" type="line"/>
    </contour>
  </outline>
</glyph>
<glyph name="mu" format="2">
  <advance width="986"/>
  <unicode hex="03BC"/>
  <outline>
    <contour>
      <point x="-94" y="-639" type="line"/>
      <point x="54" y="-639" type="line"/>
      <point x="192" y="26" type="line"/>
      <point x="225" y="0"/>
      <point x="272" y="-18"/>
      <point x="337" y="-18" type="curve" smooth="yes"/>
      <point x="450" y="-18"/>
      <point x="539" y="37"/>
      <point x="606" y="115" type="curve"/>
      <point x="582" y="0" type="line"/>
      <point x="740" y="0" type="line"/>
      <point x="929" y="920" type="line"/>
      <point x="771" y="920" type="line"/>
      <point x="653" y="344" type="line" smooth="yes"/>
      <point x="629" y="227"/>
      <point x="514" y="124"/>
      <point x="382" y="132" type="curve" smooth="yes"/>
      <point x="264" y="140"/>
      <point x="233" y="232"/>
      <point x="250" y="314" type="curve" smooth="yes"/>
      <point x="375" y="920" type="line"/>
      <point x="211" y="920" type="line"/>
    </contour>
  </outline>
</glyph>
<glyph name="pi" format="2">
  <advance width="1016"/>
  <unicode hex="03C0"/>
  <outline>
    <contour>
      <point x="782" y="-16" type="curve"/>
      <point x="812" y="142" type="line"/>
      <point x="734" y="172"/>
      <point x="728" y="204"/>
      <point x="738" y="282" type="curve"/>
      <point x="842" y="770" type="line"/>
      <point x="990" y="770" type="line"/>
      <point x="1023" y="920" type="line"/>
      <point x="131" y="920" type="line"/>
      <point x="98" y="770" type="line"/>
      <point x="211" y="770" type="line"/>
      <point x="62" y="0" type="line"/>
      <point x="210" y="0" type="line"/>
      <point x="372" y="770" type="line"/>
      <point x="685" y="770" type="line"/>
      <point x="578" y="242" type="line"/>
      <point x="555" y="80"/>
      <point x="613" y="2"/>
    </contour>
  </outline>
</glyph>
<glyph name="A-cy" format="2">
  <advance width="1240"/>
  <unicode hex="0410"/>
  <outline>
    <contour>
      <point x="-114" y="0" type="line"/>
      <point x="90" y="0" type="line"/>
      <point x="346" y="423" type="line"/>
      <point x="863" y="419" type="line"/>
      <point x="946" y="0" type="line"/>
      <point x="1122" y="0" type="line"/>
      <point x="806" y="1482" type="line"/>
    </contour>
    <contour>
      <point x="438" y="578" type="line"/>
      <point x="744" y="1084" type="line"/>
      <point x="834" y="580" type="line"/>
    </contour>
  </outline>
</glyph>
<glyph name="Ve-cy" format="2">
  <advance width="1050"/>
  <unicode hex="0412"/>
  <outline>
    <contour>
      <point x="35" y="5" type="line"/>
      <point x="417" y="5" type="line" smooth="yes"/>
      <point x="677" y="5"/>
      <point x="901" y="165"/>
      <point x="934" y="405" type="curve" smooth="yes"/>
      <point x="961" y="601"/>
      <point x="843" y="718"/>
      <point x="681" y="760" type="curve"/>
      <point x="834" y="795"/>
      <point x="958" y="885"/>
      <point x="988" y="1045" type="curve" smooth="yes"/>
      <point x="1029" y="1260"/>
      <point x="856" y="1396"/>
      <point x="644" y="1396" type="curve" smooth="yes"/>
      <point x="320" y="1396" type="line"/>
    </contour>
    <contour>
      <point x="237" y="150" type="line"/>
      <point x="345" y="687" type="line"/>
      <point x="552" y="680" type="line" smooth="yes"/>
      <point x="706" y="675"/>
      <point x="805" y="575"/>
      <point x="769" y="421" type="curve" smooth="yes"/>
      <point x="733" y="264"/>
      <point x="582" y="160"/>
      <point x="410" y="155" type="curve" smooth="yes"/>
    </contour>
    <contour>
      <point x="374" y="832" type="line"/>
      <point x="458" y="1250" type="line"/>
      <point x="649" y="1245" type="line" smooth="yes"/>
      <point x="766" y="1242"/>
      <point x="847" y="1160"/>
      <point x="820" y="1042" type="curve" smooth="yes"/>
      <point x="795" y="927"/>
      <point x="679" y="842"/>
      <point x="532" y="837" type="curve" smooth="yes"/>
    </contour>
  </outline>
</glyph>
<glyph name="Ge-cy" format="2">
  <advance width="818"/>
  <unicode hex="0413"/>
  <anchor x="798" y="0" name="bottomright"/>
  <anchor x="212" y="1400" name="top"/>
  <outline>
    <contour>
      <point x="44" y="0" type="line"/>
      <point x="202" y="0" type="line"/>
      <point x="458" y="1240" type="line"/>
      <point x="944" y="1240" type="line"/>
      <point x="979" y="1400" type="line"/>
      <point x="312" y="1398" type="line"/>
    </contour>
  </outline>
</glyph>
<glyph name="De-cy" format="2">
  <advance width="1723"/>
  <unicode hex="0414"/>
  <outline>
    <contour>
      <point x="197" y="117" type="curve"/>
      <point x="413" y="117" type="line"/>
      <point x="673" y="523"/>
      <point x="755" y="778"/>
      <point x="790" y="1315" type="curve"/>
      <point x="725" y="1251" type="line"/>
      <point x="1301" y="1250" type="line"/>
      <point x="1220" y="1329" type="line"/>
      <point x="1139" y="117" type="line"/>
      <point x="1306" y="117" type="line"/>
      <point x="1393" y="1420" type="line"/>
      <point x="630" y="1422" type="line"/>
      <point x="587" y="785"/>
      <point x="499" y="521"/>
    </contour>
    <contour>
      <point x="37" y="-230" type="line"/>
      <point x="204" y="-230" type="line"/>
      <point x="221" y="42" type="line"/>
      <point x="174" y="-4" type="line"/>
      <point x="1323" y="-6" type="line"/>
      <point x="1281" y="40" type="line"/>
      <point x="1264" y="-230" type="line"/>
      <point x="1430" y="-230" type="line"/>
      <point x="1457" y="157" type="line"/>
      <point x="62" y="160" type="line"/>
    </contour>
  </outline>
</glyph>
<glyph name="Ie-cy" format="2">
  <advance width="1034"/>
  <unicode hex="0415"/>
  <anchor x="683" y="1400" name="top"/>
  <outline>
    <contour>
      <point x="44" y="0" type="line"/>
      <point x="806" y="0" type="line"/>
      <point x="836" y="160" type="line"/>
      <point x="236" y="160" type="line"/>
      <point x="344" y="682" type="line"/>
      <point x="904" y="682" type="line"/>
      <point x="934" y="840" type="line"/>
      <point x="377" y="840" type="line"/>
      <point x="460" y="1242" type="line"/>
      <point x="1053" y="1242" type="line"/>
      <point x="1085" y="1400" type="line"/>
      <point x="314" y="1398" type="line"/>
    </contour>
  </outline>
</glyph>
<glyph name="Zhe-cy" format="2">
  <advance width="1684"/>
  <unicode hex="0416"/>
  <anchor x="1664" y="0" name="bottomright"/>
  <anchor x="1020" y="1400" name="top"/>
  <outline>
    <contour>
      <point x="-116" y="0" type="line"/>
      <point x="112" y="0" type="line"/>
      <point x="796" y="678" type="line"/>
      <point x="666" y="0" type="line"/>
      <point x="824" y="0" type="line"/>
      <point x="970" y="704" type="line"/>
      <point x="1376" y="0" type="line"/>
      <point x="1558" y="0" type="line"/>
      <point x="1117" y="730" type="line"/>
      <point x="1838" y="1398" type="line"/>
      <point x="1608" y="1398" type="line"/>
      <point x="990" y="805" type="line"/>
      <point x="1113" y="1400" type="line"/>
      <point x="934" y="1398" type="line"/>
      <point x="814" y="772" type="line"/>
      <point x="399" y="1400" type="line"/>
      <point x="219" y="1400" type="line"/>
      <point x="649" y="758" type="line"/>
    </contour>
  </outline>
</glyph>
<glyph name="Ze-cy" format="2">
  <advance width="1140"/>
  <unicode hex="0417"/>
  <anchor x="456" y="0" name="bottom"/>
  <anchor x="585" y="1400" name="top"/>
  <outline>
    <contour>
      <point x="479" y="-32" type="curve" smooth="yes"/>
      <point x="784" y="-32"/>
      <point x="977" y="127"/>
      <point x="993" y="367" type="curve" smooth="yes"/>
      <point x="1005" y="550"/>
      <point x="909" y="677"/>
      <point x="717" y="732" type="curve"/>
      <point x="888" y="795"/>
      <point x="990" y="916"/>
      <point x="1000" y="1063" type="curve" smooth="yes"/>
      <point x="1014" y="1272"/>
      <point x="840" y="1435"/>
      <point x="580" y="1435" type="curve" smooth="yes"/>
      <point x="324" y="1435"/>
      <point x="129" y="1279"/>
      <point x="113" y="1061" type="curve"/>
      <point x="272" y="1060" type="line"/>
      <point x="281" y="1185"/>
      <point x="411" y="1278"/>
      <point x="579" y="1278" type="curve" smooth="yes"/>
      <point x="741" y="1278"/>
      <point x="838" y="1190"/>
      <point x="828" y="1054" type="curve" smooth="yes"/>
      <point x="818" y="905"/>
      <point x="686" y="803"/>
      <point x="476" y="803" type="curve"/>
      <point x="466" y="651" type="line"/>
      <point x="703" y="650"/>
      <point x="833" y="550"/>
      <point x="822" y="379" type="curve" smooth="yes"/>
      <point x="812" y="226"/>
      <point x="694" y="131"/>
      <point x="489" y="131" type="curve" smooth="yes"/>
      <point x="296" y="131"/>
      <point x="183" y="215"/>
      <point x="178" y="366" type="curve"/>
      <point x="9" y="366" type="line"/>
      <point x="-7" y="125"/>
      <point x="178" y="-32"/>
    </contour>
  </outline>
</glyph>
<glyph name="Ii-cy" format="2">
  <advance width="1458"/>
  <unicode hex="0418"/>
  <anchor x="1438" y="0" name="bottomright"/>
  <anchor x="974" y="1400" name="top"/>
  <outline>
    <contour>
      <point x="11" y="-94" type="line"/>
      <point x="1237" y="1018" type="line"/>
      <point x="1032" y="0" type="line"/>
      <point x="1202" y="0" type="line"/>
      <point x="1510" y="1496" type="line"/>
      <point x="284" y="381" type="line"/>
      <point x="491" y="1400" type="line"/>
      <point x="319" y="1400" type="line"/>
    </contour>
  </outline>
</glyph>
<glyph name="Ka-cy" format="2">
  <advance width="1062"/>
  <unicode hex="041A"/>
  <anchor x="1042" y="0" name="bottomright"/>
  <anchor x="733" y="1400" name="top"/>
  <outline>
    <contour>
      <point x="756" y="0" type="line"/>
      <point x="938" y="0" type="line"/>
      <point x="495" y="730" type="line"/>
      <point x="1216" y="1398" type="line"/>
      <point x="988" y="1398" type="line"/>
      <point x="300" y="754" type="line"/>
    </contour>
    <contour>
      <point x="44" y="0" type="line"/>
      <point x="202" y="0" type="line"/>
      <point x="493" y="1400" type="line"/>
      <point x="314" y="1398" type="line"/>
    </contour>
  </outline>
</glyph>
<glyph name="El-cy" format="2">
  <advance width="1238"/>
  <unicode hex="041B"/>
  <outline>
    <contour>
      <point x="-86" y="-26" type="line"/>
      <point x="170" y="17"/>
      <point x="288" y="223"/>
      <point x="339" y="479" type="curve" smooth="yes"/>
      <point x="492" y="1240" type="line"/>
      <point x="1064" y="1240" type="line"/>
      <point x="812" y="0" type="line"/>
      <point x="982" y="0" type="line"/>
      <point x="1268" y="1400" type="line"/>
      <point x="362" y="1400" type="line"/>
      <point x="181" y="521" type="line" smooth="yes"/>
      <point x="146" y="351"/>
      <point x="99" y="176"/>
      <point x="-62" y="114" type="curve"/>
    </contour>
  </outline>
</glyph>
<glyph name="Em-cy" format="2">
  <advance width="1524"/>
  <unicode hex="041C"/>
  <outline>
    <contour>
      <point x="-44" y="0" type="line"/>
      <point x="132" y="0" type="line"/>
      <point x="422" y="940" type="line"/>
      <point x="685" y="122" type="line"/>
      <point x="1269" y="918" type="line"/>
      <point x="1174" y="0" type="line"/>
      <point x="1342" y="0" type="line"/>
      <point x="1486" y="1494" type="line"/>
      <point x="737" y="466" type="line"/>
      <point x="419" y="1476" type="line"/>
    </contour>
  </outline>
</glyph>
<glyph name="En-cy" format="2">
  <advance width="1344"/>
  <unicode hex="041D"/>
  <anchor x="1324" y="0" name="bottomright"/>
  <outline>
    <contour>
      <point x="44" y="0" type="line"/>
      <point x="202" y="0" type="line"/>
      <point x="344" y="682" type="line"/>
      <point x="1059" y="682" type="line"/>
      <point x="928" y="0" type="line"/>
      <point x="1088" y="0" type="line"/>
      <point x="1377" y="1400" type="line"/>
      <point x="1198" y="1398" type="line"/>
      <point x="1090" y="840" type="line"/>
      <point x="377" y="840" type="line"/>
      <point x="493" y="1400" type="line"/>
      <point x="314" y="1398" type="line"/>
    </contour>
  </outline>
</glyph>
<glyph name="Pe-cy" format="2">
  <advance width="1344"/>
  <unicode hex="041F"/>
  <anchor x="1324" y="0" name="bottomright"/>
  <outline>
    <contour>
      <point x="34" y="0" type="line"/>
      <point x="206" y="0" type="line"/>
      <point x="458" y="1240" type="line"/>
      <point x="1181" y="1242" type="line"/>
      <point x="928" y="0" type="line"/>
      <point x="1088" y="0" type="line"/>
      <point x="1373" y="1400" type="line"/>
      <point x="319" y="1400" type="line"/>
    </contour>
  </outline>
</glyph>
<glyph name="Te-cy" format="2">
  <advance width="874"/>
  <unicode hex="0422"/>
  <anchor x="854" y="0" name="bottomright"/>
  <outline>
    <contour>
      <point x="242" y="0" type="line"/>
      <point x="412" y="0" type="line"/>
      <point x="664" y="1240" type="line"/>
      <point x="1002" y="1240" type="line"/>
      <point x="1036" y="1400" type="line"/>
      <point x="188" y="1400" type="line"/>
      <point x="152" y="1240" type="line"/>
      <point x="494" y="1240" type="line"/>
    </contour>
  </outline>
</glyph>
<glyph name="U-cy" format="2">
  <advance width="1062"/>
  <unicode hex="0423"/>
  <anchor x="334" y="1400" name="top"/>
  <outline>
    <contour>
      <point x="142" y="0" type="line"/>
      <point x="346" y="0" type="line"/>
      <point x="1251" y="1400" type="line"/>
      <point x="1047" y="1400" type="line"/>
      <point x="466" y="472" type="line"/>
      <point x="561" y="460" type="line"/>
      <point x="357" y="1400" type="line"/>
      <point x="175" y="1400" type="line"/>
      <point x="410" y="430" type="line"/>
    </contour>
  </outline>
</glyph>
<glyph name="Ef-cy" format="2">
  <advance width="1472"/>
  <unicode hex="0424"/>
  <outline>
    <contour>
      <point x="619" y="160" type="curve" smooth="yes"/>
      <point x="737" y="160" type="line" smooth="yes"/>
      <point x="1118" y="160"/>
      <point x="1444" y="452"/>
      <point x="1444" y="780" type="curve" smooth="yes"/>
      <point x="1444" y="1044"/>
      <point x="1232" y="1240"/>
      <point x="917" y="1240" type="curve" smooth="yes"/>
      <point x="799" y="1240" type="line" smooth="yes"/>
      <point x="419" y="1240"/>
      <point x="93" y="948"/>
      <point x="93" y="620" type="curve" smooth="yes"/>
      <point x="93" y="355"/>
      <point x="306" y="160"/>
    </contour>
    <contour>
      <point x="617" y="331" type="line" smooth="yes"/>
      <point x="397" y="331"/>
      <point x="259" y="445"/>
      <point x="259" y="623" type="curve" smooth="yes"/>
      <point x="259" y="864"/>
      <point x="512" y="1078"/>
      <point x="801" y="1073" type="curve" smooth="yes"/>
      <point x="919" y="1071" type="line" smooth="yes"/>
      <point x="1141" y="1067"/>
      <point x="1278" y="953"/>
      <point x="1278" y="777" type="curve" smooth="yes"/>
      <point x="1278" y="537"/>
      <point x="1024" y="331"/>
      <point x="735" y="331" type="curve" smooth="yes"/>
    </contour>
    <contour>
      <point x="550" y="0" type="line"/>
      <point x="710" y="0" type="line"/>
      <point x="999" y="1400" type="line"/>
      <point x="819" y="1398" type="line"/>
    </contour>
  </outline>
</glyph>
<glyph name="Ha-cy" format="2">
  <advance width="1044"/>
  <unicode hex="0425"/>
  <anchor x="1024" y="0" name="bottomright"/>
  <outline>
    <contour>
      <point x="-106" y="0" type="line"/>
      <point x="110" y="0" type="line"/>
      <point x="545" y="576" type="line"/>
      <point x="732" y="0" type="line"/>
      <point x="912" y="0" type="line"/>
      <point x="647" y="718" type="line"/>
      <point x="1186" y="1398" type="line"/>
      <point x="972" y="1398" type="line"/>
      <point x="589" y="892" type="line"/>
      <point x="423" y="1400" type="line"/>
      <point x="243" y="1400" type="line"/>
      <point x="487" y="750" type="line"/>
    </contour>
  </outline>
</glyph>
<glyph name="Tse-cy" format="2">
  <advance width="1430"/>
  <unicode hex="0426"/>
  <outline>
    <contour>
      <point x="1057" y="-218" type="line"/>
      <point x="1207" y="-218" type="line"/>
      <point x="1286" y="160" type="line"/>
      <point x="1124" y="160" type="line"/>
      <point x="1375" y="1400" type="line"/>
      <point x="1203" y="1400" type="line"/>
      <point x="952" y="160" type="line"/>
      <point x="228" y="158" type="line"/>
      <point x="482" y="1398" type="line"/>
      <point x="323" y="1400" type="line"/>
      <point x="36" y="0" type="line"/>
      <point x="1102" y="0" type="line"/>
    </contour>
  </outline>
</glyph>
<glyph name="Che-cy" format="2">
  <advance width="1156"/>
  <unicode hex="0427"/>
  <anchor x="1136" y="0" name="bottomright"/>
  <anchor x="382" y="1400" name="top"/>
  <outline>
    <contour>
      <point x="740" y="0" type="line"/>
      <point x="900" y="0" type="line"/>
      <point x="1190" y="1400" type="line"/>
      <point x="1010" y="1398" type="line"/>
      <point x="878" y="710" type="line"/>
      <point x="579" y="710" type="line" smooth="yes"/>
      <point x="429" y="710"/>
      <point x="369" y="880"/>
      <point x="403" y="1036" type="curve" smooth="yes"/>
      <point x="482" y="1400" type="line"/>
      <point x="320" y="1400" type="line"/>
      <point x="250" y="1035" type="line" smooth="yes"/>
      <point x="206" y="807"/>
      <point x="332" y="562"/>
      <point x="551" y="562" type="curve" smooth="yes"/>
      <point x="848" y="562" type="line"/>
    </contour>
  </outline>
</glyph>
<glyph name="Sha-cy" format="2">
  <advance width="1852"/>
  <unicode hex="0428"/>
  <outline>
    <contour>
      <point x="36" y="0" type="line"/>
      <point x="1600" y="0" type="line"/>
      <point x="1883" y="1400" type="line"/>
      <point x="1711" y="1400" type="line"/>
      <point x="1460" y="160" type="line"/>
      <point x="936" y="160" type="line"/>
      <point x="1187" y="1400" type="line"/>
      <point x="1015" y="1400" type="line"/>
      <point x="764" y="160" type="line"/>
      <point x="240" y="160" type="line"/>
      <point x="491" y="1400" type="line"/>
      <point x="319" y="1400" type="line"/>
    </contour>
  </outline>
</glyph>
<glyph name="Shcha-cy" format="2">
  <advance width="1938"/>
  <unicode hex="0429"/>
  <outline>
    <contour>
      <point x="1565" y="-218" type="line"/>
      <point x="1715" y="-218" type="line"/>
      <point x="1794" y="160" type="line"/>
      <point x="1632" y="160" type="line"/>
      <point x="1883" y="1400" type="line"/>
      <point x="1711" y="1400" type="line"/>
      <point x="1460" y="160" type="line"/>
      <point x="936" y="160" type="line"/>
      <point x="1187" y="1400" type="line"/>
      <point x="1015" y="1400" type="line"/>
      <point x="764" y="160" type="line"/>
      <point x="240" y="160" type="line"/>
      <point x="491" y="1400" type="line"/>
      <point x="319" y="1400" type="line"/>
      <point x="36" y="0" type="line"/>
      <point x="1610" y="0" type="line"/>
    </contour>
  </outline>
</glyph>
<glyph name="Hardsign-cy" format="2">
  <advance width="1238"/>
  <unicode hex="042A"/>
  <anchor x="423" y="1400" name="top"/>
  <outline>
    <contour>
      <point x="252" y="0" type="line"/>
      <point x="624" y="0" type="line" smooth="yes"/>
      <point x="875" y="0"/>
      <point x="1107" y="169"/>
      <point x="1145" y="415" type="curve" smooth="yes"/>
      <point x="1182" y="657"/>
      <point x="1006" y="840"/>
      <point x="758" y="840" type="curve" smooth="yes"/>
      <point x="582" y="840" type="line"/>
      <point x="698" y="1400" type="line"/>
      <point x="188" y="1400" type="line"/>
      <point x="152" y="1240" type="line"/>
      <point x="504" y="1242" type="line"/>
    </contour>
    <contour>
      <point x="442" y="164" type="line"/>
      <point x="550" y="679" type="line"/>
      <point x="761" y="678" type="line" smooth="yes"/>
      <point x="913" y="677"/>
      <point x="1014" y="574"/>
      <point x="977" y="419" type="curve" smooth="yes"/>
      <point x="941" y="270"/>
      <point x="799" y="164"/>
      <point x="619" y="164" type="curve" smooth="yes"/>
    </contour>
  </outline>
</glyph>
<glyph name="Softsign-cy" format="2">
  <advance width="1030"/>
  <unicode hex="042C"/>
  <outline>
    <contour>
      <point x="44" y="0" type="line"/>
      <point x="418" y="0" type="line" smooth="yes"/>
      <point x="668" y="0"/>
      <point x="900" y="170"/>
      <point x="937" y="416" type="curve" smooth="yes"/>
      <point x="974" y="661"/>
      <point x="793" y="840"/>
      <point x="550" y="840" type="curve" smooth="yes"/>
      <point x="377" y="840" type="line"/>
      <point x="493" y="1400" type="line"/>
      <point x="314" y="1398" type="line"/>
    </contour>
    <contour>
      <point x="235" y="164" type="line"/>
      <point x="344" y="679" type="line"/>
      <point x="553" y="678" type="line" smooth="yes"/>
      <point x="705" y="677"/>
      <point x="805" y="576"/>
      <point x="769" y="420" type="curve" smooth="yes"/>
      <point x="732" y="258"/>
      <point x="576" y="164"/>
      <point x="413" y="164" type="curve" smooth="yes"/>
    </contour>
  </outline>
</glyph>
<glyph name="Ereversed-cy" format="2">
  <advance width="1296"/>
  <unicode hex="042D"/>
  <outline>
    <contour>
      <point x="589" y="-10" type="curve" smooth="yes"/>
      <point x="975" y="-8"/>
      <point x="1285" y="290"/>
      <point x="1285" y="710" type="curve" smooth="yes"/>
      <point x="1285" y="1117"/>
      <point x="994" y="1427"/>
      <point x="613" y="1430" type="curve" smooth="yes"/>
      <point x="449" y="1431"/>
      <point x="295" y="1377"/>
      <point x="178" y="1277" type="curve"/>
      <point x="176" y="1054" type="line"/>
      <point x="297" y="1183"/>
      <point x="462" y="1259"/>
      <point x="621" y="1259" type="curve" smooth="yes"/>
      <point x="872" y="1259"/>
      <point x="1066" y="1069"/>
      <point x="1099" y="790" type="curve"/>
      <point x="286" y="790" type="line"/>
      <point x="284" y="631" type="line"/>
      <point x="1096" y="631" type="line"/>
      <point x="1053" y="354"/>
      <point x="840" y="161"/>
      <point x="576" y="161" type="curve" smooth="yes"/>
      <point x="410" y="161"/>
      <point x="254" y="237"/>
      <point x="150" y="368" type="curve"/>
      <point x="147" y="145" type="line"/>
      <point x="272" y="42"/>
      <point x="423" y="-11"/>
    </contour>
  </outline>
</glyph>
<glyph name="Iu-cy" format="2">
  <advance width="1938"/>
  <unicode hex="042E"/>
  <anchor x="772" y="1400" name="top"/>
  <outline>
    <contour>
      <point x="1101" y="-20" type="curve" smooth="yes"/>
      <point x="1510" y="-28"/>
      <point x="1840" y="340"/>
      <point x="1899" y="698" type="curve" smooth="yes"/>
      <point x="1958" y="1054"/>
      <point x="1751" y="1412"/>
      <point x="1352" y="1420" type="curve" smooth="yes"/>
      <point x="945" y="1428"/>
      <point x="613" y="1062"/>
      <point x="554" y="700" type="curve" smooth="yes"/>
      <point x="496" y="343"/>
      <point x="704" y="-12"/>
    </contour>
    <contour>
      <point x="44" y="0" type="line"/>
      <point x="202" y="0" type="line"/>
      <point x="493" y="1400" type="line"/>
      <point x="314" y="1398" type="line"/>
    </contour>
    <contour>
      <point x="268" y="682" type="line"/>
      <point x="690" y="682" type="line"/>
      <point x="722" y="840" type="line"/>
      <point x="298" y="840" type="line"/>
    </contour>
    <contour>
      <point x="1099" y="152" type="curve" smooth="yes"/>
      <point x="793" y="160"/>
      <point x="678" y="444"/>
      <point x="734" y="702" type="curve" smooth="yes"/>
      <point x="791" y="966"/>
      <point x="1041" y="1256"/>
      <point x="1356" y="1248" type="curve" smooth="yes"/>
      <point x="1661" y="1241"/>
      <point x="1776" y="958"/>
      <point x="1722" y="702" type="curve" smooth="yes"/>
      <point x="1665" y="430"/>
      <point x="1412" y="145"/>
    </contour>
  </outline>
</glyph>
<glyph name="Ia-cy" format="2">
  <advance width="1052"/>
  <unicode hex="042F"/>
  <anchor x="852" y="1400" name="top"/>
  <outline>
    <contour>
      <point x="-106" y="0" type="line"/>
      <point x="120" y="0" type="line"/>
      <point x="609" y="565" type="line"/>
      <point x="744" y="565" type="line"/>
      <point x="628" y="0" type="line"/>
      <point x="798" y="0" type="line"/>
      <point x="1083" y="1400" type="line"/>
      <point x="701" y="1400" type="line" smooth="yes"/>
      <point x="419" y="1400"/>
      <point x="175" y="1178"/>
      <point x="175" y="920" type="curve" smooth="yes"/>
      <point x="175" y="764"/>
      <point x="265" y="640"/>
      <point x="418" y="589" type="curve"/>
    </contour>
    <contour>
      <point x="564" y="712" type="line" smooth="yes"/>
      <point x="426" y="712"/>
      <point x="340" y="793"/>
      <point x="340" y="917" type="curve" smooth="yes"/>
      <point x="340" y="1094"/>
      <point x="517" y="1250"/>
      <point x="706" y="1250" type="curve" smooth="yes"/>
      <point x="882" y="1250" type="line"/>
      <point x="773" y="712" type="line"/>
    </contour>
  </outline>
</glyph>
<glyph name="be-cy" format="2">
  <advance width="1026"/>
  <unicode hex="0431"/>
  <outline>
    <contour>
      <point x="461" y="-20" type="curve" smooth="yes"/>
      <point x="729" y="-20"/>
      <point x="943" y="208"/>
      <point x="976" y="458" type="curve" smooth="yes"/>
      <point x="1009" y="702"/>
      <point x="865" y="938"/>
      <point x="598" y="938" type="curve" smooth="yes"/>
      <point x="414" y="938"/>
      <point x="293" y="826"/>
      <point x="226" y="684" type="curve"/>
      <point x="283" y="902"/>
      <point x="454" y="1100"/>
      <point x="637" y="1182" type="curve" smooth="yes"/>
      <point x="827" y="1267"/>
      <point x="979" y="1335"/>
      <point x="1066" y="1556" type="curve"/>
      <point x="906" y="1558" type="line"/>
      <point x="817" y="1415"/>
      <point x="718" y="1370"/>
      <point x="590" y="1312" type="curve" smooth="yes"/>
      <point x="304" y="1182"/>
      <point x="85" y="862"/>
      <point x="85" y="487" type="curve" smooth="yes"/>
      <point x="85" y="266"/>
      <point x="161" y="-20"/>
    </contour>
    <contour>
      <point x="452" y="132" type="curve" smooth="yes"/>
      <point x="281" y="136"/>
      <point x="246" y="283"/>
      <point x="236" y="352" type="curve" smooth="yes"/>
      <point x="195" y="624"/>
      <point x="383" y="790"/>
      <point x="571" y="790" type="curve" smooth="yes"/>
      <point x="753" y="790"/>
      <point x="851" y="636"/>
      <point x="816" y="460" type="curve" smooth="yes"/>
      <point x="783" y="294"/>
      <point x="637" y="129"/>
    </contour>
  </outline>
</glyph>
<glyph name="ve-cy" format="2">
  <advance width="852"/>
  <unicode hex="0432"/>
  <outline>
    <contour>
      <point x="34" y="0" type="line"/>
      <point x="424" y="2" type="line" smooth="yes"/>
      <point x="575" y="3"/>
      <point x="722" y="90"/>
      <point x="743" y="247" type="curve" smooth="yes"/>
      <point x="760" y="373"/>
      <point x="681" y="434"/>
      <point x="582" y="462" type="curve"/>
      <point x="685" y="492"/>
      <point x="772" y="557"/>
      <point x="790" y="667" type="curve" smooth="yes"/>
      <point x="818" y="829"/>
      <point x="672" y="920"/>
      <point x="523" y="920" type="curve" smooth="yes"/>
      <point x="207" y="920" type="line"/>
    </contour>
    <contour>
      <point x="213" y="139" type="line"/>
      <point x="268" y="397" type="line"/>
      <point x="463" y="394" type="line" smooth="yes"/>
      <point x="533" y="393"/>
      <point x="603" y="353"/>
      <point x="590" y="274" type="curve" smooth="yes"/>
      <point x="575" y="183"/>
      <point x="465" y="141"/>
      <point x="385" y="140" type="curve" smooth="yes"/>
    </contour>
    <contour>
      <point x="297" y="533" type="line"/>
      <point x="349" y="781" type="line"/>
      <point x="521" y="778" type="line" smooth="yes"/>
      <point x="584" y="777"/>
      <point x="643" y="735"/>
      <point x="631" y="663" type="curve" smooth="yes"/>
      <point x="618" y="580"/>
      <point x="521" y="535"/>
      <point x="447" y="534" type="curve" smooth="yes"/>
    </contour>
  </outline>
</glyph>
<glyph name="ge-cy" format="2">
  <advance width="620"/>
  <unicode hex="0433"/>
  <anchor x="600" y="0" name="bottomright"/>
  <anchor x="467" y="906" name="top"/>
  <outline>
    <contour>
      <point x="44" y="0" type="line"/>
      <point x="194" y="0" type="line"/>
      <point x="354" y="770" type="line"/>
      <point x="662" y="770" type="line"/>
      <point x="695" y="920" type="line"/>
      <point x="215" y="918" type="line"/>
    </contour>
  </outline>
</glyph>
<glyph name="de-cy" format="2">
  <advance width="1232"/>
  <unicode hex="0434"/>
  <outline>
    <contour>
      <point x="173" y="53" type="curve"/>
      <point x="359" y="53" type="line"/>
      <point x="548" y="255"/>
      <point x="698" y="486"/>
      <point x="751" y="868" type="curve"/>
      <point x="695" y="799" type="line"/>
      <point x="1002" y="808" type="line"/>
      <point x="953" y="868" type="line"/>
      <point x="842" y="53" type="line"/>
      <point x="998" y="53" type="line"/>
      <point x="1121" y="962" type="line"/>
      <point x="620" y="953" type="line"/>
      <point x="555" y="480"/>
      <point x="416" y="299"/>
    </contour>
    <contour>
      <point x="83" y="-188" type="line"/>
      <point x="239" y="-188" type="line"/>
      <point x="271" y="43" type="line"/>
      <point x="221" y="-3" type="line"/>
      <point x="1010" y="-5" type="line"/>
      <point x="973" y="42" type="line"/>
      <point x="941" y="-188" type="line"/>
      <point x="1097" y="-188" type="line"/>
      <point x="1144" y="149" type="line"/>
      <point x="129" y="151" type="line"/>
    </contour>
  </outline>
</glyph>
<glyph name="zhe-cy" format="2">
  <advance width="1270"/>
  <unicode hex="0436"/>
  <anchor x="1250" y="0" name="bottomright"/>
  <anchor x="704" y="920" name="top"/>
  <outline>
    <contour>
      <point x="-126" y="0" type="line"/>
      <point x="92" y="0" type="line"/>
      <point x="547" y="468" type="line"/>
      <point x="454" y="0" type="line"/>
      <point x="602" y="2" type="line"/>
      <point x="701" y="494" type="line"/>
      <point x="982" y="0" type="line"/>
      <point x="1154" y="0" type="line"/>
      <point x="833" y="508" type="line"/>
      <point x="1327" y="918" type="line"/>
      <point x="1107" y="918" type="line"/>
      <point x="722" y="600" type="line"/>
      <point x="785" y="918" type="line"/>
      <point x="637" y="918" type="line"/>
      <point x="568" y="571" type="line"/>
      <point x="291" y="920" type="line"/>
      <point x="123" y="920" type="line"/>
      <point x="429" y="534" type="line"/>
    </contour>
  </outline>
</glyph>
<glyph name="ze-cy" format="2">
  <advance width="894"/>
  <unicode hex="0437"/>
  <anchor x="447" y="0" name="bottom"/>
  <anchor x="525" y="938" name="top"/>
  <outline>
    <contour>
      <point x="370" y="-18" type="curve" smooth="yes"/>
      <point x="562" y="-18"/>
      <point x="739" y="111"/>
      <point x="762" y="267" type="curve" smooth="yes"/>
      <point x="777" y="366"/>
      <point x="723" y="444"/>
      <point x="609" y="486" type="curve"/>
      <point x="720" y="515"/>
      <point x="789" y="576"/>
      <point x="804" y="662" type="curve" smooth="yes"/>
      <point x="830" y="807"/>
      <point x="697" y="938"/>
      <point x="527" y="938" type="curve" smooth="yes"/>
      <point x="374" y="938"/>
      <point x="247" y="832"/>
      <point x="189" y="658" type="curve"/>
      <point x="354" y="654" type="line"/>
      <point x="410" y="752"/>
      <point x="470" y="796"/>
      <point x="545" y="792" type="curve" smooth="yes"/>
      <point x="615" y="788"/>
      <point x="657" y="744"/>
      <point x="650" y="686" type="curve" smooth="yes"/>
      <point x="642" y="615"/>
      <point x="565" y="576"/>
      <point x="451" y="558" type="curve"/>
      <point x="429" y="420" type="line"/>
      <point x="565" y="400"/>
      <point x="623" y="351"/>
      <point x="604" y="272" type="curve" smooth="yes"/>
      <point x="583" y="183"/>
      <point x="480" y="119"/>
      <point x="367" y="122" type="curve" smooth="yes"/>
      <point x="274" y="125"/>
      <point x="231" y="171"/>
      <point x="209" y="290" type="curve"/>
      <point x="57" y="290" type="line"/>
      <point x="75" y="95"/>
      <point x="190" y="-18"/>
    </contour>
  </outline>
</glyph>
<glyph name="ii-cy" format="2">
  <advance width="1024"/>
  <unicode hex="0438"/>
  <anchor x="1004" y="0" name="bottomright"/>
  <anchor x="664" y="920" name="top"/>
  <outline>
    <contour>
      <point x="11" y="-94" type="line"/>
      <point x="724" y="572" type="line"/>
      <point x="608" y="0" type="line"/>
      <point x="770" y="0" type="line"/>
      <point x="981" y="1016" type="line"/>
      <point x="268" y="348" type="line"/>
      <point x="384" y="920" type="line"/>
      <point x="222" y="920" type="line"/>
    </contour>
  </outline>
</glyph>
<glyph name="ka-cy" format="2">
  <advance width="826"/>
  <unicode hex="043A"/>
  <anchor x="806" y="0" name="bottomright"/>
  <anchor x="498" y="920" name="top"/>
  <outline>
    <contour>
      <point x="540" y="0" type="line"/>
      <point x="712" y="0" type="line"/>
      <point x="412" y="528" type="line"/>
      <point x="885" y="918" type="line"/>
      <point x="663" y="918" type="line"/>
      <point x="224" y="554" type="line"/>
    </contour>
    <contour>
      <point x="26" y="0" type="line"/>
      <point x="174" y="0" type="line"/>
      <point x="369" y="920" type="line"/>
      <point x="197" y="918" type="line"/>
    </contour>
  </outline>
</glyph>
<glyph name="el-cy" format="2">
  <advance width="1050"/>
  <unicode hex="043B"/>
  <outline>
    <contour>
      <point x="-97" y="-18" type="line"/>
      <point x="118" y="11"/>
      <point x="228" y="119"/>
      <point x="269" y="319" type="curve" smooth="yes"/>
      <point x="360" y="770" type="line"/>
      <point x="792" y="770" type="line"/>
      <point x="632" y="0" type="line"/>
      <point x="794" y="0" type="line"/>
      <point x="983" y="920" type="line"/>
      <point x="229" y="920" type="line"/>
      <point x="103" y="320" type="line" smooth="yes"/>
      <point x="80" y="209"/>
      <point x="26" y="157"/>
      <point x="-73" y="124" type="curve"/>
    </contour>
  </outline>
</glyph>
<glyph name="em-cy" format="2">
  <advance width="1142"/>
  <unicode hex="043C"/>
  <outline>
    <contour>
      <point x="450" y="-70" type="line"/>
      <point x="855" y="512" type="line"/>
      <point x="852" y="0" type="line"/>
      <point x="1024" y="0" type="line"/>
      <point x="1002" y="1010" type="line"/>
      <point x="508" y="276" type="line"/>
      <point x="327" y="1006" type="line"/>
      <point x="-112" y="0" type="line"/>
      <point x="76" y="0" type="line"/>
      <point x="285" y="523" type="line"/>
    </contour>
  </outline>
</glyph>
<glyph name="en-cy" format="2">
  <advance width="1062"/>
  <unicode hex="043D"/>
  <anchor x="1042" y="0" name="bottomright"/>
  <outline>
    <contour>
      <point x="34" y="0" type="line"/>
      <point x="184" y="0" type="line"/>
      <point x="271" y="412" type="line"/>
      <point x="743" y="412" type="line"/>
      <point x="666" y="0" type="line"/>
      <point x="814" y="0" type="line"/>
      <point x="1009" y="920" type="line"/>
      <point x="837" y="918" type="line"/>
      <point x="770" y="560" type="line"/>
      <point x="302" y="560" type="line"/>
      <point x="379" y="920" type="line"/>
      <point x="207" y="918" type="line"/>
    </contour>
  </outline>
</glyph>
<glyph name="pe-cy" format="2">
  <advance width="986"/>
  <unicode hex="043F"/>
  <anchor x="966" y="0" name="bottomright"/>
  <outline>
    <contour>
      <point x="24" y="0" type="line"/>
      <point x="186" y="0" type="line"/>
      <point x="346" y="770" type="line"/>
      <point x="738" y="770" type="line"/>
      <point x="580" y="0" type="line"/>
      <point x="742" y="0" type="line"/>
      <point x="931" y="920" type="line"/>
      <point x="213" y="920" type="line"/>
    </contour>
  </outline>
</glyph>
<glyph name="es-cy" format="2">
  <advance width="898"/>
  <unicode hex="0441"/>
  <anchor x="878" y="0" name="bottomright"/>
  <outline>
    <contour>
      <point x="408" y="-20" type="curve" smooth="yes"/>
      <point x="537" y="-21"/>
      <point x="643" y="33"/>
      <point x="724" y="96" type="curve"/>
      <point x="754" y="294" type="line"/>
      <point x="666" y="210"/>
      <point x="538" y="128"/>
      <point x="405" y="134" type="curve" smooth="yes"/>
      <point x="228" y="142"/>
      <point x="160" y="303"/>
      <point x="195" y="460" type="curve" smooth="yes"/>
      <point x="233" y="628"/>
      <point x="386" y="784"/>
      <point x="573" y="788" type="curve" smooth="yes"/>
      <point x="690" y="790"/>
      <point x="779" y="732"/>
      <point x="830" y="622" type="curve"/>
      <point x="862" y="820" type="line"/>
      <point x="775" y="900"/>
      <point x="680" y="938"/>
      <point x="569" y="938" type="curve" smooth="yes"/>
      <point x="293" y="938"/>
      <point x="72" y="704"/>
      <point x="35" y="460" type="curve" smooth="yes"/>
      <point x="-2" y="219"/>
      <point x="142" y="-18"/>
    </contour>
  </outline>
</glyph>
<glyph name="te-cy" format="2">
  <advance width="526"/>
  <unicode hex="0442"/>
  <anchor x="506" y="0" name="bottomright"/>
  <outline>
    <contour>
      <point x="82" y="0" type="line"/>
      <point x="230" y="0" type="line"/>
      <point x="393" y="770" type="line"/>
      <point x="568" y="770" type="line"/>
      <point x="601" y="920" type="line"/>
      <point x="81" y="920" type="line"/>
      <point x="48" y="770" type="line"/>
      <point x="227" y="770" type="line"/>
    </contour>
  </outline>
</glyph>
<glyph name="u-cy" format="2">
  <advance width="826"/>
  <unicode hex="0443"/>
  <anchor x="284" y="920" name="top"/>
  <outline>
    <contour>
      <point x="-118" y="-438" type="line"/>
      <point x="76" y="-438" type="line"/>
      <point x="919" y="918" type="line"/>
      <point x="725" y="918" type="line"/>
      <point x="319" y="212" type="line"/>
      <point x="388" y="200" type="line"/>
      <point x="255" y="920" type="line"/>
      <point x="79" y="920" type="line"/>
      <point x="250" y="146" type="line"/>
    </contour>
  </outline>
</glyph>
